<svg width="70" height="64" viewBox="0 0 70 64" fill="none" xmlns="http://www.w3.org/2000/svg">
<mask id="path-1-inside-1_2_688" fill="white">
<path d="M69.9872 21.4998C69.8717 19.5036 67.4975 17.9438 62.7492 16.7538C62.909 16.4038 62.9988 16.0398 63 15.6618V7.4998H62.9802C62.5625 0.700468 34.7002 0.499802 31.5 0.499802C28.2998 0.499802 0.4375 0.700468 0.0198333 7.4998H0V7.65147V15.6653C0.00583333 17.882 2.8665 19.6168 7.1225 20.9083C7.06417 21.102 7.02917 21.2991 7.0175 21.4998H7V21.6515V29.6513C2.415 30.832 0.124833 32.3696 0.0116667 34.3331H0V34.4848V42.4986C0.0035 44.0421 1.39533 45.3511 3.67267 46.442C3.58633 46.6788 3.53267 46.9203 3.5175 47.1676H3.5V47.3193V55.3331C3.50933 59.2135 12.2465 61.6226 21.9543 62.7473C22.0255 62.7613 22.0908 62.7905 22.1667 62.7905C22.1888 62.7905 22.2075 62.7788 22.2297 62.7776C24.101 62.9888 26.0027 63.1533 27.8845 63.2711C27.9242 63.2758 27.9592 63.2945 28 63.2945C28.0222 63.2945 28.0397 63.2828 28.0607 63.2816C30.45 63.4263 32.8008 63.4998 35 63.4998C37.1992 63.4998 39.55 63.4263 41.9393 63.2805C41.9603 63.2816 41.979 63.2933 42 63.2933C42.0408 63.2933 42.0758 63.2735 42.1155 63.27C43.9973 63.1521 45.899 62.9888 47.7703 62.7765C47.7925 62.7765 47.8112 62.7881 47.8333 62.7881C47.9092 62.7881 47.9745 62.759 48.0457 62.745C57.7535 61.6203 66.4895 59.21 66.5 55.3285V47.1665H66.4813C66.3997 45.7361 65.1805 44.5426 62.7725 43.5451C62.9195 43.208 63 42.858 63 42.4951V34.8698C67.1883 33.5818 69.9942 31.8586 70 29.6618V21.4998H69.9872ZM60.5407 42.8743L60.1428 43.2231C59.5303 43.7633 58.5095 44.3081 57.1667 44.8331V39.2705C58.5538 38.7875 59.7345 38.252 60.6667 37.6651V42.4928C60.6667 42.613 60.6223 42.7413 60.5407 42.8743ZM34.447 48.2958C34.2767 48.3005 34.1052 48.3028 33.9337 48.3063C33.5172 48.3145 33.0902 48.3168 32.6678 48.3203V42.4928C32.9887 42.4893 33.3095 42.4846 33.6303 42.4788C33.6922 42.4776 33.754 42.4765 33.8158 42.4753C34.9907 42.4531 36.1655 42.417 37.3345 42.3633V48.1885C37.0848 48.2013 36.834 48.213 36.5808 48.2235C35.8785 48.255 35.1692 48.2783 34.447 48.2958ZM29.3522 48.3121C28.8178 48.3028 28.2858 48.29 27.7573 48.2736C27.692 48.2713 27.6267 48.269 27.5613 48.2666C26.9255 48.2456 26.2943 48.2188 25.6678 48.1885V42.3645C26.8368 42.4193 28.0117 42.4555 29.1865 42.4765C29.2483 42.4776 29.3102 42.4788 29.3708 42.48C29.6917 42.4858 30.0125 42.4905 30.3333 42.494V48.325C30.107 48.3226 29.8807 48.3226 29.6555 48.3191C29.5528 48.3168 29.4537 48.3133 29.3522 48.3121ZM8.27983 45.6521C8.24133 45.6405 8.20517 45.63 8.16667 45.6195V39.9833C9.25633 40.2773 10.4277 40.5456 11.6667 40.7895V46.484C10.5957 46.2565 9.6075 46.0173 8.708 45.7723C8.56567 45.7315 8.41867 45.693 8.27983 45.6521ZM32.8708 55.3133C33.1917 55.3191 33.5125 55.3238 33.8333 55.3273V61.1595C32.221 61.1443 30.6647 61.0976 29.1667 61.0241V55.199C30.3357 55.2538 31.5105 55.29 32.6853 55.311C32.7472 55.311 32.809 55.3121 32.8708 55.3133ZM37.3147 55.3098C38.4895 55.2876 39.6643 55.2515 40.8333 55.1978V61.023C39.3353 61.0965 37.779 61.1431 36.1667 61.1583V55.3261C36.4875 55.3226 36.8083 55.318 37.1292 55.3121C37.191 55.3121 37.2528 55.311 37.3147 55.3098ZM46.6667 54.7825V60.5761C45.5455 60.694 44.3788 60.7978 43.1667 60.883V55.0648C44.3497 54.9878 45.5187 54.8933 46.6667 54.7825ZM49 54.5305C50.2028 54.3858 51.3707 54.2213 52.5 54.0381V59.7665C51.401 59.9601 50.2332 60.1386 49 60.3008V54.5305ZM54.8333 53.6216C56.0723 53.3778 57.2437 53.1095 58.3333 52.8155V58.4516C57.2938 58.7515 56.1237 59.042 54.8333 59.3161V53.6216ZM15.1667 53.6216V59.3161C13.8763 59.042 12.7062 58.7515 11.6667 58.4516V52.8155C12.7563 53.1095 13.9277 53.379 15.1667 53.6216ZM17.5 54.0393C18.6293 54.2225 19.7972 54.387 21 54.5316V60.302C19.7668 60.1398 18.599 59.9613 17.5 59.7676V54.0393ZM23.3333 54.7825C24.4813 54.8933 25.6503 54.9878 26.8333 55.066V60.8841C25.6212 60.799 24.4545 60.6951 23.3333 60.5773V54.7825ZM20.4388 47.8058C20.3198 47.7941 20.202 47.7813 20.0842 47.7696C20.0002 47.7615 19.9173 47.751 19.8333 47.7428V41.9503C20.9813 42.0611 22.1503 42.1556 23.3333 42.2338V48.0473C22.3533 47.9773 21.385 47.898 20.4388 47.8058ZM17.5 41.6971V47.4675C16.2668 47.3053 15.099 47.1268 14 46.9331V41.2048C15.1293 41.388 16.2972 41.5536 17.5 41.6971ZM40.4437 47.9925C40.187 48.0123 39.928 48.0321 39.6667 48.0508V42.2326C40.8497 42.1545 42.0187 42.0611 43.1667 41.9491V47.7428C42.4457 47.8186 41.7083 47.8898 40.9512 47.9516C40.782 47.9668 40.6128 47.9796 40.4437 47.9925ZM45.5 47.4675V41.6971C46.7028 41.5525 47.8707 41.388 49 41.2048V46.9331C47.901 47.1268 46.7332 47.3065 45.5 47.4675ZM51.3333 40.7883C52.5723 40.5445 53.7437 40.2761 54.8333 39.9821V45.6183C53.7938 45.9181 52.6237 46.2086 51.3333 46.4828V40.7883ZM35.3792 35.459C34.5018 35.4368 33.6443 35.403 32.802 35.3621C32.7565 35.3598 32.711 35.3575 32.6667 35.3563V29.5311C33.8357 29.586 35.0105 29.6221 36.1853 29.6431C36.2472 29.6443 36.309 29.6455 36.3697 29.6466C36.6905 29.6525 37.0113 29.6571 37.3322 29.6606V35.4858C36.764 35.48 36.1912 35.4776 35.637 35.4648C35.5518 35.4625 35.4643 35.4613 35.3792 35.459ZM8.16667 18.7861V13.15C9.25633 13.444 10.4277 13.7123 11.6667 13.9561V19.6506C11.5232 19.6203 11.375 19.59 11.235 19.5596C10.6143 19.4231 10.0088 19.2808 9.43017 19.1303C8.98917 19.0171 8.57033 18.9016 8.16667 18.7861ZM29.3708 15.6466C29.6917 15.6525 30.0125 15.6571 30.3333 15.6606V21.4858C28.763 21.4706 27.202 21.4298 25.6667 21.3528V15.5323C26.8357 15.5871 28.0105 15.6233 29.1853 15.6443C29.2472 15.6443 29.309 15.6455 29.3708 15.6466ZM33.8147 15.6431C34.9895 15.621 36.1643 15.5848 37.3333 15.5311V21.3516C37.135 21.361 36.9448 21.375 36.7453 21.3843C36.729 21.3855 36.7127 21.3855 36.6952 21.3866C35.9123 21.4216 35.1143 21.4473 34.3058 21.466C34.1798 21.4695 34.0538 21.4706 33.9278 21.4741C33.5125 21.4823 33.0878 21.4835 32.6667 21.4881V15.6606C32.9875 15.6571 33.3083 15.6525 33.6292 15.6466C33.691 15.6455 33.7528 15.6443 33.8147 15.6431ZM60.3995 16.2288L60.3668 16.2218L59.9422 16.552C59.3262 17.0315 58.38 17.5168 57.1667 17.9858V12.436C58.5538 11.953 59.7345 11.4175 60.6667 10.8306V15.6583C60.6667 15.8356 60.5733 16.027 60.3995 16.2288ZM45.5 20.6271V14.8638C46.7028 14.7191 47.8707 14.5546 49 14.3715V20.0905C47.894 20.2865 46.7297 20.4661 45.5 20.6271ZM51.3333 19.6413V13.9561C52.5723 13.7123 53.7437 13.444 54.8333 13.15V18.7733C53.788 19.0778 52.6108 19.3683 51.3333 19.6413ZM43.1667 15.1158V20.9025C42.0397 21.0215 40.873 21.1253 39.6667 21.2116V15.3993C40.8497 15.3211 42.0187 15.2266 43.1667 15.1158ZM19.8333 20.9048V15.1158C20.9813 15.2266 22.1503 15.3211 23.3333 15.3993V21.207C22.1457 21.1218 20.9743 21.025 19.8333 20.9048ZM17.5 14.8638V20.6283C17.269 20.598 17.0287 20.5735 16.8 20.542C16.6507 20.521 16.5083 20.4988 16.3613 20.4778C15.687 20.381 15.0278 20.2771 14.3815 20.1686C14.252 20.1465 14.1272 20.1231 14 20.101V14.3726C15.1293 14.5546 16.2972 14.7203 17.5 14.8638ZM30.044 35.1953C29.8865 35.1836 29.7278 35.172 29.5715 35.1603C28.8248 35.102 28.0957 35.0378 27.384 34.9666C27.2312 34.9515 27.0783 34.9351 26.9267 34.92C26.8952 34.9165 26.8648 34.9118 26.8333 34.9095V29.1158C27.9813 29.2266 29.1503 29.3211 30.3333 29.3993V35.214C30.2388 35.207 30.1385 35.2023 30.044 35.1953ZM22.3358 34.3238C21.8738 34.2503 21.4398 34.171 21 34.094V28.3726C22.1293 28.5558 23.2972 28.7203 24.5 28.865V34.6353C23.786 34.5408 23.0872 34.4428 22.4163 34.3378C22.3895 34.332 22.3627 34.3273 22.3358 34.3238ZM18.6667 27.955V33.6401C17.3775 33.3636 16.2085 33.0696 15.1667 32.764V27.1488C16.2563 27.4428 17.4277 27.7123 18.6667 27.955ZM12.8333 26.436V31.9788C10.9993 31.2706 9.81633 30.5473 9.43133 29.9033L9.35317 29.7726C9.34617 29.7365 9.3345 29.698 9.33333 29.6618V24.8306C10.2655 25.4175 11.4462 25.953 12.8333 26.436ZM40.8147 29.6431C41.9895 29.621 43.1643 29.5848 44.3333 29.5311V35.3505C42.8003 35.4263 41.2417 35.4683 39.6667 35.4846V29.6606C39.9875 29.6571 40.3083 29.6525 40.6292 29.6466C40.691 29.6455 40.7528 29.6443 40.8147 29.6431ZM55.8915 34.1196C55.3793 34.2083 54.8625 34.2958 54.3317 34.3763C54.0272 34.423 53.7157 34.4673 53.403 34.5116C53.1078 34.5536 52.801 34.5898 52.5012 34.6283V28.8638C53.704 28.7191 54.8718 28.5546 56.0012 28.3715V34.0998C55.9638 34.1068 55.9277 34.1138 55.8915 34.1196ZM47.992 35.116C47.5568 35.1521 47.1077 35.1755 46.6667 35.207V29.3993C47.8497 29.3211 49.0187 29.2278 50.1667 29.1158V34.9036C49.4888 34.9748 48.8122 35.046 48.1157 35.1043C48.0737 35.1078 48.034 35.1125 47.992 35.116ZM61.3247 32.9285C60.7437 33.0906 60.1288 33.2423 59.5012 33.3905C59.2107 33.4581 58.9143 33.5258 58.611 33.5911C58.5212 33.611 58.4255 33.6285 58.3345 33.6483V27.9561C59.5735 27.7123 60.7448 27.444 61.8345 27.15V32.7861C61.6665 32.8328 61.4973 32.8806 61.3247 32.9285ZM67.6538 21.5756C67.5465 22.3678 65.751 23.4213 62.5462 24.4118C58.4185 25.687 51.9598 26.8548 43.7745 27.2165C43.3557 27.234 42.938 27.2515 42.511 27.2655C42.1622 27.2771 41.8122 27.2876 41.4563 27.297C40.4903 27.318 39.5103 27.3331 38.5 27.3331C37.4897 27.3331 36.5097 27.318 35.5437 27.2958C35.189 27.2876 34.839 27.276 34.489 27.2643C34.0608 27.2515 33.6432 27.2328 33.2255 27.2153C25.0402 26.8536 18.5803 25.6858 14.4538 24.4106C11.2747 23.4283 9.48267 22.383 9.34967 21.5943C9.3555 21.5721 9.3555 21.5535 9.3695 21.5255C9.44883 21.5453 9.5375 21.5616 9.618 21.5815C10.0742 21.69 10.542 21.795 11.018 21.8953C13.3362 22.3946 15.9052 22.8041 18.6422 23.1168C18.6515 23.1168 18.6585 23.1215 18.6667 23.1215C18.669 23.1215 18.6725 23.1203 18.6725 23.1203C20.5368 23.3326 22.4712 23.4995 24.4568 23.6173C24.472 23.6173 24.4848 23.6255 24.5 23.6255C24.5082 23.6255 24.514 23.6208 24.5222 23.6208C25.9513 23.7048 27.3992 23.7666 28.8645 23.7993C29.7617 23.8215 30.6425 23.8331 31.5 23.8331C32.1125 23.8331 32.7402 23.8261 33.3737 23.8145C41.8507 23.6838 49.707 22.6758 55.174 21.1136C55.426 21.0425 55.6722 20.969 55.9148 20.8955C56.063 20.85 56.2147 20.8056 56.3582 20.7601C56.7805 20.6248 57.1853 20.486 57.5762 20.3413C57.6438 20.3156 57.708 20.29 57.7757 20.2643C58.1058 20.1395 58.4232 20.01 58.7265 19.8781C58.814 19.8396 58.9038 19.8023 58.989 19.7638C59.3122 19.618 59.6248 19.4686 59.9142 19.3135C60.0448 19.2446 60.158 19.1735 60.2805 19.1035C60.4205 19.023 60.5605 18.9413 60.69 18.8585C60.7635 18.8118 60.851 18.7675 60.921 18.7208C66.1442 19.8536 67.5208 21.0926 67.6538 21.5756ZM31.5 2.83313C50.7372 2.83313 60.4672 5.8618 60.6492 7.60013C60.508 8.3888 58.7172 9.43063 55.5462 10.4106C51.4185 11.6858 44.9598 12.8536 36.7745 13.2153C36.3557 13.2328 35.938 13.2503 35.511 13.2643C35.1622 13.276 34.8122 13.2865 34.4563 13.2958C33.4903 13.318 32.5103 13.3331 31.5 13.3331C30.4897 13.3331 29.5097 13.318 28.5437 13.2958C28.189 13.2876 27.839 13.276 27.489 13.2643C27.0608 13.2515 26.6432 13.2328 26.2255 13.2153C18.0402 12.8536 11.5803 11.6858 7.45383 10.4106C4.28167 9.43063 2.492 8.3888 2.35083 7.60013C2.53283 5.8618 12.2628 2.83313 31.5 2.83313ZM2.33333 15.6618V10.8306C3.2655 11.4175 4.44617 11.953 5.83333 12.436V18.022C3.56417 17.1715 2.33567 16.3186 2.33333 15.6618ZM7.98467 31.8073C8.00217 31.826 8.029 31.8423 8.0465 31.861C9.64367 33.4733 12.9512 34.7403 17.0683 35.6853C17.1628 35.7075 17.2632 35.7285 17.3588 35.7506C17.661 35.8183 17.9678 35.8848 18.2782 35.949C22.0593 36.754 26.5732 37.3361 31.4907 37.6243C31.4942 37.6243 31.4965 37.6255 31.4988 37.6255C31.5012 37.6255 31.5035 37.6243 31.5035 37.6243C33.0832 37.7165 34.699 37.7806 36.3487 37.8086C37.079 37.8238 37.7977 37.8331 38.5 37.8331C39.305 37.8331 40.131 37.8238 40.971 37.804C42.497 37.7725 44.0008 37.7095 45.4837 37.6231C45.4895 37.6231 45.4942 37.6266 45.5 37.6266C45.5105 37.6266 45.5187 37.6208 45.5292 37.6208C50.4595 37.3303 57.2056 35.7156 61.1175 34.8698C60.2705 35.3131 56.9905 36.7983 55.5462 37.2451C51.1887 38.5915 44.2295 39.8176 35.385 40.1023C35.1225 40.1105 34.8635 40.1198 34.5975 40.1268C34.3117 40.1338 34.0212 40.1385 33.7307 40.1443C32.9968 40.156 32.2583 40.1665 31.5 40.1665C30.4897 40.1665 29.5097 40.1513 28.5437 40.1291C28.189 40.121 27.839 40.1093 27.489 40.0976C27.0608 40.0848 26.6432 40.0661 26.2255 40.0486C18.0402 39.687 11.5803 38.5191 7.45383 37.244C4.2455 36.2523 2.45 35.1976 2.34617 34.4055C2.47567 33.9668 3.65517 32.869 7.98467 31.8073ZM2.33333 42.4951V37.664C3.2655 38.2508 4.44617 38.7863 5.83333 39.2693V44.8331L5.16717 44.5741L5.15317 44.5881C3.3215 43.8286 2.33567 43.0831 2.33333 42.4951ZM5.83333 55.3285V50.4973C6.7655 51.0841 7.94617 51.6196 9.33333 52.1026V57.6886C7.06417 56.8381 5.83567 55.9853 5.83333 55.3285ZM60.6667 57.6886V52.1038C62.0538 51.6208 63.2345 51.0853 64.1667 50.4985V55.3261C64.1655 55.983 62.9358 56.837 60.6667 57.6886ZM64.1515 47.2563C64.0243 48.0461 62.2323 49.0938 59.0462 50.0785C54.9185 51.3536 48.4598 52.5215 40.2745 52.8831C39.8557 52.9006 39.438 52.9181 39.011 52.9321C38.6622 52.9438 38.3122 52.9543 37.9563 52.9636C36.9903 52.9846 36.0103 52.9998 35 52.9998C33.9897 52.9998 33.0085 52.9846 32.0413 52.9625C31.6902 52.9543 31.3437 52.9426 30.9972 52.931C30.5667 52.917 30.1467 52.8995 29.7255 52.882C21.5402 52.5203 15.0815 51.3525 10.9538 50.0773C7.868 49.1241 6.08533 48.1115 5.86133 47.3298C6.209 47.4511 6.5695 47.569 6.93933 47.6845C6.97667 47.6961 7.014 47.7078 7.05133 47.7183C7.36633 47.8151 7.68833 47.9085 8.0185 47.9995C8.14333 48.0345 8.26933 48.0695 8.3965 48.1033C8.58317 48.1535 8.7745 48.2013 8.96583 48.2503C13.2148 49.3388 18.6387 50.11 24.4942 50.4565C24.4965 50.4565 24.4977 50.4576 24.5 50.4576L24.5035 50.4565C26.3118 50.5638 28.1587 50.6303 30.0253 50.6525C30.5223 50.6618 31.0158 50.6665 31.5 50.6665C32.1428 50.6665 32.8008 50.6583 33.467 50.6466C35.1692 50.6186 36.8492 50.5556 38.4918 50.4576C38.4953 50.4576 38.4977 50.46 38.5012 50.46C38.507 50.46 38.5105 50.4565 38.5163 50.4565C40.5172 50.3363 42.4538 50.1648 44.3147 49.9513C44.3217 49.9513 44.3275 49.9548 44.3345 49.9548C44.3602 49.9548 44.3812 49.942 44.4068 49.9396C46.4788 49.7005 48.4435 49.4065 50.267 49.0646C50.6427 48.9958 51.0125 48.9246 51.3788 48.8511C51.4605 48.8348 51.5422 48.8185 51.6238 48.801C55.069 48.094 58.051 47.1781 60.0973 46.043C60.2093 45.9823 60.3143 45.9193 60.4205 45.8575C60.55 45.7805 60.6737 45.7023 60.7938 45.623C60.9058 45.5506 61.0353 45.4806 61.138 45.4071C63.441 46.2285 64.0757 46.9635 64.1515 47.2563ZM64.1667 32.022V26.4371C65.5538 25.9541 66.7345 25.4186 67.6667 24.8318V29.6595C67.6655 30.3163 66.4358 31.1703 64.1667 32.022Z"/>
</mask>
<path d="M69.9872 21.4998C69.8717 19.5036 67.4975 17.9438 62.7492 16.7538C62.909 16.4038 62.9988 16.0398 63 15.6618V7.4998H62.9802C62.5625 0.700468 34.7002 0.499802 31.5 0.499802C28.2998 0.499802 0.4375 0.700468 0.0198333 7.4998H0V7.65147V15.6653C0.00583333 17.882 2.8665 19.6168 7.1225 20.9083C7.06417 21.102 7.02917 21.2991 7.0175 21.4998H7V21.6515V29.6513C2.415 30.832 0.124833 32.3696 0.0116667 34.3331H0V34.4848V42.4986C0.0035 44.0421 1.39533 45.3511 3.67267 46.442C3.58633 46.6788 3.53267 46.9203 3.5175 47.1676H3.5V47.3193V55.3331C3.50933 59.2135 12.2465 61.6226 21.9543 62.7473C22.0255 62.7613 22.0908 62.7905 22.1667 62.7905C22.1888 62.7905 22.2075 62.7788 22.2297 62.7776C24.101 62.9888 26.0027 63.1533 27.8845 63.2711C27.9242 63.2758 27.9592 63.2945 28 63.2945C28.0222 63.2945 28.0397 63.2828 28.0607 63.2816C30.45 63.4263 32.8008 63.4998 35 63.4998C37.1992 63.4998 39.55 63.4263 41.9393 63.2805C41.9603 63.2816 41.979 63.2933 42 63.2933C42.0408 63.2933 42.0758 63.2735 42.1155 63.27C43.9973 63.1521 45.899 62.9888 47.7703 62.7765C47.7925 62.7765 47.8112 62.7881 47.8333 62.7881C47.9092 62.7881 47.9745 62.759 48.0457 62.745C57.7535 61.6203 66.4895 59.21 66.5 55.3285V47.1665H66.4813C66.3997 45.7361 65.1805 44.5426 62.7725 43.5451C62.9195 43.208 63 42.858 63 42.4951V34.8698C67.1883 33.5818 69.9942 31.8586 70 29.6618V21.4998H69.9872ZM60.5407 42.8743L60.1428 43.2231C59.5303 43.7633 58.5095 44.3081 57.1667 44.8331V39.2705C58.5538 38.7875 59.7345 38.252 60.6667 37.6651V42.4928C60.6667 42.613 60.6223 42.7413 60.5407 42.8743ZM34.447 48.2958C34.2767 48.3005 34.1052 48.3028 33.9337 48.3063C33.5172 48.3145 33.0902 48.3168 32.6678 48.3203V42.4928C32.9887 42.4893 33.3095 42.4846 33.6303 42.4788C33.6922 42.4776 33.754 42.4765 33.8158 42.4753C34.9907 42.4531 36.1655 42.417 37.3345 42.3633V48.1885C37.0848 48.2013 36.834 48.213 36.5808 48.2235C35.8785 48.255 35.1692 48.2783 34.447 48.2958ZM29.3522 48.3121C28.8178 48.3028 28.2858 48.29 27.7573 48.2736C27.692 48.2713 27.6267 48.269 27.5613 48.2666C26.9255 48.2456 26.2943 48.2188 25.6678 48.1885V42.3645C26.8368 42.4193 28.0117 42.4555 29.1865 42.4765C29.2483 42.4776 29.3102 42.4788 29.3708 42.48C29.6917 42.4858 30.0125 42.4905 30.3333 42.494V48.325C30.107 48.3226 29.8807 48.3226 29.6555 48.3191C29.5528 48.3168 29.4537 48.3133 29.3522 48.3121ZM8.27983 45.6521C8.24133 45.6405 8.20517 45.63 8.16667 45.6195V39.9833C9.25633 40.2773 10.4277 40.5456 11.6667 40.7895V46.484C10.5957 46.2565 9.6075 46.0173 8.708 45.7723C8.56567 45.7315 8.41867 45.693 8.27983 45.6521ZM32.8708 55.3133C33.1917 55.3191 33.5125 55.3238 33.8333 55.3273V61.1595C32.221 61.1443 30.6647 61.0976 29.1667 61.0241V55.199C30.3357 55.2538 31.5105 55.29 32.6853 55.311C32.7472 55.311 32.809 55.3121 32.8708 55.3133ZM37.3147 55.3098C38.4895 55.2876 39.6643 55.2515 40.8333 55.1978V61.023C39.3353 61.0965 37.779 61.1431 36.1667 61.1583V55.3261C36.4875 55.3226 36.8083 55.318 37.1292 55.3121C37.191 55.3121 37.2528 55.311 37.3147 55.3098ZM46.6667 54.7825V60.5761C45.5455 60.694 44.3788 60.7978 43.1667 60.883V55.0648C44.3497 54.9878 45.5187 54.8933 46.6667 54.7825ZM49 54.5305C50.2028 54.3858 51.3707 54.2213 52.5 54.0381V59.7665C51.401 59.9601 50.2332 60.1386 49 60.3008V54.5305ZM54.8333 53.6216C56.0723 53.3778 57.2437 53.1095 58.3333 52.8155V58.4516C57.2938 58.7515 56.1237 59.042 54.8333 59.3161V53.6216ZM15.1667 53.6216V59.3161C13.8763 59.042 12.7062 58.7515 11.6667 58.4516V52.8155C12.7563 53.1095 13.9277 53.379 15.1667 53.6216ZM17.5 54.0393C18.6293 54.2225 19.7972 54.387 21 54.5316V60.302C19.7668 60.1398 18.599 59.9613 17.5 59.7676V54.0393ZM23.3333 54.7825C24.4813 54.8933 25.6503 54.9878 26.8333 55.066V60.8841C25.6212 60.799 24.4545 60.6951 23.3333 60.5773V54.7825ZM20.4388 47.8058C20.3198 47.7941 20.202 47.7813 20.0842 47.7696C20.0002 47.7615 19.9173 47.751 19.8333 47.7428V41.9503C20.9813 42.0611 22.1503 42.1556 23.3333 42.2338V48.0473C22.3533 47.9773 21.385 47.898 20.4388 47.8058ZM17.5 41.6971V47.4675C16.2668 47.3053 15.099 47.1268 14 46.9331V41.2048C15.1293 41.388 16.2972 41.5536 17.5 41.6971ZM40.4437 47.9925C40.187 48.0123 39.928 48.0321 39.6667 48.0508V42.2326C40.8497 42.1545 42.0187 42.0611 43.1667 41.9491V47.7428C42.4457 47.8186 41.7083 47.8898 40.9512 47.9516C40.782 47.9668 40.6128 47.9796 40.4437 47.9925ZM45.5 47.4675V41.6971C46.7028 41.5525 47.8707 41.388 49 41.2048V46.9331C47.901 47.1268 46.7332 47.3065 45.5 47.4675ZM51.3333 40.7883C52.5723 40.5445 53.7437 40.2761 54.8333 39.9821V45.6183C53.7938 45.9181 52.6237 46.2086 51.3333 46.4828V40.7883ZM35.3792 35.459C34.5018 35.4368 33.6443 35.403 32.802 35.3621C32.7565 35.3598 32.711 35.3575 32.6667 35.3563V29.5311C33.8357 29.586 35.0105 29.6221 36.1853 29.6431C36.2472 29.6443 36.309 29.6455 36.3697 29.6466C36.6905 29.6525 37.0113 29.6571 37.3322 29.6606V35.4858C36.764 35.48 36.1912 35.4776 35.637 35.4648C35.5518 35.4625 35.4643 35.4613 35.3792 35.459ZM8.16667 18.7861V13.15C9.25633 13.444 10.4277 13.7123 11.6667 13.9561V19.6506C11.5232 19.6203 11.375 19.59 11.235 19.5596C10.6143 19.4231 10.0088 19.2808 9.43017 19.1303C8.98917 19.0171 8.57033 18.9016 8.16667 18.7861ZM29.3708 15.6466C29.6917 15.6525 30.0125 15.6571 30.3333 15.6606V21.4858C28.763 21.4706 27.202 21.4298 25.6667 21.3528V15.5323C26.8357 15.5871 28.0105 15.6233 29.1853 15.6443C29.2472 15.6443 29.309 15.6455 29.3708 15.6466ZM33.8147 15.6431C34.9895 15.621 36.1643 15.5848 37.3333 15.5311V21.3516C37.135 21.361 36.9448 21.375 36.7453 21.3843C36.729 21.3855 36.7127 21.3855 36.6952 21.3866C35.9123 21.4216 35.1143 21.4473 34.3058 21.466C34.1798 21.4695 34.0538 21.4706 33.9278 21.4741C33.5125 21.4823 33.0878 21.4835 32.6667 21.4881V15.6606C32.9875 15.6571 33.3083 15.6525 33.6292 15.6466C33.691 15.6455 33.7528 15.6443 33.8147 15.6431ZM60.3995 16.2288L60.3668 16.2218L59.9422 16.552C59.3262 17.0315 58.38 17.5168 57.1667 17.9858V12.436C58.5538 11.953 59.7345 11.4175 60.6667 10.8306V15.6583C60.6667 15.8356 60.5733 16.027 60.3995 16.2288ZM45.5 20.6271V14.8638C46.7028 14.7191 47.8707 14.5546 49 14.3715V20.0905C47.894 20.2865 46.7297 20.4661 45.5 20.6271ZM51.3333 19.6413V13.9561C52.5723 13.7123 53.7437 13.444 54.8333 13.15V18.7733C53.788 19.0778 52.6108 19.3683 51.3333 19.6413ZM43.1667 15.1158V20.9025C42.0397 21.0215 40.873 21.1253 39.6667 21.2116V15.3993C40.8497 15.3211 42.0187 15.2266 43.1667 15.1158ZM19.8333 20.9048V15.1158C20.9813 15.2266 22.1503 15.3211 23.3333 15.3993V21.207C22.1457 21.1218 20.9743 21.025 19.8333 20.9048ZM17.5 14.8638V20.6283C17.269 20.598 17.0287 20.5735 16.8 20.542C16.6507 20.521 16.5083 20.4988 16.3613 20.4778C15.687 20.381 15.0278 20.2771 14.3815 20.1686C14.252 20.1465 14.1272 20.1231 14 20.101V14.3726C15.1293 14.5546 16.2972 14.7203 17.5 14.8638ZM30.044 35.1953C29.8865 35.1836 29.7278 35.172 29.5715 35.1603C28.8248 35.102 28.0957 35.0378 27.384 34.9666C27.2312 34.9515 27.0783 34.9351 26.9267 34.92C26.8952 34.9165 26.8648 34.9118 26.8333 34.9095V29.1158C27.9813 29.2266 29.1503 29.3211 30.3333 29.3993V35.214C30.2388 35.207 30.1385 35.2023 30.044 35.1953ZM22.3358 34.3238C21.8738 34.2503 21.4398 34.171 21 34.094V28.3726C22.1293 28.5558 23.2972 28.7203 24.5 28.865V34.6353C23.786 34.5408 23.0872 34.4428 22.4163 34.3378C22.3895 34.332 22.3627 34.3273 22.3358 34.3238ZM18.6667 27.955V33.6401C17.3775 33.3636 16.2085 33.0696 15.1667 32.764V27.1488C16.2563 27.4428 17.4277 27.7123 18.6667 27.955ZM12.8333 26.436V31.9788C10.9993 31.2706 9.81633 30.5473 9.43133 29.9033L9.35317 29.7726C9.34617 29.7365 9.3345 29.698 9.33333 29.6618V24.8306C10.2655 25.4175 11.4462 25.953 12.8333 26.436ZM40.8147 29.6431C41.9895 29.621 43.1643 29.5848 44.3333 29.5311V35.3505C42.8003 35.4263 41.2417 35.4683 39.6667 35.4846V29.6606C39.9875 29.6571 40.3083 29.6525 40.6292 29.6466C40.691 29.6455 40.7528 29.6443 40.8147 29.6431ZM55.8915 34.1196C55.3793 34.2083 54.8625 34.2958 54.3317 34.3763C54.0272 34.423 53.7157 34.4673 53.403 34.5116C53.1078 34.5536 52.801 34.5898 52.5012 34.6283V28.8638C53.704 28.7191 54.8718 28.5546 56.0012 28.3715V34.0998C55.9638 34.1068 55.9277 34.1138 55.8915 34.1196ZM47.992 35.116C47.5568 35.1521 47.1077 35.1755 46.6667 35.207V29.3993C47.8497 29.3211 49.0187 29.2278 50.1667 29.1158V34.9036C49.4888 34.9748 48.8122 35.046 48.1157 35.1043C48.0737 35.1078 48.034 35.1125 47.992 35.116ZM61.3247 32.9285C60.7437 33.0906 60.1288 33.2423 59.5012 33.3905C59.2107 33.4581 58.9143 33.5258 58.611 33.5911C58.5212 33.611 58.4255 33.6285 58.3345 33.6483V27.9561C59.5735 27.7123 60.7448 27.444 61.8345 27.15V32.7861C61.6665 32.8328 61.4973 32.8806 61.3247 32.9285ZM67.6538 21.5756C67.5465 22.3678 65.751 23.4213 62.5462 24.4118C58.4185 25.687 51.9598 26.8548 43.7745 27.2165C43.3557 27.234 42.938 27.2515 42.511 27.2655C42.1622 27.2771 41.8122 27.2876 41.4563 27.297C40.4903 27.318 39.5103 27.3331 38.5 27.3331C37.4897 27.3331 36.5097 27.318 35.5437 27.2958C35.189 27.2876 34.839 27.276 34.489 27.2643C34.0608 27.2515 33.6432 27.2328 33.2255 27.2153C25.0402 26.8536 18.5803 25.6858 14.4538 24.4106C11.2747 23.4283 9.48267 22.383 9.34967 21.5943C9.3555 21.5721 9.3555 21.5535 9.3695 21.5255C9.44883 21.5453 9.5375 21.5616 9.618 21.5815C10.0742 21.69 10.542 21.795 11.018 21.8953C13.3362 22.3946 15.9052 22.8041 18.6422 23.1168C18.6515 23.1168 18.6585 23.1215 18.6667 23.1215C18.669 23.1215 18.6725 23.1203 18.6725 23.1203C20.5368 23.3326 22.4712 23.4995 24.4568 23.6173C24.472 23.6173 24.4848 23.6255 24.5 23.6255C24.5082 23.6255 24.514 23.6208 24.5222 23.6208C25.9513 23.7048 27.3992 23.7666 28.8645 23.7993C29.7617 23.8215 30.6425 23.8331 31.5 23.8331C32.1125 23.8331 32.7402 23.8261 33.3737 23.8145C41.8507 23.6838 49.707 22.6758 55.174 21.1136C55.426 21.0425 55.6722 20.969 55.9148 20.8955C56.063 20.85 56.2147 20.8056 56.3582 20.7601C56.7805 20.6248 57.1853 20.486 57.5762 20.3413C57.6438 20.3156 57.708 20.29 57.7757 20.2643C58.1058 20.1395 58.4232 20.01 58.7265 19.8781C58.814 19.8396 58.9038 19.8023 58.989 19.7638C59.3122 19.618 59.6248 19.4686 59.9142 19.3135C60.0448 19.2446 60.158 19.1735 60.2805 19.1035C60.4205 19.023 60.5605 18.9413 60.69 18.8585C60.7635 18.8118 60.851 18.7675 60.921 18.7208C66.1442 19.8536 67.5208 21.0926 67.6538 21.5756ZM31.5 2.83313C50.7372 2.83313 60.4672 5.8618 60.6492 7.60013C60.508 8.3888 58.7172 9.43063 55.5462 10.4106C51.4185 11.6858 44.9598 12.8536 36.7745 13.2153C36.3557 13.2328 35.938 13.2503 35.511 13.2643C35.1622 13.276 34.8122 13.2865 34.4563 13.2958C33.4903 13.318 32.5103 13.3331 31.5 13.3331C30.4897 13.3331 29.5097 13.318 28.5437 13.2958C28.189 13.2876 27.839 13.276 27.489 13.2643C27.0608 13.2515 26.6432 13.2328 26.2255 13.2153C18.0402 12.8536 11.5803 11.6858 7.45383 10.4106C4.28167 9.43063 2.492 8.3888 2.35083 7.60013C2.53283 5.8618 12.2628 2.83313 31.5 2.83313ZM2.33333 15.6618V10.8306C3.2655 11.4175 4.44617 11.953 5.83333 12.436V18.022C3.56417 17.1715 2.33567 16.3186 2.33333 15.6618ZM7.98467 31.8073C8.00217 31.826 8.029 31.8423 8.0465 31.861C9.64367 33.4733 12.9512 34.7403 17.0683 35.6853C17.1628 35.7075 17.2632 35.7285 17.3588 35.7506C17.661 35.8183 17.9678 35.8848 18.2782 35.949C22.0593 36.754 26.5732 37.3361 31.4907 37.6243C31.4942 37.6243 31.4965 37.6255 31.4988 37.6255C31.5012 37.6255 31.5035 37.6243 31.5035 37.6243C33.0832 37.7165 34.699 37.7806 36.3487 37.8086C37.079 37.8238 37.7977 37.8331 38.5 37.8331C39.305 37.8331 40.131 37.8238 40.971 37.804C42.497 37.7725 44.0008 37.7095 45.4837 37.6231C45.4895 37.6231 45.4942 37.6266 45.5 37.6266C45.5105 37.6266 45.5187 37.6208 45.5292 37.6208C50.4595 37.3303 57.2056 35.7156 61.1175 34.8698C60.2705 35.3131 56.9905 36.7983 55.5462 37.2451C51.1887 38.5915 44.2295 39.8176 35.385 40.1023C35.1225 40.1105 34.8635 40.1198 34.5975 40.1268C34.3117 40.1338 34.0212 40.1385 33.7307 40.1443C32.9968 40.156 32.2583 40.1665 31.5 40.1665C30.4897 40.1665 29.5097 40.1513 28.5437 40.1291C28.189 40.121 27.839 40.1093 27.489 40.0976C27.0608 40.0848 26.6432 40.0661 26.2255 40.0486C18.0402 39.687 11.5803 38.5191 7.45383 37.244C4.2455 36.2523 2.45 35.1976 2.34617 34.4055C2.47567 33.9668 3.65517 32.869 7.98467 31.8073ZM2.33333 42.4951V37.664C3.2655 38.2508 4.44617 38.7863 5.83333 39.2693V44.8331L5.16717 44.5741L5.15317 44.5881C3.3215 43.8286 2.33567 43.0831 2.33333 42.4951ZM5.83333 55.3285V50.4973C6.7655 51.0841 7.94617 51.6196 9.33333 52.1026V57.6886C7.06417 56.8381 5.83567 55.9853 5.83333 55.3285ZM60.6667 57.6886V52.1038C62.0538 51.6208 63.2345 51.0853 64.1667 50.4985V55.3261C64.1655 55.983 62.9358 56.837 60.6667 57.6886ZM64.1515 47.2563C64.0243 48.0461 62.2323 49.0938 59.0462 50.0785C54.9185 51.3536 48.4598 52.5215 40.2745 52.8831C39.8557 52.9006 39.438 52.9181 39.011 52.9321C38.6622 52.9438 38.3122 52.9543 37.9563 52.9636C36.9903 52.9846 36.0103 52.9998 35 52.9998C33.9897 52.9998 33.0085 52.9846 32.0413 52.9625C31.6902 52.9543 31.3437 52.9426 30.9972 52.931C30.5667 52.917 30.1467 52.8995 29.7255 52.882C21.5402 52.5203 15.0815 51.3525 10.9538 50.0773C7.868 49.1241 6.08533 48.1115 5.86133 47.3298C6.209 47.4511 6.5695 47.569 6.93933 47.6845C6.97667 47.6961 7.014 47.7078 7.05133 47.7183C7.36633 47.8151 7.68833 47.9085 8.0185 47.9995C8.14333 48.0345 8.26933 48.0695 8.3965 48.1033C8.58317 48.1535 8.7745 48.2013 8.96583 48.2503C13.2148 49.3388 18.6387 50.11 24.4942 50.4565C24.4965 50.4565 24.4977 50.4576 24.5 50.4576L24.5035 50.4565C26.3118 50.5638 28.1587 50.6303 30.0253 50.6525C30.5223 50.6618 31.0158 50.6665 31.5 50.6665C32.1428 50.6665 32.8008 50.6583 33.467 50.6466C35.1692 50.6186 36.8492 50.5556 38.4918 50.4576C38.4953 50.4576 38.4977 50.46 38.5012 50.46C38.507 50.46 38.5105 50.4565 38.5163 50.4565C40.5172 50.3363 42.4538 50.1648 44.3147 49.9513C44.3217 49.9513 44.3275 49.9548 44.3345 49.9548C44.3602 49.9548 44.3812 49.942 44.4068 49.9396C46.4788 49.7005 48.4435 49.4065 50.267 49.0646C50.6427 48.9958 51.0125 48.9246 51.3788 48.8511C51.4605 48.8348 51.5422 48.8185 51.6238 48.801C55.069 48.094 58.051 47.1781 60.0973 46.043C60.2093 45.9823 60.3143 45.9193 60.4205 45.8575C60.55 45.7805 60.6737 45.7023 60.7938 45.623C60.9058 45.5506 61.0353 45.4806 61.138 45.4071C63.441 46.2285 64.0757 46.9635 64.1515 47.2563ZM64.1667 32.022V26.4371C65.5538 25.9541 66.7345 25.4186 67.6667 24.8318V29.6595C67.6655 30.3163 66.4358 31.1703 64.1667 32.022Z" fill="#197B2C" stroke="white" stroke-width="1.2" mask="url(#path-1-inside-1_2_688)"/>
</svg>
