<svg width="84" height="64" viewBox="0 0 84 64" fill="none" xmlns="http://www.w3.org/2000/svg">
<path d="M67.7463 29.2075C67.7481 29.1514 67.764 29.0967 67.7924 29.0486C67.8208 29.0004 67.8608 28.9605 67.9086 28.9324L75.5351 26.1821C75.5605 26.1699 75.5882 26.1635 75.6163 26.1635C75.6443 26.1635 75.672 26.1699 75.6974 26.1821C75.6974 26.1821 75.6974 26.1821 75.6974 26.4296V28.2449C75.6965 28.2976 75.6808 28.349 75.652 28.3929C75.6232 28.4368 75.5827 28.4713 75.5351 28.4924L67.9086 31.4627C67.8662 31.4825 67.82 31.4928 67.7734 31.4928C67.7267 31.4928 67.6806 31.4825 67.6382 31.4627C67.6233 31.428 67.6156 31.3906 67.6156 31.3527C67.6156 31.3149 67.6233 31.2774 67.6382 31.2427L67.7463 29.2075ZM68.0168 31.5728C68.0421 31.585 68.0698 31.5913 68.0979 31.5913C68.126 31.5913 68.1537 31.585 68.179 31.5728L75.7244 28.5749C75.8051 28.5417 75.874 28.4846 75.9222 28.411C75.9705 28.3375 75.9958 28.2508 75.9949 28.1624V26.3471C75.9972 26.2748 75.9838 26.2028 75.9558 26.1363C75.9277 26.0698 75.8857 26.0103 75.8326 25.9621C75.7668 25.9235 75.6922 25.9031 75.6163 25.9031C75.5403 25.9031 75.4657 25.9235 75.3999 25.9621L67.7734 28.8774C67.6926 28.9019 67.6221 28.953 67.5731 29.0227C67.5241 29.0925 67.4994 29.1768 67.5029 29.2625V31.1877C67.506 31.2579 67.5247 31.3266 67.5574 31.3885C67.5902 31.4504 67.6363 31.504 67.6922 31.5452L68.0168 31.5728ZM54.4946 34.5156C54.5009 34.4607 54.5218 34.4086 54.5552 34.3649C54.5886 34.3213 54.6331 34.2878 54.6839 34.2681L63.3381 30.9677C63.3381 30.9677 63.4733 30.9677 63.5274 30.9677C63.5815 30.9677 63.5274 30.9677 63.5274 31.1877V33.1679C63.529 33.2179 63.5137 33.2669 63.4842 33.3069C63.4547 33.3469 63.4127 33.3755 63.3651 33.388L54.7109 36.7709C54.6768 36.8 54.6337 36.8159 54.5892 36.8159C54.5447 36.8159 54.5016 36.8 54.4675 36.7709C54.4407 36.6906 54.4407 36.6036 54.4675 36.5233L54.4946 34.5156ZM54.765 37.0184H54.9273L63.5815 33.608C63.663 33.581 63.7348 33.53 63.7878 33.4614C63.8407 33.3929 63.8725 33.3099 63.879 33.2229V31.2427C63.8771 31.1653 63.8563 31.0896 63.8185 31.0224C63.7808 30.9552 63.7272 30.8986 63.6626 30.8577C63.5985 30.8297 63.5295 30.8152 63.4598 30.8152C63.39 30.8152 63.321 30.8297 63.257 30.8577L54.6298 34.1581C54.5441 34.1867 54.4694 34.2419 54.416 34.3158C54.3627 34.3898 54.3334 34.4789 54.3323 34.5706V36.6333C54.3283 36.7048 54.3473 36.7756 54.3863 36.8351C54.4253 36.8946 54.4823 36.9397 54.5486 36.9634C54.5602 36.9953 54.5798 37.0235 54.6056 37.0452C54.6313 37.0669 54.6622 37.0812 54.6952 37.0868C54.7282 37.0924 54.762 37.089 54.7933 37.077C54.8245 37.065 54.8521 37.0448 54.8732 37.0184H54.765ZM39.6742 40.5113C39.6712 40.4577 39.6854 40.4046 39.7147 40.36C39.744 40.3153 39.7867 40.2816 39.8365 40.2638L49.7077 36.4958H49.9781C49.9953 36.5348 50.0042 36.5769 50.0042 36.6196C50.0042 36.6623 49.9953 36.7044 49.9781 36.7434V38.8611C49.9773 38.9138 49.9615 38.9652 49.9328 39.0091C49.904 39.053 49.8634 39.0875 49.8159 39.1086L39.9176 42.9866C39.8806 43.0083 39.8386 43.0198 39.7959 43.0198C39.7532 43.0198 39.7112 43.0083 39.6742 42.9866C39.6593 42.9519 39.6516 42.9144 39.6516 42.8766C39.6516 42.8387 39.6593 42.8013 39.6742 42.7666V40.5113ZM39.9447 43.2616H40.1069L49.9781 39.4112C50.0588 39.378 50.1277 39.3209 50.1759 39.2473C50.2242 39.1737 50.2495 39.0871 50.2486 38.9986V36.8809C50.2317 36.734 50.1647 36.5977 50.0593 36.4958C49.9952 36.4678 49.9262 36.4534 49.8564 36.4534C49.7867 36.4534 49.7177 36.4678 49.6536 36.4958L39.7824 40.2638C39.6988 40.2957 39.6261 40.3517 39.5732 40.425C39.5204 40.4983 39.4897 40.5856 39.4849 40.6763V42.9041C39.4888 42.9773 39.5107 43.0483 39.5485 43.1108C39.5862 43.1732 39.6388 43.2251 39.7013 43.2616C39.8238 43.2685 39.9457 43.2399 40.0528 43.1791L39.9447 43.2616ZM75.1024 22.7992L58.4701 3.54697L65.8803 1.12668L82.8642 19.7464L75.1024 22.7992ZM82.4855 39.1086C82.6678 39.4552 82.7075 39.8612 82.596 40.2375C82.4845 40.6139 82.2308 40.9299 81.8906 41.1164L79.5647 42.244C79.2494 42.1329 78.9065 42.1329 78.5911 42.244L53.521 53.8504C53.6021 53.4883 53.6021 53.1123 53.521 52.7502C53.3879 52.41 53.1714 52.11 52.8921 51.879C52.6128 51.6479 52.28 51.4933 51.9253 51.4301L80.8629 38.036C81.2282 37.9465 81.6131 37.9982 81.943 38.1812C82.2729 38.3642 82.5241 38.6653 82.6478 39.0261L82.4855 39.1086ZM80.4302 43.4266C80.6001 43.7799 80.6333 44.1853 80.5231 44.5623C80.4129 44.9393 80.1673 45.2604 79.8352 45.4619L59.9575 54.8405L51.3844 58.8284C51.4547 58.6981 51.5092 58.5596 51.5467 58.4159C51.7078 57.9627 51.7078 57.4664 51.5467 57.0132C51.3724 56.559 51.0596 56.1735 50.6542 55.9131C50.4456 55.7945 50.2157 55.7196 49.9781 55.6931L53.7103 54.0154L78.8886 42.3265C79.05 42.2521 79.2252 42.2136 79.4025 42.2136C79.5797 42.2136 79.7549 42.2521 79.9163 42.3265C80.2563 42.5704 80.4968 42.9324 80.5924 43.3441L80.4302 43.4266ZM80.6465 45.4344C81.0229 45.3306 81.4242 45.3784 81.7668 45.568C82.1094 45.7575 82.3668 46.0742 82.4855 46.452C82.6062 46.846 82.6062 47.2681 82.4855 47.6621C82.436 47.8402 82.3502 48.0056 82.2337 48.1478C82.1173 48.2899 81.9727 48.4056 81.8094 48.4872L53.2776 61.9638C53.464 61.6738 53.5786 61.3422 53.6116 60.9974C53.6446 60.6525 53.5949 60.3047 53.4669 59.9836C53.2898 59.5367 52.9645 59.1669 52.5474 58.9385C52.3834 58.8341 52.1986 58.7683 52.0065 58.7459L60.1198 54.8955L80.6465 45.4344ZM52.6555 62.2388C52.2542 62.3428 51.829 62.2868 51.467 62.0822C51.105 61.8777 50.8336 61.5401 50.7083 61.1387C50.5599 60.7116 50.5599 60.2457 50.7083 59.8186C50.7504 59.6257 50.8392 59.4467 50.9668 59.2978C51.0943 59.1488 51.2565 59.0348 51.4385 58.966C51.5795 58.9215 51.7303 58.9215 51.8713 58.966C52.1007 58.9694 52.325 59.0359 52.5203 59.1585C52.9062 59.3772 53.2033 59.728 53.3587 60.1486C53.5294 60.522 53.5515 60.948 53.4205 61.3375C53.2894 61.7271 53.0153 62.0501 52.6555 62.2388ZM49.7888 62.4864C49.9154 62.3448 50.008 62.1754 50.0593 61.9913C50.2201 61.5286 50.2201 61.0238 50.0593 60.5611C49.8763 60.111 49.5533 59.7342 49.1398 59.4885C48.9266 59.3614 48.6837 59.295 48.4366 59.296L49.1398 58.966C49.2564 59.0903 49.3937 59.1928 49.5454 59.2685C49.7664 59.4039 50.0178 59.4796 50.2756 59.4885C50.4376 59.5034 50.6005 59.5034 50.7624 59.4885C50.7624 59.626 50.7624 59.7361 50.5731 59.9011C50.3997 60.352 50.3997 60.8528 50.5731 61.3037C50.6635 61.5799 50.811 61.8331 51.0058 62.0463L49.7888 62.4864ZM49.1939 62.7889C49.0236 62.8828 48.8331 62.932 48.6394 62.932C48.4458 62.932 48.2552 62.8828 48.085 62.7889C47.6973 62.5597 47.4007 62.1997 47.2466 61.7713C47.1002 61.3533 47.1002 60.8966 47.2466 60.4786C47.3002 60.2877 47.393 60.1106 47.5188 59.9589C47.6447 59.8072 47.8008 59.6843 47.9768 59.5985H48.4096C48.6357 59.6007 48.8581 59.6572 49.0586 59.7636C49.4388 59.9893 49.7339 60.3378 49.897 60.7537C50.0433 61.1906 50.0433 61.6644 49.897 62.1013C49.8328 62.2591 49.7371 62.4016 49.6161 62.5199C49.4951 62.6382 49.3513 62.7298 49.1939 62.7889ZM47.3007 59.626C46.8956 59.738 46.4637 59.6859 46.0955 59.4808C45.7274 59.2756 45.4517 58.9334 45.3265 58.5259C45.1662 58.101 45.1662 57.6307 45.3265 57.2057C45.3802 57.0183 45.4733 56.845 45.5994 56.6978C45.7255 56.5506 45.8815 56.433 46.0567 56.3532C46.1907 56.3271 46.3284 56.3271 46.4624 56.3532C46.809 56.3743 47.1414 56.501 47.4164 56.7168C47.6913 56.9327 47.896 57.2276 48.0039 57.5633C48.16 57.9345 48.1744 58.3515 48.0444 58.7329C47.9144 59.1143 47.6492 59.4328 47.3007 59.626ZM45.029 58.1134L43.3523 58.8834C43.4602 58.7335 43.5425 58.5662 43.5957 58.3884C43.7683 57.9278 43.7683 57.4188 43.5957 56.9582C43.4794 56.6176 43.2701 56.3177 42.9923 56.0936C42.7145 55.8696 42.3797 55.7306 42.0271 55.6931L43.8391 54.868C43.8558 55.052 43.9111 55.2301 44.0013 55.3905C44.1096 55.7111 44.2992 55.9968 44.5508 56.219C44.8025 56.4411 45.1074 56.5918 45.4347 56.6557C45.3188 56.8048 45.2275 56.972 45.1642 57.1507C45.0633 57.4609 45.0175 57.7869 45.029 58.1134ZM42.7302 59.2135C42.5627 59.3004 42.3774 59.3457 42.1893 59.3457C42.0013 59.3457 41.8159 59.3004 41.6485 59.2135C41.2601 58.9819 40.9491 58.637 40.756 58.2234C40.5767 57.8444 40.5439 57.4107 40.6641 57.0083C40.7843 56.6059 41.0488 56.2641 41.4051 56.0506C41.5572 56.0245 41.7126 56.0245 41.8648 56.0506C42.2005 56.0848 42.5201 56.2137 42.7877 56.4226C43.0552 56.6315 43.2601 56.9123 43.3793 57.2333C43.5278 57.6604 43.5278 58.1263 43.3793 58.5534C43.3208 58.7025 43.2331 58.8379 43.1215 58.9513C43.0099 59.0648 42.8768 59.154 42.7302 59.2135ZM40.5667 55.6381C40.7395 55.3569 40.8422 55.037 40.8658 54.7063C40.8893 54.3755 40.8331 54.0439 40.7019 53.7403C40.5438 53.2751 40.2141 52.8904 39.7824 52.6677C39.5867 52.5422 39.364 52.4667 39.1333 52.4477L41.5673 51.3476C41.5434 51.695 41.599 52.0433 41.7296 52.3652C41.8488 52.7272 42.0726 53.0442 42.3717 53.2748C42.6709 53.5054 43.0314 53.6389 43.4063 53.6578C43.5667 53.6936 43.7328 53.6936 43.8931 53.6578L44.2718 53.4653C44.1117 53.6547 44.0002 53.8815 43.9472 54.1254L40.5667 55.6381ZM39.9176 55.9681C39.7206 56.0428 39.5109 56.0771 39.3008 56.0691C39.0906 56.0611 38.8841 56.0109 38.6931 55.9214C38.5021 55.832 38.3304 55.705 38.1878 55.5478C38.0452 55.3906 37.9345 55.2063 37.8622 55.0055C37.7019 54.5805 37.7019 54.1103 37.8622 53.6853C37.9113 53.4997 37.9997 53.3273 38.1212 53.18C38.2426 53.0328 38.3942 52.9142 38.5654 52.8327C38.7068 52.7915 38.8567 52.7915 38.9981 52.8327C39.2354 52.8411 39.4672 52.9071 39.6742 53.0253C40.0648 53.238 40.3637 53.5909 40.5126 54.0154C40.6422 54.3758 40.6397 54.7716 40.5056 55.1302C40.3714 55.4889 40.1147 55.7864 39.7824 55.9681H39.9176ZM51.3844 51.4576C51.04 51.6328 50.7776 51.9392 50.6542 52.3102L49.275 52.9152C49.4169 52.7702 49.5194 52.5901 49.5725 52.3927C49.7459 51.9418 49.7459 51.4409 49.5725 50.99C49.4154 50.5173 49.0864 50.1237 48.653 49.8899C48.4536 49.7805 48.2304 49.7237 48.0039 49.7249L76.9144 36.3308C77.0742 36.2507 77.25 36.2091 77.4282 36.2091C77.6064 36.2091 77.7822 36.2507 77.9421 36.3308C78.2969 36.547 78.5724 36.8754 78.7264 37.2659C78.8475 37.5088 78.9107 37.7774 78.9107 38.0498C78.9107 38.3221 78.8475 38.5907 78.7264 38.8336L51.3844 51.4576ZM50.7895 53.7954C50.6496 53.4306 50.6579 53.0244 50.8126 52.6659C50.9673 52.3074 51.2557 52.0261 51.6143 51.8839C51.973 51.7416 52.3725 51.7501 52.725 51.9074C53.0774 52.0647 53.354 52.358 53.4939 52.7227C53.6441 53.0874 53.691 53.4875 53.6291 53.8779L51.6549 54.758C51.2489 54.5539 50.9242 54.214 50.7354 53.7954H50.7895ZM44.7586 53.1903C44.9538 53.1275 45.1596 53.1056 45.3634 53.126C45.5672 53.1464 45.7648 53.2086 45.9443 53.3089C46.1237 53.4091 46.2814 53.5454 46.4076 53.7094C46.5339 53.8733 46.6261 54.0617 46.6787 54.2629C46.8069 54.5184 46.8738 54.8012 46.8738 55.088C46.8738 55.3748 46.8069 55.6576 46.6787 55.9131L46.0567 56.2156C45.8843 56.2668 45.7326 56.3728 45.624 56.5182C45.2979 56.4744 44.9898 56.3412 44.7325 56.1328C44.4752 55.9245 44.2786 55.6489 44.1636 55.3355C43.9631 54.9763 43.9074 54.552 44.0083 54.1519C44.1092 53.7518 44.3588 53.4071 44.7045 53.1903H44.7586ZM44.3799 51.2376C44.5749 51.6108 44.619 52.0466 44.5028 52.4524C44.3866 52.8582 44.1194 53.2018 43.7579 53.4103C43.3528 53.5222 42.9208 53.4702 42.5527 53.265C42.1846 53.0599 41.9089 52.7176 41.7837 52.3102C41.5922 51.9378 41.5529 51.5035 41.6744 51.1018C41.796 50.7001 42.0685 50.3634 42.4327 50.1649H42.8655C43.184 50.1839 43.4906 50.2948 43.7493 50.4848C44.008 50.6748 44.208 50.936 44.3259 51.2376H44.3799ZM47.3548 49.8074C47.1517 49.8836 46.9695 50.0083 46.8236 50.171C46.6777 50.3338 46.5724 50.5298 46.5165 50.7425C46.3818 51.1719 46.3818 51.6333 46.5165 52.0627L44.3259 53.1078C44.5011 52.823 44.6073 52.4998 44.6355 52.1651C44.6637 51.8303 44.6132 51.4935 44.4881 51.1825C44.3643 50.8415 44.1494 50.5424 43.8675 50.3189C43.5856 50.0954 43.2479 49.9563 42.8925 49.9174L71.83 36.5233C72.1993 36.4192 72.5939 36.4641 72.9314 36.6485C73.269 36.833 73.5236 37.1428 73.642 37.5135L47.3548 49.8074ZM48.68 53.2178C48.5103 53.2969 48.3258 53.3378 48.1391 53.3378C47.9524 53.3378 47.7679 53.2969 47.5982 53.2178C47.2245 52.981 46.9341 52.6299 46.7689 52.2148C46.6037 51.7997 46.5721 51.342 46.6787 50.9075C46.7181 50.7176 46.8029 50.5405 46.9255 50.3919C47.0482 50.2432 47.2049 50.1275 47.3819 50.0549C47.5547 49.9697 47.7442 49.9255 47.9363 49.9255C48.1283 49.9255 48.3179 49.9697 48.4907 50.0549C48.8771 50.2808 49.1808 50.6283 49.3561 51.045C49.5046 51.4721 49.5046 51.9381 49.3561 52.3652C49.304 52.5455 49.2175 52.7136 49.1015 52.8599C48.9855 53.0062 48.8423 53.1278 48.68 53.2178ZM50.6813 53.8779C50.6813 53.8779 50.6813 53.8779 50.6813 54.0154L46.841 55.8306C47.0443 55.3094 47.0443 54.729 46.841 54.2079C46.7186 53.8685 46.5034 53.5716 46.2207 53.3524C45.938 53.1331 45.5996 53.0005 45.2454 52.9703L46.6517 52.3102C46.8521 52.6954 47.1511 53.0185 47.5171 53.2453C47.7446 53.3649 47.9924 53.4395 48.2473 53.4653C48.427 53.4625 48.6033 53.4153 48.7611 53.3278L50.5731 52.5027C50.4186 52.9514 50.438 53.4431 50.6272 53.8779H50.6813ZM49.8159 55.8581C50.0484 55.8766 50.2765 55.9323 50.492 56.0231C50.8666 56.2678 51.1591 56.6228 51.3304 57.0407C51.4767 57.4682 51.4767 57.9334 51.3304 58.3609C51.2848 58.5481 51.1978 58.7223 51.0759 58.87C50.954 59.0178 50.8006 59.1353 50.6272 59.2135C50.4521 59.3074 50.2572 59.3565 50.0593 59.3565C49.8613 59.3565 49.6664 59.3074 49.4913 59.2135C49.1194 58.9902 48.826 58.6534 48.653 58.2509C48.5066 57.8234 48.5066 57.3582 48.653 56.9307C48.6945 56.7418 48.7801 56.5657 48.9025 56.4174C49.0248 56.269 49.1804 56.1527 49.3561 56.0781C49.4802 55.9852 49.6168 55.9111 49.7618 55.8581H49.8159ZM49.3291 55.8581C49.1317 55.9313 48.9548 56.0522 48.8135 56.2103C48.6721 56.3683 48.5707 56.5589 48.5177 56.7657C48.3687 57.2398 48.3687 57.7493 48.5177 58.2234C48.6237 58.4522 48.7602 58.6651 48.9234 58.8559L47.8687 59.3785C48.0669 59.099 48.1888 58.771 48.222 58.4281C48.2553 58.0851 48.1987 57.7393 48.058 57.4258C47.9459 57.1053 47.7513 56.8214 47.4944 56.6037C47.2375 56.3859 46.9277 56.2424 46.5976 56.1881L50.6813 54.2904C50.8702 54.5709 51.1086 54.8134 51.3844 55.0055L49.3291 55.8581ZM30.993 58.6084V36.6058L33.1024 39.3562L81.1333 20.599V37.7335H80.7277L78.6993 38.6411C78.8751 38.1527 78.8751 37.6168 78.6993 37.1284C78.5257 36.7106 78.2216 36.3626 77.8339 36.1383C77.6523 36.0503 77.4536 36.0047 77.2524 36.0047C77.0513 36.0047 76.8526 36.0503 76.671 36.1383L73.7502 37.4859C73.6247 37.0713 73.3461 36.7222 72.973 36.512C72.5998 36.3017 72.1611 36.2467 71.7489 36.3583L42.3246 50.1099C42.1045 50.2206 41.9135 50.3832 41.7677 50.5842C41.6219 50.7851 41.5254 51.0185 41.4862 51.2651L38.4302 52.6952C38.2277 52.7757 38.0477 52.9056 37.9062 53.0734C37.7648 53.2413 37.666 53.442 37.6188 53.6578C37.4577 54.111 37.4577 54.6073 37.6188 55.0605C37.7228 55.2843 37.8497 55.4963 37.9975 55.6931L30.993 58.6084ZM16.3619 17.6836L27.991 13.7507L44.8667 34.6256L33.1565 39.1911L16.3619 17.6836ZM30.8036 58.5534L24.34 56.1881V43.1791C24.3378 42.5957 24.1531 42.0281 23.8128 41.5585C23.4725 41.0888 22.9942 40.7413 22.4469 40.5663L11.0612 36.9084C10.8136 36.8349 10.5525 36.8215 10.2989 36.8693C10.0452 36.9171 9.80614 37.0247 9.60081 37.1834C9.39107 37.331 9.21987 37.5283 9.10206 37.7584C8.98424 37.9884 8.92337 38.2442 8.9247 38.5036V50.66L3.21832 48.5697V27.6398L16.2267 17.7386L30.8307 36.4683L30.8036 58.5534ZM9.1681 50.6875V38.5036C9.1637 38.268 9.21554 38.0348 9.31916 37.824C9.42278 37.6133 9.5751 37.4312 9.76307 37.2934C9.94325 37.1374 10.162 37.0344 10.3955 36.9956C10.6291 36.9569 10.8686 36.9837 11.0882 37.0734L22.3117 40.7038C22.8253 40.8641 23.2741 41.1892 23.5909 41.6304C23.9078 42.0716 24.0757 42.6053 24.0696 43.1516V45.2143L9.1681 50.6875ZM39.0792 10.1202L55.8738 30.2526L45.0561 34.4881L28.1533 13.7507L39.0792 10.1202ZM49.0316 6.76484L65.745 26.4847L56.009 30.2526L39.2145 10.0377L49.0316 6.76484ZM58.4701 3.60197L75.1024 22.8542L65.8803 26.4296L49.1939 6.70984L58.4701 3.60197ZM83.0805 19.7464L65.9614 0.989166L49.1668 6.48981L16.2267 17.5736L0.973633 29.1525L2.97492 27.6398V48.5422L8.84356 50.66L23.8262 45.1593V56.0231L30.5332 58.4159L37.8622 55.3905C38.1681 55.6921 38.5725 55.8683 38.9981 55.8856C39.1684 55.912 39.3416 55.912 39.5119 55.8856L43.4063 53.9879C43.3781 54.1609 43.3781 54.3374 43.4063 54.5104L41.0535 55.5556C40.6496 55.7722 40.3462 56.1423 40.2095 56.5853C40.0727 57.0283 40.1136 57.5083 40.3233 57.9208C40.511 58.3697 40.8454 58.7388 41.2698 58.966C41.4893 59.1049 41.7416 59.1809 42 59.186C42.1615 59.2089 42.3254 59.2089 42.4868 59.186L44.7586 58.1134C44.7389 58.2132 44.7389 58.316 44.7586 58.4159C44.8821 58.7699 45.1035 59.0801 45.3961 59.3094C45.6887 59.5387 46.0402 59.6773 46.4083 59.7085C46.5701 59.7263 46.7333 59.7263 46.8951 59.7085C46.7592 59.8687 46.6578 60.0561 46.5976 60.2586C46.425 60.7192 46.425 61.2282 46.5976 61.6888C46.7574 62.1376 47.0754 62.5101 47.49 62.7339C47.714 62.8852 47.9786 62.9621 48.2473 62.9539C48.4165 62.992 48.5919 62.992 48.7611 62.9539L50.6002 62.0738C50.9116 62.3415 51.3016 62.4962 51.709 62.5139C51.8592 62.5574 52.0185 62.5574 52.1687 62.5139L81.5119 48.7623C81.692 48.6709 81.8519 48.5434 81.982 48.3874C82.1122 48.2314 82.2099 48.0502 82.2692 47.8547C82.4155 47.4178 82.4155 46.9439 82.2692 46.507C82.1382 46.0974 81.8574 45.7548 81.4848 45.55C81.1123 45.3452 80.6766 45.294 80.2679 45.4069L79.4295 45.8194H79.5647C79.9394 45.6097 80.2194 45.2601 80.3455 44.8445C80.4716 44.4289 80.4341 43.9797 80.2409 43.5917C80.0687 43.1587 79.7657 42.7927 79.3754 42.5465L81.6472 41.5014C82.0172 41.2871 82.2913 40.9355 82.4123 40.5203C82.5333 40.1051 82.4917 39.6584 82.2962 39.2737C82.1842 38.9532 81.9895 38.6693 81.7326 38.4515C81.4757 38.2338 81.166 38.0903 80.8358 38.036V20.5715L82.5667 19.8839L83.0805 19.7464Z" stroke="#197B2C" stroke-linejoin="round"/>
</svg>
