<svg width="69" height="73" viewBox="0 0 69 73" fill="none" xmlns="http://www.w3.org/2000/svg">
<path d="M22.1873 52.4276L22.5673 52.9058L22.961 52.4388L22.5788 52.1165C22.961 52.4388 22.9612 52.4386 22.9615 52.4382L22.963 52.4364L22.9691 52.4292L22.9933 52.4006L23.0888 52.2874L23.4615 51.8458C23.788 51.4591 24.2671 50.8919 24.8773 50.1702C26.0975 48.727 27.842 46.666 29.9386 44.1952C34.1318 39.2535 39.7333 32.6727 45.3671 26.1157C51.0013 19.5582 56.6659 13.0266 60.9859 8.18256C63.1465 5.75977 64.9672 3.76321 66.2782 2.3975C66.9351 1.71328 67.4568 1.19499 67.8262 0.861971C67.8309 0.85774 67.8356 0.853547 67.8402 0.849392C67.8298 0.917175 67.8159 0.991469 67.7982 1.07235C67.6858 1.58608 67.4471 2.24666 67.1532 2.94393C66.6714 4.08727 66.0738 5.25617 65.7335 5.92165C65.66 6.06539 65.5985 6.18564 65.5528 6.27708C65.331 6.72057 63.9746 8.94197 62.5239 11.2771C61.0816 13.5988 59.5786 15.9813 59.084 16.7233L59.0764 16.7348L59.0694 16.7466L28.4434 68.642C27.9469 69.4136 27.3035 70.0799 26.5496 70.603C25.7933 71.1279 24.9407 71.4982 24.0409 71.6927C23.1411 71.8873 22.2117 71.9022 21.3061 71.7367C20.4005 71.5712 19.5365 71.2285 18.7637 70.7283L18.7618 70.7271C17.9672 70.2177 17.2807 69.557 16.7412 68.7825C16.7404 68.7813 16.7397 68.7802 16.7389 68.7791L4.96404 51.2369L4.96329 51.2357L0.720949 44.9523C0.558878 44.692 0.475998 44.3106 0.506069 43.7947C0.536146 43.2786 0.67716 42.67 0.91494 42.003C1.39029 40.6695 2.2268 39.1729 3.19532 37.8415C4.16708 36.5056 5.24252 35.3763 6.17572 34.7489C6.64573 34.4329 7.03689 34.2735 7.33229 34.2438C7.59512 34.2174 7.77492 34.2898 7.92299 34.477L7.92368 34.4778L22.1873 52.4276ZM67.8445 0.396897C67.8446 0.396847 67.845 0.397608 67.8457 0.39933C67.8448 0.397808 67.8445 0.396947 67.8445 0.396897Z" stroke="#197B2C"/>
</svg>
