<svg width="19" height="16" viewBox="0 0 19 16" fill="none" xmlns="http://www.w3.org/2000/svg">
<path d="M18.8739 2.45377C18.1819 2.7523 17.4288 2.96715 16.6531 3.05083C17.4584 2.57236 18.0616 1.81645 18.3493 0.924928C17.5935 1.37451 16.7656 1.68976 15.9022 1.85671C15.5414 1.47094 15.1049 1.16362 14.6201 0.953893C14.1353 0.74417 13.6125 0.636538 13.0843 0.637705C10.947 0.637705 9.22822 2.37009 9.22822 4.49599C9.22822 4.79453 9.26441 5.09306 9.32321 5.38028C6.12305 5.21292 3.26891 3.68408 1.37143 1.34332C1.02569 1.93386 0.844505 2.60626 0.846735 3.29056C0.846735 4.62943 1.52748 5.80998 2.56555 6.50429C1.9538 6.4802 1.35637 6.31205 0.821858 6.01353V6.06102C0.821858 7.93589 2.14716 9.48961 3.91346 9.84694C3.58182 9.93308 3.24065 9.97715 2.89801 9.97811C2.64697 9.97811 2.4095 9.95323 2.16977 9.91931C2.65828 11.4482 4.08082 12.5586 5.77476 12.5948C4.44946 13.6329 2.78945 14.2435 0.986955 14.2435C0.663546 14.2435 0.365015 14.2322 0.0551758 14.196C1.76495 15.2929 3.7936 15.9261 5.9783 15.9261C13.0707 15.9261 16.9516 10.0505 16.9516 4.95058C16.9516 4.78322 16.9516 4.61586 16.9403 4.4485C17.6911 3.89893 18.3493 3.21819 18.8739 2.45377Z" fill="white"/>
</svg>
