<svg width="20" height="14" viewBox="0 0 20 14" fill="none" xmlns="http://www.w3.org/2000/svg">
<path d="M18.7778 2.69226C18.6693 2.28845 18.4568 1.92021 18.1613 1.62437C17.8658 1.32854 17.4979 1.1155 17.0942 1.00657C15.6083 0.606934 9.65209 0.606934 9.65209 0.606934C9.65209 0.606934 3.69585 0.606934 2.20998 1.00444C1.80614 1.11302 1.43797 1.32595 1.14246 1.62183C0.846944 1.91772 0.634484 2.28615 0.526414 2.69013C0.128906 4.17813 0.128906 7.28166 0.128906 7.28166C0.128906 7.28166 0.128906 10.3852 0.526414 11.8711C0.745362 12.6916 1.39158 13.3378 2.20998 13.5568C3.69585 13.9564 9.65209 13.9564 9.65209 13.9564C9.65209 13.9564 15.6083 13.9564 17.0942 13.5568C17.9147 13.3378 18.5588 12.6916 18.7778 11.8711C19.1753 10.3852 19.1753 7.28166 19.1753 7.28166C19.1753 7.28166 19.1753 4.17813 18.7778 2.69226ZM7.76021 10.1301V4.43321L12.6919 7.26041L7.76021 10.1301Z" fill="white"/>
</svg>
