<svg width="22" height="14" viewBox="0 0 22 14" fill="none" xmlns="http://www.w3.org/2000/svg">
<path d="M21.7313 12.6785C21.7055 12.6173 21.6814 12.5665 21.6591 12.5258C21.2896 11.7927 20.5834 10.8928 19.5411 9.82593L19.519 9.8015L19.508 9.78952L19.4969 9.77724H19.4857C19.0126 9.28045 18.713 8.94642 18.5876 8.77541C18.358 8.44964 18.3066 8.11988 18.4321 7.78577C18.5207 7.53333 18.8536 7.00022 19.4301 6.1857C19.7333 5.75403 19.9735 5.40807 20.1508 5.14742C21.4299 3.27425 21.9844 2.07726 21.8143 1.556L21.7482 1.43419C21.7038 1.36086 21.5892 1.29377 21.4046 1.23258C21.2196 1.17153 20.9831 1.16143 20.6947 1.20212L17.5011 1.22642C17.4494 1.20623 17.3755 1.20811 17.2793 1.23258C17.1831 1.25706 17.135 1.26934 17.135 1.26934L17.0795 1.29993L17.0353 1.33668C16.9984 1.36098 16.9577 1.40373 16.9133 1.46483C16.8691 1.52571 16.8322 1.59716 16.8027 1.67858C16.455 2.66399 16.0597 3.58016 15.616 4.42707C15.3425 4.93207 15.0912 5.36973 14.8618 5.7403C14.6327 6.11074 14.4405 6.38367 14.2853 6.55862C14.13 6.73375 13.9898 6.87404 13.8639 6.98002C13.7381 7.08605 13.6422 7.13084 13.5757 7.11446C13.5091 7.09807 13.4464 7.08181 13.387 7.06555C13.2835 6.99222 13.2003 6.89248 13.1376 6.76626C13.0746 6.64005 13.0322 6.48118 13.01 6.2898C12.988 6.09829 12.9749 5.93356 12.9712 5.79507C12.9677 5.65674 12.9693 5.46108 12.9768 5.20864C12.9845 4.95608 12.988 4.78519 12.988 4.6956C12.988 4.38608 12.9934 4.05017 13.0044 3.68777C13.0156 3.32537 13.0247 3.03824 13.0322 2.8267C13.0398 2.61496 13.0433 2.39093 13.0433 2.15475C13.0433 1.91857 13.0302 1.73335 13.0044 1.59892C12.979 1.46465 12.9398 1.33433 12.8883 1.20798C12.8365 1.08176 12.7606 0.984126 12.661 0.914812C12.5612 0.845585 12.4371 0.790647 12.2895 0.74983C11.8977 0.652149 11.3987 0.599309 10.7923 0.591094C9.41736 0.574835 8.53387 0.672643 8.14205 0.884391C7.9868 0.973857 7.84632 1.0961 7.72071 1.25072C7.58761 1.42996 7.56904 1.52776 7.66513 1.54385C8.10876 1.61706 8.42282 1.79218 8.60766 2.06905L8.67427 2.21576C8.72609 2.32162 8.77782 2.50902 8.8296 2.77771C8.88129 3.04641 8.91466 3.34364 8.92934 3.66925C8.96624 4.26384 8.96624 4.77282 8.92934 5.19623C8.89232 5.61982 8.85737 5.94957 8.824 6.18574C8.79064 6.42192 8.74077 6.61331 8.67427 6.75985C8.60766 6.90643 8.56335 6.99603 8.54113 7.02854C8.51895 7.06106 8.50047 7.08155 8.48578 7.0896C8.38969 7.13016 8.28976 7.15083 8.18633 7.15083C8.08274 7.15083 7.95713 7.09375 7.80931 6.97968C7.66152 6.86561 7.50814 6.70893 7.34917 6.50938C7.19019 6.30978 7.01091 6.03086 6.81123 5.67257C6.61171 5.31428 6.40469 4.89083 6.1903 4.40221L6.01291 4.04786C5.90202 3.81989 5.75055 3.48796 5.55833 3.05236C5.36599 2.61658 5.19599 2.19505 5.0482 1.78786C4.98913 1.61684 4.90038 1.48665 4.78211 1.39705L4.72661 1.3603C4.68971 1.32778 4.63048 1.29325 4.54922 1.25646C4.46785 1.2197 4.38295 1.19335 4.29416 1.17713L1.25574 1.20144C0.945252 1.20144 0.734584 1.27892 0.623656 1.43368L0.579262 1.50688C0.557084 1.54766 0.545898 1.61278 0.545898 1.70242C0.545898 1.79201 0.568076 1.90197 0.61247 2.03217C1.05602 3.18054 1.53838 4.28806 2.05954 5.35488C2.58069 6.42171 3.03357 7.28107 3.41789 7.93218C3.80229 8.58377 4.19411 9.19873 4.59335 9.77677C4.99258 10.355 5.25685 10.7256 5.38615 10.8884C5.5156 11.0515 5.61729 11.1734 5.6912 11.2549L5.96848 11.548C6.1459 11.7435 6.40644 11.9776 6.75021 12.2504C7.09407 12.5233 7.47474 12.792 7.89242 13.0569C8.31019 13.3213 8.79619 13.5371 9.35071 13.7041C9.90516 13.8711 10.4448 13.9382 10.9697 13.9058H12.245C12.5036 13.8812 12.6996 13.7916 12.8328 13.637L12.8769 13.5758C12.9066 13.5272 12.9343 13.4517 12.96 13.35C12.9859 13.2483 12.9988 13.1361 12.9988 13.0141C12.9912 12.664 13.0154 12.3485 13.0707 12.0675C13.126 11.7867 13.189 11.5749 13.2595 11.4323C13.3299 11.2899 13.4093 11.1696 13.4978 11.0722C13.5864 10.9745 13.6496 10.9153 13.6866 10.8949C13.7234 10.8744 13.7528 10.8605 13.775 10.8522C13.9524 10.7871 14.1613 10.8501 14.4018 11.0417C14.6421 11.2331 14.8674 11.4694 15.0783 11.7502C15.289 12.0313 15.5421 12.3467 15.8378 12.6968C16.1336 13.0471 16.3923 13.3074 16.614 13.4787L16.8357 13.6253C16.9838 13.7231 17.176 13.8127 17.4126 13.8941C17.6488 13.9755 17.8557 13.9959 18.0334 13.9552L20.8721 13.9064C21.1529 13.9064 21.3714 13.8552 21.5263 13.7536C21.6816 13.6518 21.7739 13.5396 21.8036 13.4176C21.8333 13.2955 21.8349 13.157 21.8093 13.0021C21.783 12.8476 21.7571 12.7396 21.7313 12.6785Z" fill="white"/>
</svg>
