<svg width="16" height="16" viewBox="0 0 16 16" fill="none" xmlns="http://www.w3.org/2000/svg">
<path d="M13.0493 0.563965H2.23958C1.00478 0.563965 0 1.57841 0 2.82508V13.7387C0 14.9854 1.00478 15.9999 2.23958 15.9999H13.0493C14.2841 15.9999 15.2889 14.9854 15.2889 13.7387V2.82508C15.2889 1.57841 14.2841 0.563965 13.0493 0.563965ZM7.67431 12.3218C5.4514 12.3218 3.64306 10.496 3.64306 8.25177C3.64306 6.00749 5.4514 4.18175 7.67431 4.18175C9.89721 4.18175 11.7056 6.00749 11.7056 8.25177C11.7056 10.496 9.89721 12.3218 7.67431 12.3218ZM12.1535 5.0862C11.4125 5.0862 10.8097 4.47758 10.8097 3.72953C10.8097 2.98148 11.4125 2.37286 12.1535 2.37286C12.8944 2.37286 13.4972 2.98148 13.4972 3.72953C13.4972 4.47758 12.8944 5.0862 12.1535 5.0862Z" fill="white"/>
<path d="M7.71816 5.70947C6.29975 5.70947 5.14551 6.86372 5.14551 8.28212C5.14551 9.70053 6.29975 10.8548 7.71816 10.8548C9.13656 10.8548 10.2908 9.70053 10.2908 8.28212C10.2908 6.86372 9.13656 5.70947 7.71816 5.70947Z" fill="white"/>
</svg>
