<svg width="114" height="39" viewBox="0 0 114 39" fill="none" xmlns="http://www.w3.org/2000/svg">
<path fill-rule="evenodd" clip-rule="evenodd" d="M93.2622 15.3839V23.0705H94.7446H96.2269V18.9316V14.7926H97.1816C98.3631 14.7926 98.7704 14.9783 99.0798 15.6578C99.2844 16.1073 99.3053 16.4694 99.3076 19.6116L99.3102 23.0705H100.8H102.289L102.252 19.0794C102.216 15.1764 102.21 15.076 101.939 14.5292C101.788 14.2216 101.459 13.8084 101.209 13.611C100.389 12.9632 100.002 12.8653 98.0354 12.8071L96.2269 12.7535V10.2253V7.69727H94.7446H93.2622V15.3839ZM54.6875 12.7858C52.5718 13.3167 51.3981 15.2573 51.4023 18.2173C51.4052 20.3653 51.9165 21.7348 52.99 22.4715C53.7573 22.9979 54.2464 23.0873 56.1399 23.0475L57.8553 23.0114L58.1852 22.1245C58.3666 21.6367 58.5456 21.1445 58.5828 21.0306C58.6448 20.8406 58.5231 20.8237 57.0969 20.8237C56.0461 20.8237 55.4171 20.7711 55.1526 20.6608C54.7292 20.4844 54.3652 19.8819 54.3652 19.3572V19.0498H57.4485H60.5318V17.861C60.5318 16.2428 60.2787 15.2032 59.6614 14.2847C59.2483 13.6704 59.0382 13.4852 58.3701 13.1473C57.6394 12.7778 57.4694 12.7408 56.354 12.7085C55.6841 12.6892 54.9342 12.724 54.6875 12.7858ZM76.0076 12.9035C75.1343 13.1811 74.1593 13.9959 73.7601 14.7815C73.1907 15.9021 73.078 16.5569 73.1214 18.4953C73.1589 20.1724 73.1837 20.3386 73.4944 21.0011C73.8853 21.8346 74.2673 22.265 74.9996 22.6967C75.5104 22.9979 75.6178 23.0131 77.5049 23.0507L79.4764 23.0901L79.847 22.0689C80.0508 21.5073 80.2175 21.0013 80.2175 20.9445C80.2175 20.8877 79.4448 20.8239 78.5003 20.8029C76.8272 20.7655 76.7751 20.7566 76.4713 20.4533C76.2563 20.2385 76.1403 19.9726 76.0977 19.5959L76.0361 19.0498H79.1348H82.2335V18.0397C82.2335 14.4276 80.7241 12.6495 77.6759 12.6706C77.0777 12.6748 76.4524 12.762 76.0076 12.9035ZM43.733 12.9054C42.645 13.1201 41.7135 13.8457 41.368 14.7477C41.2332 15.0997 41.1886 15.5036 41.2211 16.0777C41.2621 16.8012 41.3234 16.9826 41.7219 17.5596C42.3984 18.5392 43.0593 18.8265 44.79 18.8934C46.3657 18.9544 46.5806 18.9905 46.8265 19.2359C47.1031 19.5116 47.0666 20.2654 46.7633 20.5393C46.5449 20.7366 46.2632 20.7719 44.4918 20.8237L42.4697 20.8828L42.0737 21.9471C41.856 22.5325 41.6775 23.0281 41.6771 23.0484C41.6766 23.0689 42.997 23.0689 44.6113 23.0484C47.4031 23.0132 47.5767 22.9977 48.168 22.7311C48.848 22.4246 49.5507 21.7313 49.811 21.1101C49.9026 20.8917 49.9774 20.3721 49.9774 19.9554C49.9774 18.6231 49.4745 17.6647 48.4659 17.0753C47.9569 16.7779 47.7782 16.7455 46.3057 16.6845C45.4168 16.6476 44.5873 16.555 44.4474 16.4772C43.9908 16.2233 43.9084 15.5822 44.2744 15.131C44.4908 14.8642 44.5839 14.8491 46.3624 14.7926L48.2239 14.7335L48.5671 13.7941C48.7557 13.2774 48.9101 12.8383 48.9101 12.8185C48.9101 12.7365 44.1872 12.8159 43.733 12.9054ZM65.1884 12.9069C63.9853 13.1438 62.9904 13.9715 62.5266 15.1213C62.2754 15.7441 62.2536 15.9762 62.2525 18.0447C62.2513 20.2189 62.2613 20.3127 62.5598 20.9474C62.9675 21.8141 63.5008 22.4019 64.1836 22.7373C64.6726 22.9775 64.9693 23.0187 66.5798 23.0705L68.4179 23.1297L68.4581 23.4823C68.5149 23.9813 68.2735 24.7 67.9997 24.846C67.8721 24.9142 67.3403 25.0027 66.8179 25.0429C66.2957 25.0831 65.8683 25.1245 65.8683 25.1349C65.8683 25.1453 65.7071 25.5942 65.5101 26.1325L65.1519 27.1112L67.1407 27.0707C68.9028 27.0346 69.1835 27.001 69.6038 26.7759C70.4909 26.3005 71.0985 25.4074 71.284 24.3063C71.3383 23.9843 71.3683 21.2598 71.3506 18.2516L71.3187 12.7823L68.5045 12.7953C66.9568 12.8024 65.4645 12.8526 65.1884 12.9069ZM84.2605 13.7366C84.0588 14.2635 83.8937 14.7166 83.8937 14.7435C83.8937 14.7705 84.8276 14.7926 85.969 14.7926C87.1104 14.7926 88.0426 14.8326 88.0403 14.8813C88.0382 14.93 87.0242 16.3472 85.7871 18.0304L83.538 21.0908V22.0806V23.0705H87.0794H90.6208L90.9928 22.0336C91.1974 21.4632 91.3648 20.9577 91.3648 20.9101C91.3648 20.8626 90.4042 20.8237 89.2302 20.8237C88.0562 20.8237 87.0956 20.7968 87.0956 20.7641C87.0956 20.7312 88.0851 19.3772 89.2944 17.7551L91.4932 14.8057L91.4586 13.8235L91.4241 12.8414L88.0257 12.8101L84.6274 12.7787L84.2605 13.7366ZM106.505 13.6445C106.331 14.1338 106.188 14.5923 106.188 14.6634C106.188 14.7515 106.793 14.7926 108.086 14.7926C109.825 14.7926 110.003 14.8124 110.22 15.0291C110.475 15.2829 110.528 15.7407 110.343 16.085C110.188 16.3752 109.818 16.5 108.044 16.8604C106.202 17.2348 105.355 17.5372 104.808 18.016C103.539 19.1267 103.58 21.4012 104.886 22.3031C105.847 22.9672 106.081 23.0024 109.835 23.0462L113.304 23.0865L113.303 18.9692C113.303 16.5505 113.253 14.6735 113.182 14.4199C113.035 13.8909 112.301 13.2039 111.682 13.0141C111.432 12.9377 110.237 12.8481 109.025 12.8149L106.822 12.7547L106.505 13.6445ZM57.1048 15.0611C57.6251 15.4076 57.9224 16.0088 57.9226 16.7143L57.9229 17.276H56.144H54.3652V16.7462C54.3652 15.9586 54.6541 15.3509 55.1703 15.0524C55.7702 14.7057 56.5768 14.7093 57.1048 15.0611ZM68.4772 17.8082V20.8237H67.3562C66.7397 20.8237 66.1001 20.7623 65.9349 20.6872C65.7684 20.6116 65.5149 20.3086 65.3661 20.0072C65.1238 19.5169 65.0978 19.2958 65.101 17.749C65.1042 16.2116 65.1317 15.983 65.367 15.5381C65.5113 15.2652 65.7232 14.9874 65.8378 14.9208C65.9524 14.8542 66.5931 14.7982 67.2617 14.7962L68.4772 14.7926V17.8082ZM78.6718 14.9998C79.2023 15.2666 79.5051 15.8012 79.5899 16.6207L79.6578 17.276H77.7864H75.9151L75.9829 16.6207C76.105 15.4418 76.7452 14.793 77.7864 14.793C78.0473 14.793 78.4458 14.886 78.6718 14.9998ZM110.339 19.5229V20.8237H108.792C107.307 20.8237 107.233 20.812 106.954 20.5334C106.591 20.1715 106.582 19.7569 106.93 19.4367C107.134 19.248 109.763 18.2954 110.25 18.2334C110.299 18.2271 110.339 18.8074 110.339 19.5229ZM91.34 25.6831C90.0603 25.8677 88.9745 26.7147 88.4916 27.9053C88.2577 28.4821 88.2222 28.7796 88.2222 30.1659C88.2222 31.6637 88.2421 31.8026 88.5441 32.4128C89.0137 33.3618 89.4723 33.8539 90.2553 34.2496C90.8941 34.5723 91.0495 34.6005 92.1949 34.6005C93.3404 34.6005 93.4957 34.5723 94.1346 34.2496C94.9222 33.8516 95.3838 33.3536 95.8365 32.4128C96.1012 31.8628 96.1578 31.5586 96.2028 30.4418C96.2476 29.3304 96.216 28.99 96.0035 28.2924C95.4086 26.3388 93.6428 25.3509 91.34 25.6831ZM75.8182 25.792C74.7726 25.9683 73.9713 26.6109 73.4713 27.6741C73.179 28.2957 73.1615 28.4365 73.1615 30.1659C73.1615 31.935 73.1731 32.0224 73.4942 32.6746C73.8827 33.4635 74.6716 34.2048 75.3325 34.4023C75.598 34.4817 76.5493 34.5414 77.5468 34.5414H79.2956L79.2496 35.3527C79.214 35.9809 79.1331 36.2703 78.891 36.635C78.4497 37.2999 77.901 37.5227 76.5449 37.5873C75.3691 37.6432 75.1182 37.7563 75.1182 38.2299C75.1182 38.4237 75.2438 38.4437 76.4523 38.4426C77.6071 38.4417 77.8661 38.404 78.3794 38.162C79.092 37.826 79.5278 37.3846 79.8521 36.67C80.0834 36.1607 80.0938 35.9135 80.0963 30.905L80.0989 25.6722L78.2311 25.6861C77.2038 25.6937 76.118 25.7414 75.8182 25.792ZM84.2597 25.8005C83.2383 26.0005 82.3628 26.8188 82.1195 27.8008C82.0351 28.1421 82 29.4358 82.0217 31.4076L82.0556 34.4822L82.5003 34.5189L82.945 34.5557V31.2261C82.945 27.5092 82.958 27.4425 83.7751 26.9359C84.123 26.7203 84.4082 26.6716 85.5358 26.6353L86.8816 26.592L87.0478 26.195C87.1394 25.9767 87.2142 25.7697 87.2142 25.7351C87.2142 25.6349 84.8368 25.6875 84.2597 25.8005ZM97.8477 25.751C97.8042 25.7943 97.7686 27.3006 97.7686 29.098C97.7686 32.3498 97.7701 32.3694 98.066 32.9615C98.3804 33.5905 99.0554 34.1614 99.7726 34.4047C100.022 34.4891 101.031 34.5414 102.411 34.5414H104.647V30.0997V25.6579L104.202 25.6946L103.757 25.7313L103.726 29.6633L103.695 33.5953H101.913C99.9045 33.5953 99.4536 33.466 98.9348 32.7407C98.6629 32.3604 98.6574 32.2955 98.6216 29.0129L98.5852 25.6722H98.256C98.0749 25.6722 97.8911 25.7076 97.8477 25.751ZM106.544 31.8659V38.089H106.959H107.374V36.3152V34.5414H109.071C110.656 34.5414 110.807 34.5214 111.38 34.2365C112.103 33.8776 112.517 33.423 112.935 32.531C113.215 31.9336 113.24 31.7504 113.24 30.2842C113.241 28.3416 113.055 27.6172 112.356 26.8248C111.523 25.8816 111.092 25.7499 108.65 25.6924L106.544 25.6428V31.8659ZM93.813 26.8657C94.9199 27.4129 95.4868 28.751 95.365 30.5284C95.2565 32.111 94.5288 33.2384 93.3977 33.5763C92.8078 33.7526 91.5821 33.7526 90.9922 33.5763C90.3305 33.3787 89.6624 32.7549 89.3394 32.0336C89.101 31.5008 89.0587 31.214 89.0558 30.1068C89.0527 28.9257 89.0821 28.7454 89.3758 28.149C89.5538 27.7877 89.8322 27.3677 89.9944 27.2158C90.7897 26.4708 92.666 26.2987 93.813 26.8657ZM79.2688 30.1068V33.5953L77.4603 33.5934C75.2291 33.5909 74.9183 33.4677 74.3501 32.3598C74.0122 31.7011 73.9916 31.5823 73.9916 30.2926C73.9916 28.6966 74.1625 27.983 74.6881 27.3836C75.2336 26.7615 75.7463 26.6295 77.6382 26.6234L79.2688 26.6182V30.1068ZM111.253 26.9947C111.554 27.194 111.838 27.5242 112.015 27.8817C112.273 28.4051 112.296 28.5966 112.296 30.2444V32.0377L111.936 32.5486C111.26 33.5077 111.02 33.5953 109.076 33.5953H107.374V30.1856C107.374 28.3102 107.414 26.7358 107.463 26.6867C107.512 26.6376 108.277 26.6154 109.162 26.6374C110.676 26.675 110.8 26.6961 111.253 26.9947Z" fill="white"/>
<path fill-rule="evenodd" clip-rule="evenodd" d="M10.1425 2.34086C11.841 1.22228 13.4836 0.570095 15.5285 0.202201C19.0411 -0.429523 22.9624 0.439422 25.9999 2.52286C26.9788 3.19431 30.417 6.47071 32.0497 8.28831C34.7032 11.2421 35.8929 14.2449 35.8916 17.9853C35.8905 21.0618 35.0087 23.7664 33.2121 26.2037C32.2379 27.5254 27.1536 32.5512 25.9931 33.34C23.6801 34.912 21.3218 35.6986 18.5972 35.8069C16.0003 35.9102 14.0208 35.5241 11.8523 34.4911C10.054 33.6346 8.97379 32.7555 5.8408 29.5985C2.26749 25.998 1.51801 24.9564 0.675088 22.4199C0.117604 20.7426 -0.00727025 19.8889 0.00031941 17.8079C0.00790907 15.7386 0.16919 14.8312 0.869455 12.9176C1.69376 10.6653 2.76058 9.27232 6.41263 5.67923C8.34314 3.78003 9.41802 2.8179 10.1425 2.34086ZM20.022 7.10244C21.7771 7.55004 22.4005 7.97718 24.936 10.4697C27.5174 13.0072 28.2167 13.9249 28.7066 15.4174C28.9765 16.2401 29.0257 16.5971 29.0279 17.7488C29.0302 18.929 28.9875 19.2336 28.7043 20.0536C28.2096 21.4861 27.6763 22.2459 25.8533 24.1156C22.6374 27.414 21.3435 28.3652 19.4768 28.8042C18.409 29.0551 16.8795 29.0306 15.7578 28.7446C14.1576 28.3365 13.2863 27.7471 11.0398 25.5537C9.94076 24.4805 8.77978 23.2754 8.45995 22.8754C7.3598 21.5001 6.81228 19.9339 6.81228 18.1627C6.81228 16.3909 7.36016 14.8243 8.46054 13.4499C8.78061 13.05 10.075 11.7118 11.3368 10.476C13.201 8.65041 13.7904 8.14557 14.4804 7.783C16.1893 6.88532 18.2016 6.63816 20.022 7.10244ZM9.13804 16.6764C9.54171 15.3193 9.82573 14.9508 12.6638 12.0999C15.1823 9.5702 15.4114 9.36988 15.5051 9.61656C15.5611 9.76402 15.7567 10.2905 15.9396 10.7865L16.272 11.6883L14.0879 13.8611C11.5649 16.3712 11.2001 16.9147 11.2001 18.1627C11.2001 18.7407 11.2756 19.0444 11.5614 19.6146C12.2072 20.9035 13.2394 21.5538 14.6391 21.5538C15.9157 21.5538 16.3435 21.3014 18.2114 19.4459C19.2019 18.4619 19.8588 17.8926 19.9094 17.9742C19.9547 18.0474 20.149 18.5705 20.341 19.1369L20.69 20.1665L19.3544 21.5059C17.7823 23.0826 16.8974 23.6038 15.4356 23.8138C12.0413 24.3013 8.94687 21.6063 8.94687 18.1627C8.94687 17.6985 9.03285 17.0297 9.13804 16.6764ZM16.5184 14.405C17.9502 12.9986 18.6 12.5689 19.7698 12.2549C21.081 11.9027 22.705 12.0978 23.9394 12.7559C24.8963 13.2659 25.8436 14.2841 26.3493 15.3458C26.7442 16.1752 26.793 16.3851 26.8354 17.4345C26.8932 18.872 26.6616 19.8304 26.0227 20.7973C25.5975 21.4406 20.5098 26.6071 20.4125 26.4943C20.3263 26.3944 19.6198 24.4702 19.6198 24.3353C19.6198 24.2617 20.6304 23.1887 21.8658 21.9508C24.4102 19.4008 24.5945 19.1213 24.5968 17.8079C24.6002 15.8434 23.1576 14.3825 21.2208 14.3891C19.915 14.3936 19.4727 14.6537 17.5911 16.5228C16.2351 17.8699 15.9633 18.0909 15.8886 17.9077C15.8397 17.7878 15.6504 17.256 15.4682 16.726L15.1366 15.7622L16.5184 14.405ZM24.4961 4.50802C23.4461 3.80487 21.999 3.1515 20.8057 2.84179C18.9193 2.35221 16.218 2.43085 14.3832 3.02876C12.1018 3.77211 11.1594 4.46864 7.63505 8.01667C4.10479 11.5706 3.60731 12.2771 2.82273 14.8515C2.52756 15.8201 2.49779 16.0912 2.49115 17.867C2.48487 19.5455 2.52187 19.9588 2.75584 20.8234C3.11576 22.1537 4.03624 24.0069 4.81786 24.9749C5.72399 26.0973 10.7776 30.9722 11.5875 31.5048C12.5226 32.1201 13.8584 32.7115 15.0269 33.0273C16.4305 33.4069 19.4711 33.4058 20.865 33.0251C21.9739 32.7222 23.7909 31.8769 24.6501 31.2641C25.5089 30.6515 30.5532 25.6431 31.2352 24.7259C32.7284 22.7175 33.4392 20.4619 33.4153 17.8079C33.4042 16.5739 33.3421 16.0441 33.1005 15.1228C32.7054 13.6161 32.0414 12.2338 31.1527 11.0673C30.2124 9.83344 25.4699 5.1602 24.4961 4.50802ZM16.0029 4.70042C14.9413 4.92676 13.6625 5.45773 12.7156 6.06545C11.907 6.58436 7.35541 10.9983 6.52114 12.0725C5.00689 14.0223 4.34848 16.1543 4.47039 18.7134C4.56716 20.7465 5.15501 22.4119 6.34208 24.0164C7.09974 25.0404 11.3166 29.1694 12.1836 29.736C15.5633 31.9452 19.9844 31.9247 23.3123 29.6847C24.2378 29.0617 28.5334 24.8573 29.4056 23.7207C30.173 22.7207 30.7938 21.4476 31.1356 20.173C31.4705 18.9244 31.5005 16.6335 31.1968 15.5019C30.5248 12.9974 30.0733 12.3152 27.1003 9.31075C23.8767 6.05327 22.8934 5.36987 20.5923 4.78781C19.2647 4.45197 17.3399 4.41531 16.0029 4.70042Z" fill="white"/>
</svg>
