<svg width="70" height="70" viewBox="0 0 70 70" fill="none" xmlns="http://www.w3.org/2000/svg">
<path d="M5.12644 53.6106L3.81923 53.2404V47.6868C3.81711 47.6098 3.83471 47.5335 3.87047 47.4646C3.90623 47.3958 3.95906 47.3364 4.02428 47.2919C4.09245 47.2611 4.16684 47.2451 4.24215 47.2451C4.31746 47.2451 4.39185 47.2611 4.46002 47.2919H4.58818C4.74608 47.3311 4.88543 47.4208 4.98326 47.5465C5.0811 47.6721 5.1316 47.826 5.12644 47.983V53.6106ZM4.61381 47.1438H4.48565C4.40086 47.1077 4.3092 47.0891 4.21652 47.0891C4.12384 47.0891 4.03217 47.1077 3.94738 47.1438C3.8678 47.2013 3.80321 47.2758 3.75872 47.3615C3.71423 47.4472 3.69107 47.5416 3.69107 47.6374V53.2404L5.12644 53.66V47.9583C5.1436 47.7965 5.11155 47.6333 5.03419 47.4887C4.95683 47.3441 4.8375 47.2243 4.6907 47.1438H4.61381ZM9.74014 55.141L8.43292 54.7707V49.1924C8.42752 49.1184 8.4439 49.0444 8.48016 48.9789C8.51643 48.9134 8.57112 48.8591 8.63797 48.8222C8.69936 48.7849 8.77046 48.7651 8.84303 48.7651C8.9156 48.7651 8.98669 48.7849 9.04808 48.8222H9.20187C9.35141 48.8672 9.4831 48.9552 9.5793 49.0743C9.67549 49.1934 9.73161 49.338 9.74014 49.4886V55.141ZM9.2275 48.6494C9.05355 48.5891 8.8632 48.5891 8.68924 48.6494C8.61107 48.7082 8.5475 48.783 8.50316 48.8684C8.45881 48.9538 8.43482 49.0476 8.43292 49.1431V54.7954L9.86829 55.215V49.3652C9.86123 49.2179 9.81512 49.0748 9.73436 48.9495C9.6536 48.8242 9.54088 48.7209 9.40692 48.6494H9.2275ZM6.66434 38.1099L9.7914 39.0479V45.3173L6.7925 44.4287L6.66434 38.1099ZM6.66434 34.6544C7.44836 34.9088 8.14748 35.3604 8.68924 35.9625L6.66434 37.8878V34.6544ZM9.7914 38.801L6.7156 37.8631L8.7405 35.9379C9.49403 36.7152 9.91511 37.7377 9.91956 38.801H9.7914ZM6.68997 34.5556V37.7397L4.84449 34.9012L6.7156 37.7891L4.15244 36.9745V36.4068C4.15641 36.0888 4.23722 35.776 4.38848 35.4932C4.53975 35.2105 4.7573 34.9655 5.02391 34.7778C5.27248 34.6363 5.54777 34.5438 5.83378 34.5056C6.1198 34.4675 6.41083 34.4845 6.68997 34.5556V34.5556ZM6.68997 44.2806L3.92175 43.4661V37.2214L6.68997 38.0606V44.2806ZM4.71633 34.7531C4.43996 34.9562 4.21546 35.2175 4.05998 35.5169C3.9045 35.8164 3.82215 36.1461 3.81923 36.4809V43.5648L9.94519 45.3913V38.727C9.92671 37.794 9.6053 36.89 9.02607 36.1418C8.44685 35.3937 7.63889 34.839 6.7156 34.5556C6.38279 34.452 6.02985 34.4225 5.68348 34.4696C5.33712 34.5166 5.0064 34.6389 4.71633 34.8271V34.7531ZM69.0005 53.8081L35.8844 69.1113V49.9576L69.2055 36.1106L69.0005 53.8081ZM35.6794 49.8836L30.7581 48.4766L65.0532 34.7284V34.9752L68.7954 36.0119L35.6794 49.8836ZM35.6794 69.0126L31.3476 67.5317V62.373C31.363 60.1728 30.6148 58.0306 29.2217 56.2866C27.8286 54.5427 25.8704 53.2968 23.6581 52.7467H23.3249C22.596 52.6143 21.8459 52.6358 21.1265 52.8097C20.4071 52.9836 19.7354 53.3058 19.1578 53.754C18.5803 54.2022 18.1106 54.7658 17.7813 55.4058C17.4519 56.0459 17.2707 56.7471 17.2502 57.4611V62.8666L13.2773 61.4597V44.1819L17.5322 45.2432V41.9604L30.4761 45.2185V48.4026L35.6025 49.8342L35.6794 69.0126ZM17.1733 62.7679V57.3624C17.1713 56.6618 17.3366 55.9702 17.6567 55.341C17.9767 54.7118 18.4427 54.162 19.0188 53.7341C19.5771 53.2944 20.2312 52.9817 20.9324 52.8193C21.6336 52.6569 22.3638 52.649 23.0686 52.7961H23.4018C24.7296 53.1214 25.9762 53.6996 27.068 54.4966C28.1598 55.2936 29.0746 56.2932 29.7584 57.4364L17.1733 62.7679ZM6.92066 28.0641L23.3249 22.9301V27.1015C23.3249 27.8173 24.7859 28.3603 26.0675 28.3603C26.4388 28.3622 26.8061 28.2864 27.144 28.1381C27.2812 28.0915 27.3996 28.0043 27.4825 27.8891C27.5653 27.7739 27.6083 27.6365 27.6054 27.4964L27.4003 21.7453L43.7277 16.8088L47.5212 20.2644V24.337L13.226 35.4689L6.92066 28.0641ZM13.1491 61.435L0.999746 57.2883V31.5443L6.7156 28.0888L13.1491 35.4936V61.435ZM23.9913 7.40471C24.1249 7.44461 24.2679 7.44461 24.4014 7.40471C24.7418 7.44627 25.0863 7.44627 25.4267 7.40471C25.8396 7.49917 26.2697 7.49917 26.6827 7.40471L27.3491 27.5704C27.3464 27.6902 27.309 27.8068 27.241 27.9072C27.1731 28.0075 27.0773 28.0875 26.9646 28.1381C26.6376 28.2588 26.2895 28.3175 25.9393 28.3109C24.7603 28.3109 23.3762 27.7926 23.3762 27.1755L23.9913 7.40471ZM24.3758 7.00979C24.6731 6.9661 24.9756 6.9661 25.2729 7.00979C26.0419 7.00979 26.657 7.15789 26.657 7.35535C26.657 7.55281 26.1444 7.40471 25.4267 7.40471C24.709 7.40471 23.9913 7.25662 23.9913 7.1332C23.9913 7.00979 24.0939 6.93574 24.3758 6.88638V7.00979ZM48.1107 1.7277C48.2917 1.83529 48.4914 1.91055 48.7002 1.94985C49.2047 2.06185 49.7204 2.11979 50.2381 2.12263C50.8929 2.15808 51.5461 2.03057 52.1349 1.75239L53.1601 33.2475C53.1601 34.062 51.571 34.4322 50.11 34.4322C48.649 34.4322 47.0342 34.0373 47.0342 33.2475L48.1107 1.7277ZM48.7002 1.13532C49.1489 1.00606 49.6163 0.947711 50.0843 0.962542C51.2634 0.962542 52.2118 1.18469 52.2118 1.53024C52.2118 1.8758 52.0067 1.77707 51.6479 1.8758C51.2042 1.90818 50.7587 1.90818 50.315 1.8758C49.136 1.8758 48.1363 1.67834 48.1363 1.43151C48.1363 1.18469 48.3414 1.23405 48.7002 1.13532ZM17.4809 42.6022V45.0704L13.4055 44.0338L17.4809 42.6022ZM13.2773 43.9844V35.5676L47.2649 24.3617L47.0598 31.0013L17.5322 41.9604V42.4788L13.2773 43.9844ZM65.0788 32.0874V34.5556L30.7581 48.3779V45.3173L65.0788 32.0874ZM64.9507 32.0874L30.5787 45.1939L17.7628 41.9604L47.0342 31.1247V33.2475C47.0342 34.1607 48.7002 34.5556 50.2381 34.5556C51.776 34.5556 53.3908 34.1607 53.3908 33.2228V28.9774L64.9507 32.0874ZM69.2055 36.0366L65.3095 34.9752V32.0874L53.3652 29.002L52.3143 1.53024C52.3143 1.06127 51.1609 0.863811 50.0843 0.863811C49.6184 0.857914 49.1535 0.907659 48.7002 1.01191C48.162 1.16 48.0338 1.38215 48.0338 1.53024L47.4443 20.0175L43.5739 16.5867L27.2465 21.5232L26.7595 7.03447C26.7595 6.63955 25.8368 6.54082 25.2729 6.54082C24.9502 6.53554 24.629 6.58569 24.3245 6.68892C24.017 6.68892 23.8632 6.86169 23.8632 7.03447L23.3249 22.8314L6.7156 27.9654L0.922852 31.4703V57.3377L17.0964 62.8419L29.9122 57.5352C30.7461 59.0039 31.1865 60.6497 31.1938 62.3236V67.4823L35.6537 68.9879L68.9749 53.7341V36.0613L69.2055 36.0366ZM60.4395 42.8984L66.6424 40.282V41.9604L60.3626 44.6015L60.4395 42.8984ZM60.4395 44.7742L66.6424 41.9604V40.2326L60.2345 42.8737V44.7249L60.4395 44.7742ZM50.3919 47.2425L57.3125 44.4287V46.1812L50.2125 49.1924L50.3919 47.2425ZM50.3919 49.2665L57.5944 46.1812V44.2312L50.3663 47.1931V49.3652H50.1612L50.3919 49.2665ZM39.0371 52.2531L47.0342 48.9209V50.7968L38.8064 54.3018L39.0371 52.2531ZM39.0371 54.4005L47.188 50.9449V48.8962L39.0627 52.2531V54.3018L38.7295 54.4498L39.0371 54.4005Z" stroke="#197B2C" stroke-linejoin="round"/>
</svg>
