<svg width="70" height="43" viewBox="0 0 70 43" fill="none" xmlns="http://www.w3.org/2000/svg">
<path d="M34.448 37.6693L66.4177 24.7822L34.3804 37.5566L34.448 37.6693ZM54.4094 11.3995L59.7039 9.32681L54.3868 11.2644L54.4094 11.3995ZM54.4094 10.3406L59.6588 8.29044L54.4094 10.3181V10.3406ZM64.3225 15.4324L66.2375 14.6889V21.4478L64.3225 22.1913V15.4324ZM64.3225 22.304L66.3727 21.4929V14.734L64.345 15.5225V22.304H64.3225ZM50.8046 20.9747L52.6971 20.2763V27.0352L50.7595 27.7787L50.8046 20.9747ZM50.8046 27.7336L52.8548 26.9226V20.1186L50.8271 20.9071V27.666L50.8046 27.7336ZM45.8706 22.7996L47.7856 22.0561V28.8151L45.8706 29.5585V22.7996ZM45.8706 29.5585L47.9208 28.77V22.0111L45.8706 22.7771V29.6937V29.5585ZM41.0042 24.7597L42.8516 24.0387V30.7977L41.0042 31.5412V24.7597ZM41.0042 31.6763L42.9868 30.8653V24.1063L40.7789 24.7822V31.6989L41.0042 31.6763ZM35.7322 26.9451L37.9852 26.134V32.8929L35.7322 33.7491V26.9451ZM35.7322 33.9068L37.9852 32.9831V26.1791L35.7322 27.0352V33.9969V33.9068ZM69.3691 26.6747L32.1725 41.9274V25.5933L69.0988 10.5434L69.3691 26.6747ZM32.3752 25.3004L1.0138 15.3197L9.01187 12.5035V14.6213L31.1586 21.6281L60.9655 9.93511V8.13273L68.9636 10.5209L32.3752 25.3004ZM32.3752 41.7246L24.1744 38.8859V30.64L7.95297 25.1652V33.4787L1.35175 31.2257V15.4549L32.5104 25.6609L32.3752 41.7246ZM24.0392 38.8408L7.61503 33.4562V25.2328L23.7013 30.6625L24.0392 38.8408ZM9.14705 11.5347L31.1812 18.0233V21.5379L9.14705 14.5537V11.5347ZM60.8304 6.75841V9.84499L31.2938 21.5379V18.0233L60.8304 6.75841ZM40.5536 0.900674L60.8304 6.75841L31.2488 18.0233L9.28223 11.4671L40.5536 0.900674ZM69.2114 10.4533L60.9881 7.95249V6.62324L40.5536 0.788025L9.01187 11.3995V12.3909L0.811035 15.2521V31.023L32.0824 41.8823L69.1889 27.0352V10.4533H69.2114Z" stroke="#197B2C" stroke-linecap="square" stroke-linejoin="round"/>
</svg>
