<svg width="70" height="53" viewBox="0 0 70 53" fill="none" xmlns="http://www.w3.org/2000/svg">
<path d="M56.4554 23.9335C56.457 23.8876 56.4702 23.8428 56.4938 23.8033C56.5175 23.7639 56.5508 23.7311 56.5907 23.7082L62.9461 21.4545C62.9672 21.4444 62.9903 21.4392 63.0137 21.4392C63.0371 21.4392 63.0602 21.4444 63.0813 21.4545C63.0813 21.4545 63.0813 21.4545 63.0813 21.6573V23.1447C63.0806 23.188 63.0675 23.2301 63.0435 23.266C63.0195 23.302 62.9857 23.3303 62.9461 23.3476L56.5907 25.7816C56.5553 25.7978 56.5169 25.8062 56.478 25.8062C56.4391 25.8062 56.4006 25.7978 56.3653 25.7816C56.3529 25.7531 56.3465 25.7224 56.3465 25.6914C56.3465 25.6604 56.3529 25.6297 56.3653 25.6013L56.4554 23.9335ZM56.6808 25.8717C56.7019 25.8817 56.725 25.8869 56.7484 25.8869C56.7718 25.8869 56.7949 25.8817 56.816 25.8717L63.1039 23.4152C63.171 23.388 63.2285 23.3412 63.2687 23.2809C63.3089 23.2206 63.33 23.1496 63.3292 23.0771V21.5897C63.3311 21.5304 63.32 21.4714 63.2966 21.4169C63.2733 21.3624 63.2382 21.3137 63.194 21.2742C63.1392 21.2425 63.077 21.2259 63.0137 21.2259C62.9504 21.2259 62.8882 21.2425 62.8334 21.2742L56.478 23.6631C56.4106 23.6831 56.3519 23.725 56.3111 23.7821C56.2703 23.8393 56.2497 23.9084 56.2526 23.9786V25.5562C56.2552 25.6138 56.2707 25.67 56.298 25.7207C56.3253 25.7714 56.3637 25.8154 56.4104 25.8492L56.6808 25.8717ZM45.4123 28.2832C45.4175 28.2382 45.435 28.1955 45.4628 28.1597C45.4907 28.124 45.5277 28.0965 45.5701 28.0803L52.7819 25.3759C52.7819 25.3759 52.8946 25.3759 52.9397 25.3759C52.9847 25.3759 52.9397 25.3759 52.9397 25.5562V27.1789C52.941 27.2198 52.9283 27.26 52.9037 27.2927C52.8791 27.3255 52.8441 27.3489 52.8044 27.3592L45.5926 30.1312C45.5642 30.1551 45.5283 30.1681 45.4912 30.1681C45.4541 30.1681 45.4182 30.1551 45.3898 30.1312C45.3674 30.0655 45.3674 29.9942 45.3898 29.9284L45.4123 28.2832ZM45.6377 30.3341H45.7729L52.9847 27.5395C53.0527 27.5173 53.1125 27.4755 53.1566 27.4194C53.2008 27.3632 53.2272 27.2952 53.2326 27.2239V25.6013C53.2311 25.5379 53.2137 25.4759 53.1823 25.4208C53.1508 25.3657 53.1062 25.3193 53.0523 25.2858C52.9989 25.2628 52.9414 25.251 52.8833 25.251C52.8252 25.251 52.7677 25.2628 52.7143 25.2858L45.525 27.9902C45.4536 28.0137 45.3913 28.0589 45.3468 28.1195C45.3024 28.1801 45.278 28.2531 45.2771 28.3283V30.0185C45.2738 30.0771 45.2895 30.1351 45.3221 30.1839C45.3546 30.2326 45.4021 30.2695 45.4574 30.289C45.467 30.3151 45.4833 30.3382 45.5048 30.356C45.5262 30.3738 45.552 30.3855 45.5795 30.3901C45.607 30.3947 45.6352 30.3919 45.6612 30.3821C45.6873 30.3722 45.7102 30.3557 45.7278 30.3341H45.6377ZM33.062 33.1963C33.0595 33.1524 33.0714 33.1088 33.0957 33.0723C33.1201 33.0357 33.1557 33.008 33.1972 32.9934L41.4232 29.9058H41.6486C41.6629 29.9377 41.6703 29.9723 41.6703 30.0073C41.6703 30.0422 41.6629 30.0768 41.6486 30.1087V31.844C41.6479 31.8872 41.6348 31.9293 41.6108 31.9653C41.5868 32.0013 41.553 32.0296 41.5134 32.0469L33.2648 35.2246C33.234 35.2424 33.199 35.2518 33.1634 35.2518C33.1278 35.2518 33.0928 35.2424 33.062 35.2246C33.0496 35.1962 33.0432 35.1655 33.0432 35.1344C33.0432 35.1034 33.0496 35.0727 33.062 35.0443V33.1963ZM33.2874 35.45H33.4226L41.6486 32.2948C41.7158 32.2676 41.7732 32.2208 41.8134 32.1605C41.8536 32.1002 41.8747 32.0292 41.874 31.9567V30.2214C41.8599 30.101 41.8041 29.9893 41.7162 29.9058C41.6628 29.8829 41.6053 29.8711 41.5472 29.8711C41.4891 29.8711 41.4316 29.8829 41.3782 29.9058L33.1522 32.9934C33.0825 33.0196 33.0219 33.0655 32.9779 33.1255C32.9338 33.1856 32.9083 33.2571 32.9042 33.3315V35.157C32.9075 35.217 32.9257 35.2752 32.9572 35.3264C32.9887 35.3775 33.0325 35.42 33.0845 35.45C33.1866 35.4556 33.2882 35.4321 33.3775 35.3823L33.2874 35.45ZM62.5855 18.6824L48.7252 2.90649L54.9004 0.923232L69.0536 16.1808L62.5855 18.6824ZM68.7381 32.0469C68.89 32.3309 68.9231 32.6635 68.8302 32.9719C68.7372 33.2803 68.5258 33.5393 68.2423 33.6921L66.3041 34.6161C66.0413 34.5251 65.7556 34.5251 65.4928 34.6161V34.6161L44.601 44.1267C44.6686 43.83 44.6686 43.5219 44.601 43.2252C44.4901 42.9464 44.3097 42.7006 44.0769 42.5113C43.8442 42.3219 43.5668 42.1953 43.2713 42.1435L67.3859 31.1679C67.6903 31.0945 68.0111 31.1369 68.286 31.2869C68.5609 31.4368 68.7702 31.6836 68.8733 31.9793L68.7381 32.0469ZM67.0253 35.5852C67.1669 35.8747 67.1946 36.2068 67.1027 36.5158C67.0109 36.8247 66.8063 37.0878 66.5295 37.2529L49.9648 44.938L42.8205 48.2059C42.8791 48.0991 42.9245 47.9856 42.9558 47.8679C43.09 47.4965 43.09 47.0898 42.9558 46.7185C42.8105 46.3463 42.5499 46.0303 42.212 45.817C42.0382 45.7198 41.8466 45.6585 41.6486 45.6367L44.7587 44.2619L65.7407 34.6837C65.8752 34.6227 66.0212 34.5911 66.1689 34.5911C66.3166 34.5911 66.4626 34.6227 66.5971 34.6837C66.8804 34.8835 67.0808 35.1801 67.1605 35.5176L67.0253 35.5852ZM67.2056 37.2304C67.5193 37.1453 67.8537 37.1845 68.1391 37.3399C68.4246 37.4952 68.6392 37.7547 68.7381 38.0642C68.8387 38.3871 68.8387 38.733 68.7381 39.0559C68.6968 39.2018 68.6253 39.3373 68.5283 39.4538C68.4312 39.5703 68.3107 39.6651 68.1747 39.732L44.3981 50.7751C44.5535 50.5375 44.649 50.2658 44.6765 49.9832C44.704 49.7006 44.6626 49.4156 44.5559 49.1525C44.4083 48.7863 44.1372 48.4833 43.7896 48.2961C43.653 48.2106 43.499 48.1567 43.3389 48.1383L50.1 44.9831L67.2056 37.2304ZM43.8798 51.0005C43.5453 51.0857 43.191 51.0398 42.8893 50.8722C42.5876 50.7046 42.3615 50.428 42.2571 50.099C42.1334 49.749 42.1334 49.3672 42.2571 49.0172C42.2921 48.8592 42.3662 48.7125 42.4725 48.5905C42.5788 48.4685 42.7139 48.375 42.8656 48.3186C42.983 48.2822 43.1088 48.2822 43.2262 48.3186C43.4174 48.3214 43.6043 48.3759 43.7671 48.4764C44.0887 48.6556 44.3362 48.9431 44.4657 49.2877C44.608 49.5936 44.6265 49.9427 44.5172 50.2619C44.408 50.5812 44.1796 50.8458 43.8798 51.0005V51.0005ZM41.4909 51.2033C41.5963 51.0873 41.6735 50.9485 41.7162 50.7977C41.8503 50.4185 41.8503 50.0049 41.7162 49.6257C41.5638 49.2569 41.2946 48.9481 40.95 48.7468C40.7723 48.6427 40.5699 48.5882 40.364 48.589L40.95 48.3186C41.0472 48.4205 41.1616 48.5044 41.288 48.5665C41.4722 48.6775 41.6816 48.7395 41.8965 48.7468C42.0315 48.759 42.1672 48.759 42.3022 48.7468C42.3022 48.8595 42.3022 48.9496 42.1444 49.0849C41.9999 49.4544 41.9999 49.8647 42.1444 50.2342C42.2197 50.4605 42.3427 50.668 42.505 50.8427L41.4909 51.2033ZM40.995 51.4512C40.8532 51.5282 40.6944 51.5685 40.533 51.5685C40.3717 51.5685 40.2129 51.5282 40.071 51.4512C39.7479 51.2634 39.5007 50.9684 39.3724 50.6174C39.2503 50.2748 39.2503 49.9007 39.3724 49.5581C39.417 49.4017 39.4943 49.2565 39.5992 49.1322C39.7041 49.0079 39.8342 48.9073 39.9809 48.8369H40.3415C40.5299 48.8387 40.7152 48.8851 40.8823 48.9722C41.1992 49.1572 41.4451 49.4427 41.581 49.7835C41.7029 50.1415 41.7029 50.5298 41.581 50.8878C41.5275 51.0171 41.4478 51.1338 41.3469 51.2308C41.2461 51.3278 41.1263 51.4028 40.995 51.4512ZM39.4174 48.8595C39.0799 48.9512 38.7199 48.9085 38.4131 48.7404C38.1063 48.5723 37.8766 48.2919 37.7722 47.958C37.6386 47.6098 37.6386 47.2244 37.7722 46.8762C37.817 46.7226 37.8946 46.5806 37.9997 46.46C38.1047 46.3394 38.2348 46.243 38.3807 46.1776C38.4924 46.1563 38.6071 46.1563 38.7188 46.1776C39.0077 46.1949 39.2847 46.2987 39.5138 46.4756C39.7429 46.6524 39.9135 46.8941 40.0034 47.1692C40.1335 47.4734 40.1455 47.8151 40.0372 48.1276C39.9288 48.4402 39.7079 48.7011 39.4174 48.8595V48.8595ZM37.5243 47.6199L36.127 48.251C36.217 48.1281 36.2856 47.991 36.3299 47.8453C36.4737 47.4679 36.4737 47.0508 36.3299 46.6734C36.233 46.3943 36.0586 46.1485 35.8271 45.9649C35.5956 45.7813 35.3166 45.6675 35.0227 45.6367L36.5327 44.9606C36.5467 45.1113 36.5928 45.2574 36.6679 45.3888C36.7582 45.6514 36.9161 45.8856 37.1259 46.0676C37.3356 46.2497 37.5897 46.3731 37.8624 46.4255C37.7659 46.5477 37.6898 46.6847 37.637 46.8312C37.5529 47.0853 37.5147 47.3524 37.5243 47.6199V47.6199ZM35.6087 48.5214C35.4691 48.5927 35.3146 48.6298 35.1579 48.6298C35.0013 48.6298 34.8468 48.5927 34.7072 48.5214C34.3835 48.3317 34.1244 48.049 33.9635 47.7101C33.8141 47.3995 33.7868 47.0442 33.8869 46.7145C33.9871 46.3847 34.2075 46.1046 34.5044 45.9297C34.6312 45.9082 34.7607 45.9082 34.8875 45.9297C35.1672 45.9577 35.4336 46.0633 35.6566 46.2345C35.8795 46.4057 36.0503 46.6358 36.1496 46.8988C36.2733 47.2487 36.2733 47.6306 36.1496 47.9805C36.1008 48.1027 36.0277 48.2136 35.9348 48.3066C35.8418 48.3996 35.7308 48.4727 35.6087 48.5214V48.5214ZM33.8057 45.5916C33.9498 45.3612 34.0353 45.0991 34.055 44.8281C34.0746 44.557 34.0277 44.2853 33.9184 44.0366C33.7867 43.6553 33.5119 43.3401 33.1522 43.1576C32.9891 43.0547 32.8035 42.9929 32.6113 42.9773L34.6396 42.0758C34.6197 42.3605 34.666 42.6459 34.7748 42.9097C34.8742 43.2063 35.0607 43.4661 35.3099 43.655C35.5592 43.844 35.8597 43.9534 36.1721 43.969C36.3057 43.9983 36.4441 43.9983 36.5778 43.969L36.8933 43.8112C36.7599 43.9664 36.667 44.1522 36.6229 44.3521L33.8057 45.5916ZM33.2648 45.8621C33.1006 45.9232 32.9259 45.9514 32.7508 45.9448C32.5757 45.9382 32.4036 45.8971 32.2444 45.8238C32.0852 45.7505 31.9421 45.6465 31.8233 45.5176C31.7045 45.3888 31.6123 45.2378 31.552 45.0733C31.4184 44.725 31.4184 44.3397 31.552 43.9915C31.5929 43.8394 31.6666 43.6981 31.7678 43.5774C31.869 43.4567 31.9953 43.3596 32.138 43.2928C32.2558 43.259 32.3808 43.259 32.4986 43.2928C32.6963 43.2997 32.8895 43.3538 33.062 43.4506C33.3875 43.6249 33.6366 43.9141 33.7607 44.2619C33.8686 44.5572 33.8666 44.8816 33.7548 45.1755C33.643 45.4694 33.4291 45.7131 33.1522 45.8621H33.2648ZM42.8205 42.166C42.5335 42.3095 42.3148 42.5606 42.212 42.8646L41.0626 43.3605C41.1809 43.2416 41.2664 43.094 41.3106 42.9322C41.4551 42.5627 41.4551 42.1524 41.3106 41.7829C41.1797 41.3955 40.9055 41.0729 40.5443 40.8814C40.3782 40.7917 40.1922 40.7452 40.0034 40.7462L64.0955 29.7706C64.2287 29.705 64.3752 29.6709 64.5237 29.6709C64.6722 29.6709 64.8187 29.705 64.9519 29.7706C65.2476 29.9478 65.4772 30.2169 65.6055 30.5369C65.7064 30.7359 65.7591 30.956 65.7591 31.1792C65.7591 31.4024 65.7064 31.6224 65.6055 31.8215L42.8205 42.166ZM42.3247 44.0816C42.2082 43.7828 42.2151 43.4499 42.344 43.1561C42.4729 42.8624 42.7132 42.6319 43.0121 42.5153C43.311 42.3988 43.6439 42.4057 43.9376 42.5346C44.2314 42.6635 44.4619 42.9038 44.5784 43.2027C44.7036 43.5015 44.7426 43.8294 44.6911 44.1492L43.0459 44.8704C42.7076 44.7032 42.437 44.4247 42.2796 44.0816H42.3247ZM37.299 43.5858C37.4617 43.5344 37.6331 43.5165 37.803 43.5332C37.9728 43.5499 38.1375 43.6008 38.287 43.683C38.4366 43.7652 38.568 43.8768 38.6732 44.0112C38.7784 44.1455 38.8552 44.2998 38.8991 44.4648C39.0059 44.6741 39.0616 44.9058 39.0616 45.1409C39.0616 45.3759 39.0059 45.6076 38.8991 45.817L38.3807 46.0649C38.2371 46.1068 38.1107 46.1937 38.0202 46.3128C37.7484 46.2769 37.4916 46.1678 37.2772 45.997C37.0628 45.8263 36.899 45.6005 36.8032 45.3437C36.6361 45.0494 36.5897 44.7017 36.6738 44.3738C36.7578 44.0459 36.9658 43.7635 37.2539 43.5858H37.299ZM36.9834 41.9857C37.1459 42.2915 37.1826 42.6487 37.0858 42.9812C36.989 43.3137 36.7663 43.5953 36.4651 43.7661C36.1275 43.8578 35.7675 43.8152 35.4607 43.6471C35.154 43.479 34.9243 43.1985 34.8199 42.8646C34.6603 42.5595 34.6276 42.2036 34.7289 41.8745C34.8301 41.5453 35.0572 41.2694 35.3608 41.1067H35.7214C35.9868 41.1223 36.2424 41.2132 36.4579 41.3689C36.6735 41.5246 36.8402 41.7386 36.9384 41.9857H36.9834ZM39.4625 40.8138C39.2932 40.8762 39.1414 40.9784 39.0198 41.1118C38.8982 41.2451 38.8105 41.4057 38.7639 41.58C38.6517 41.9319 38.6517 42.3099 38.7639 42.6618L36.9384 43.5182C37.0844 43.2848 37.1729 43.02 37.1964 42.7457C37.2199 42.4714 37.1778 42.1955 37.0736 41.9406C36.9704 41.6612 36.7913 41.4161 36.5564 41.2329C36.3215 41.0498 36.0401 40.9358 35.7439 40.9039L59.8585 29.9284C60.1663 29.8431 60.4951 29.8798 60.7764 30.031C61.0577 30.1821 61.2698 30.436 61.3685 30.7397V30.7397L39.4625 40.8138ZM40.5668 43.6084C40.4254 43.6732 40.2717 43.7067 40.1161 43.7067C39.9605 43.7067 39.8068 43.6732 39.6654 43.6084C39.3539 43.4144 39.1119 43.1266 38.9742 42.7865C38.8366 42.4463 38.8103 42.0713 38.8991 41.7152C38.9319 41.5597 39.0026 41.4145 39.1048 41.2927C39.207 41.1709 39.3376 41.076 39.4851 41.0166C39.6291 40.9468 39.787 40.9105 39.9471 40.9105C40.1071 40.9105 40.2651 40.9468 40.4091 41.0166C40.7311 41.2017 40.9842 41.4864 41.1303 41.8279C41.254 42.1779 41.254 42.5597 41.1303 42.9097C41.0869 43.0575 41.0148 43.1952 40.9181 43.3151C40.8214 43.435 40.702 43.5346 40.5668 43.6084ZM42.2346 44.1492C42.2346 44.1492 42.2346 44.1492 42.2346 44.2619L39.0343 45.7494C39.2037 45.3223 39.2037 44.8467 39.0343 44.4197C38.9323 44.1415 38.753 43.8983 38.5174 43.7187C38.2818 43.539 37.9999 43.4303 37.7046 43.4055L38.8766 42.8646C39.0436 43.1803 39.2927 43.4451 39.5977 43.6309C39.7874 43.7289 39.9938 43.7901 40.2062 43.8112C40.356 43.8089 40.503 43.7702 40.6344 43.6985L42.1444 43.0224C42.0157 43.3901 42.0318 43.793 42.1895 44.1492H42.2346ZM41.5134 45.7719C41.7071 45.7871 41.8973 45.8327 42.0768 45.9071C42.389 46.1076 42.6327 46.3985 42.7755 46.741C42.8974 47.0913 42.8974 47.4725 42.7755 47.8228C42.7375 47.9762 42.665 48.1189 42.5634 48.24C42.4619 48.3611 42.334 48.4573 42.1895 48.5214C42.0436 48.5984 41.8812 48.6386 41.7162 48.6386C41.5513 48.6386 41.3888 48.5984 41.2429 48.5214C40.933 48.3384 40.6885 48.0624 40.5443 47.7326C40.4224 47.3824 40.4224 47.0011 40.5443 46.6509C40.5789 46.496 40.6502 46.3518 40.7522 46.2302C40.8542 46.1086 40.9838 46.0133 41.1303 45.9522C41.2336 45.8761 41.3475 45.8154 41.4683 45.7719H41.5134ZM41.1077 45.7719C40.9433 45.8319 40.7958 45.9309 40.678 46.0605C40.5603 46.19 40.4757 46.3462 40.4316 46.5156C40.3074 46.9041 40.3074 47.3216 40.4316 47.7101C40.5199 47.8976 40.6337 48.072 40.7697 48.2284L39.8907 48.6567C40.0559 48.4276 40.1575 48.1589 40.1852 47.8778C40.2129 47.5968 40.1657 47.3134 40.0485 47.0565C39.9551 46.7939 39.7929 46.5613 39.5788 46.3829C39.3647 46.2044 39.1066 46.0868 38.8315 46.0424V46.0424L42.2346 44.4873C42.392 44.7172 42.5907 44.9158 42.8205 45.0733L41.1077 45.7719ZM25.8276 48.0256V29.996L27.5855 32.2497L67.6113 16.8794V30.92H67.2732L65.5829 31.6637C65.7294 31.2635 65.7294 30.8244 65.5829 30.4242C65.4383 30.0818 65.1848 29.7967 64.8617 29.6129C64.7104 29.5408 64.5448 29.5034 64.3772 29.5034C64.2095 29.5034 64.044 29.5408 63.8927 29.6129L61.4587 30.7172C61.3541 30.3774 61.1219 30.0914 60.811 29.9191C60.5 29.7468 60.1344 29.7017 59.7909 29.7932V29.7932L35.2706 41.0617C35.0872 41.1524 34.9281 41.2856 34.8066 41.4503C34.6851 41.6149 34.6046 41.8062 34.572 42.0082L32.0253 43.1802C31.8565 43.2461 31.7066 43.3525 31.5887 43.4901C31.4708 43.6276 31.3885 43.7921 31.3492 43.969C31.2149 44.3403 31.2149 44.747 31.3492 45.1183C31.4358 45.3017 31.5416 45.4755 31.6647 45.6367L25.8276 48.0256ZM13.6351 14.4905L23.326 11.2677L37.3891 28.3733L27.6306 32.1145L13.6351 14.4905ZM25.6699 47.9805L20.2835 46.0424V35.3823C20.2816 34.9043 20.1278 34.4392 19.8442 34.0543C19.5606 33.6695 19.162 33.3847 18.7059 33.2413L9.21783 30.2439C9.01148 30.1837 8.79389 30.1727 8.58254 30.2119C8.37118 30.251 8.17195 30.3392 8.00083 30.4693C7.82605 30.5902 7.68339 30.7519 7.58521 30.9404C7.48703 31.1289 7.4363 31.3385 7.43741 31.5511V41.5124L2.6821 39.7996V22.6489L13.5224 14.5356L25.6924 29.8833L25.6699 47.9805ZM7.64024 41.535V31.5511C7.63658 31.358 7.67978 31.1669 7.76613 30.9942C7.85248 30.8215 7.97942 30.6723 8.13606 30.5594C8.28621 30.4316 8.46846 30.3472 8.66309 30.3154C8.85773 30.2836 9.05735 30.3057 9.24037 30.3791L18.5932 33.354C19.0212 33.4854 19.3952 33.7517 19.6593 34.1133C19.9233 34.4748 20.0632 34.9121 20.0581 35.3598V37.0501L7.64024 41.535ZM32.5662 8.29284L46.5617 24.7899L37.5469 28.2606L23.4612 11.2677L32.5662 8.29284ZM40.8598 5.54332L54.7877 21.7024L46.6744 24.7899L32.6789 8.22523L40.8598 5.54332ZM48.7252 2.95156L62.5855 18.7275L54.9004 21.6573L40.995 5.49825L48.7252 2.95156ZM69.2339 16.1808L54.968 0.810547L40.9725 5.31795L13.5224 14.4004L0.811523 23.8885L2.47926 22.6489V39.7771L7.3698 41.5124L19.8553 37.005V45.9071L25.4445 47.8679L31.552 45.3888C31.8069 45.6359 32.1439 45.7803 32.4986 45.7944C32.6405 45.8161 32.7849 45.8161 32.9268 45.7944L36.1721 44.2394C36.1486 44.3812 36.1486 44.5258 36.1721 44.6676L34.2114 45.524C33.8748 45.7015 33.622 46.0048 33.5081 46.3678C33.3941 46.7308 33.4282 47.1242 33.6029 47.4622C33.7594 47.83 34.038 48.1325 34.3917 48.3186C34.5746 48.4325 34.7848 48.4948 35.0002 48.4989C35.1348 48.5177 35.2713 48.5177 35.4059 48.4989L37.299 47.6199C37.2826 47.7018 37.2826 47.786 37.299 47.8679C37.4019 48.1579 37.5864 48.4122 37.8303 48.6C38.0741 48.7879 38.367 48.9015 38.6737 48.9271C38.8086 48.9416 38.9446 48.9416 39.0794 48.9271C38.9661 49.0584 38.8817 49.2119 38.8315 49.3778C38.6876 49.7552 38.6876 50.1724 38.8315 50.5498C38.9646 50.9176 39.2297 51.2228 39.5752 51.4062C39.7618 51.5302 39.9823 51.5932 40.2062 51.5865C40.3473 51.6177 40.4934 51.6177 40.6344 51.5865L42.167 50.8653C42.4265 51.0846 42.7515 51.2114 43.091 51.2259C43.2162 51.2616 43.3489 51.2616 43.4741 51.2259V51.2259L67.9268 39.9574C68.0768 39.8825 68.2101 39.778 68.3185 39.6502C68.427 39.5223 68.5084 39.3738 68.5578 39.2136C68.6797 38.8556 68.6797 38.4673 68.5578 38.1093C68.4487 37.7737 68.2146 37.493 67.9042 37.3251C67.5937 37.1573 67.2306 37.1153 66.8901 37.2078L66.1914 37.5459H66.3041C66.6163 37.374 66.8496 37.0876 66.9547 36.747C67.0598 36.4064 67.0286 36.0384 66.8675 35.7204C66.7241 35.3656 66.4715 35.0657 66.1464 34.864V34.864L68.0395 34.0076C68.3478 33.8319 68.5763 33.5439 68.6771 33.2036C68.7779 32.8634 68.7432 32.4974 68.5804 32.1821C68.487 31.9195 68.3248 31.6868 68.1107 31.5084C67.8966 31.33 67.6385 31.2124 67.3634 31.1679V31.1679V16.8569L68.8057 16.2935L69.2339 16.1808Z" stroke="#197B2C" stroke-linejoin="round"/>
</svg>
