<svg width="70" height="41" viewBox="0 0 70 41" fill="none" xmlns="http://www.w3.org/2000/svg">
<path d="M30.0445 8.56637L24.2038 10.4469L39.6905 21.8407L45.5312 19.6283L30.0445 8.56637ZM30.0445 8.56637L35.2215 6.86283L50.7082 17.615L45.6639 19.5619L30.0445 8.56637ZM35.3985 4.65044L52.2347 1.26549L44.248 3.85398L34.6462 4.89381L35.3985 4.65044ZM35.3985 4.65044L53.2303 1L69.2038 10.4912L68.9825 10.5354L67.0577 11.2876V23.3451L31.4162 37.969L26.6816 36.0885V33.7655L11.4604 40.0487L0.840937 34.7389M35.3985 4.65044L4.09315 14.1637L5.50908 13.9867V26.0221L0.752441 27.8142M0.752441 27.8142L11.4162 32.5929L26.6153 27.1062V28.6106L11.4825 34.562L0.840937 29.562L11.5047 34.5398L26.7038 28.9867V30.5354L11.4825 36.2655L0.840937 31.1991L11.5047 36.2434L26.7038 30.469V31.9071L11.4825 38.146L0.840937 33.0354L11.5047 38.1681L26.7259 32.0841V33.5443L11.4825 39.9159L0.840937 34.7389M0.752441 27.8142L0.840937 34.7389M57.3454 19.4956C57.3502 19.4503 57.3704 19.408 57.4026 19.3758C57.4348 19.3436 57.4771 19.3234 57.5224 19.3186L62.8985 17.3053C62.8985 17.3053 63.0091 17.3053 63.0091 17.4381V19.6504C63.0091 19.6504 63.0091 19.8053 62.8763 19.8053L57.5224 21.885C57.5224 21.885 57.5224 21.7743 57.5224 21.708L57.3454 19.4956ZM57.3454 19.4956C57.3439 19.4357 57.3598 19.3766 57.3912 19.3255C57.4226 19.2745 57.4682 19.2336 57.5224 19.208L62.6772 17.2611C62.7624 17.2266 62.8576 17.2266 62.9427 17.2611C62.9835 17.2872 63.0171 17.3232 63.0403 17.3657C63.0635 17.4082 63.0756 17.456 63.0754 17.5044V19.7168C63.0723 19.7785 63.052 19.8382 63.0169 19.889C62.9817 19.9398 62.933 19.9798 62.8763 20.0044L57.5224 22.0619L57.456 21.9735C57.4188 21.9403 57.3896 21.8993 57.3704 21.8533C57.3513 21.8074 57.3427 21.7577 57.3454 21.708V19.4956ZM64.9339 12.1062L49.248 2.43805L53.0976 1.11062L68.9604 10.5354L64.9339 12.1062ZM67.1462 23.3009L31.571 37.8363V23.323L33.1861 24.5619L67.1462 11.2876V23.3009ZM17.8321 12.4602L23.9383 10.5354L39.425 21.9292L33.1861 24.3628L17.8321 12.4602ZM31.4825 37.8363L26.8586 36.0443V25.9336C26.8659 25.5278 26.74 25.1307 26.5003 24.8031C26.2606 24.4755 25.9202 24.2354 25.5312 24.1195L11.0622 18.1681C10.8878 18.1087 10.7014 18.0938 10.5198 18.1247C10.3382 18.1556 10.1672 18.2314 10.0224 18.3451C9.86893 18.4511 9.74416 18.5935 9.65923 18.7595C9.57429 18.9255 9.53182 19.11 9.53563 19.2965V24.5619L5.68607 26.0443V14.0752L17.6993 12.5266L31.4604 23.2345L31.4825 37.8363ZM9.62412 24.5619V19.2965C9.61433 19.1207 9.64934 18.9453 9.72587 18.7867C9.8024 18.6281 9.91794 18.4916 10.0617 18.3899C10.2054 18.2882 10.3726 18.2246 10.5476 18.2052C10.7226 18.1857 10.8996 18.2111 11.0622 18.2788L18.3188 21.2876L9.62412 24.5619ZM11.4825 32.6593L0.97368 27.9912L18.4737 21.354L25.4206 24.1858C25.7887 24.3091 26.1097 24.5433 26.3394 24.8562C26.5692 25.1691 26.6964 25.5455 26.7038 25.9336V27.1947L11.4825 32.6593ZM4.84536 14.031L10.6861 12.2389L23.4294 10.5575L17.6993 12.3938L4.84536 14.031ZM17.4117 10.1814L29.3365 8.65487L23.9383 10.4027L11.2392 12.0841L17.4117 10.1814ZM24.4693 7.96903L34.7126 6.86283L29.9117 8.38938L18.0533 9.91593L24.4693 7.96903ZM30.0002 6.26549L39.602 5.29204L35.1772 6.70797L24.9781 7.81416L30.0002 6.26549ZM34.1595 4.9823L43.7834 3.94248L40.1108 5.13717L30.5312 6.11062L34.1595 4.9823ZM44.4471 3.85398L49.1153 2.43805L64.8011 12.1726L60.3763 13.9204L44.4471 3.85398ZM40.2436 5.20354L44.248 3.9646L60.0887 13.9646L55.9073 15.5796L40.2436 5.20354ZM35.3985 6.86283L40.1551 5.31416L55.8409 15.7124L50.8852 17.5708L35.3985 6.86283ZM48.0976 23.1903C48.0949 23.1529 48.1041 23.1155 48.124 23.0837C48.1439 23.0519 48.1734 23.0272 48.2082 23.0133L54.2923 20.8009H54.4029C54.4146 20.825 54.4207 20.8515 54.4207 20.8783C54.4207 20.9052 54.4146 20.9316 54.4029 20.9558V23.2788C54.4029 23.2788 54.4029 23.4115 54.2923 23.4558L48.2082 25.8009C48.1773 25.8164 48.1432 25.8246 48.1086 25.8246C48.0741 25.8246 48.04 25.8164 48.0091 25.8009C48.0091 25.8009 48.0091 25.8009 48.0091 25.646L48.0976 23.1903ZM48.2967 25.8673L54.3808 23.5221C54.4409 23.5027 54.4931 23.4641 54.5291 23.4121C54.5651 23.3601 54.5829 23.2977 54.5799 23.2345V20.8894C54.6086 20.8108 54.6086 20.7246 54.5799 20.646C54.5309 20.6253 54.4782 20.6147 54.425 20.6147C54.3718 20.6147 54.3191 20.6253 54.2701 20.646L48.1861 22.8584C48.13 22.8816 48.0827 22.9218 48.0509 22.9735C48.0191 23.0252 48.0045 23.0855 48.0091 23.146V25.5133C48.0082 25.5595 48.0176 25.6054 48.0368 25.6475C48.0559 25.6896 48.0843 25.7269 48.1197 25.7566C48.1696 25.8175 48.2408 25.857 48.3188 25.8673H48.2967ZM37.6108 27.3496C37.5953 27.3227 37.5871 27.2921 37.5871 27.2611C37.5871 27.23 37.5953 27.1995 37.6108 27.1726L44.7347 24.5619H44.9339C44.9442 24.5865 44.9495 24.6128 44.9495 24.6394C44.9495 24.666 44.9442 24.6923 44.9339 24.7168V27.1283C44.9339 27.1283 44.9339 27.2611 44.8011 27.3274L37.8763 30.0044C37.8494 30.02 37.8189 30.0281 37.7878 30.0281C37.7568 30.0281 37.7263 30.02 37.6993 30.0044C37.6877 29.9842 37.6816 29.9614 37.6816 29.9381C37.6816 29.9148 37.6877 29.8919 37.6993 29.8717L37.6108 27.3496ZM37.81 30.1372L44.779 27.4159C44.835 27.3928 44.8824 27.3525 44.9141 27.3008C44.9459 27.2492 44.9606 27.1888 44.956 27.1283V24.7168C44.9543 24.6687 44.9414 24.6217 44.9184 24.5795C44.8953 24.5372 44.8627 24.5009 44.8232 24.4735C44.7822 24.4521 44.7367 24.441 44.6905 24.441C44.6443 24.441 44.5987 24.4521 44.5577 24.4735L37.6108 27.0841C37.5525 27.1064 37.5023 27.1458 37.4668 27.1971C37.4313 27.2484 37.4121 27.3093 37.4117 27.3717V29.8717C37.415 29.9194 37.4286 29.9659 37.4515 30.0079C37.4744 30.0499 37.5061 30.0865 37.5445 30.115C37.5867 30.1602 37.6444 30.1875 37.706 30.1916C37.7677 30.1958 37.8285 30.1763 37.8763 30.1372H37.81Z" stroke="#197B2C" stroke-linejoin="round"/>
</svg>
