<svg width="70" height="43" viewBox="0 0 70 43" fill="none" xmlns="http://www.w3.org/2000/svg">
<path d="M34.4485 37.8812L34.0197 38.1385C34.1463 38.3493 34.4073 38.4369 34.6354 38.345L34.4485 37.8812ZM66.4182 24.9942L66.6052 25.4579C66.8609 25.3548 66.9849 25.0641 66.8823 24.8081C66.7797 24.5522 66.4892 24.4276 66.233 24.5298L66.4182 24.9942ZM34.3809 37.7686L34.1957 37.3041C34.0595 37.3584 33.954 37.4698 33.9071 37.6087C33.8603 37.7476 33.8767 37.9001 33.9521 38.0258L34.3809 37.7686ZM59.8755 10.0086C60.135 9.91402 60.2687 9.62704 60.1741 9.36759C60.0796 9.10814 59.7926 8.97446 59.5332 9.069L59.8755 10.0086ZM54.2161 11.0066C53.9567 11.1011 53.823 11.3881 53.9175 11.6475C54.0121 11.907 54.2991 12.0407 54.5585 11.9461L54.2161 11.0066ZM54.4099 10.5526H53.9099C53.9099 10.7178 53.9914 10.8723 54.1278 10.9655C54.2643 11.0587 54.4379 11.0785 54.5917 11.0184L54.4099 10.5526ZM59.6593 8.50241L59.8412 8.96815C60.0981 8.86783 60.2252 8.57845 60.1254 8.32138C60.0255 8.06432 59.7364 7.93663 59.4791 8.036L59.6593 8.50241ZM54.4099 10.5301L54.2297 10.0637C54.0369 10.1381 53.9099 10.3235 53.9099 10.5301H54.4099ZM64.323 15.6444L64.142 15.1782C63.9497 15.2529 63.823 15.438 63.823 15.6444H64.323ZM66.238 14.9009H66.738C66.738 14.7359 66.6566 14.5815 66.5204 14.4883C66.3842 14.3951 66.2109 14.375 66.057 14.4348L66.238 14.9009ZM66.238 21.6598L66.4189 22.1259C66.6113 22.0512 66.738 21.8661 66.738 21.6598H66.238ZM64.323 22.4033H63.823C63.823 22.5683 63.9044 22.7227 64.0405 22.8159C64.1767 22.9091 64.3501 22.9291 64.5039 22.8694L64.323 22.4033ZM64.323 22.5159L64.139 22.051C63.9158 22.1393 63.7868 22.3738 63.8318 22.6096C63.8767 22.8453 64.0829 23.0159 64.323 23.0159V22.5159ZM66.3732 21.7049L66.5571 22.1698C66.7479 22.0943 66.8732 21.91 66.8732 21.7049H66.3732ZM66.3732 14.9459H66.8732C66.8732 14.7809 66.7917 14.6264 66.6555 14.5332C66.5192 14.4401 66.3458 14.4201 66.1919 14.4799L66.3732 14.9459ZM64.3455 15.7345L64.1643 15.2685C63.9721 15.3432 63.8455 15.5283 63.8455 15.7345H64.3455ZM64.3455 22.5159V23.0159C64.6216 23.0159 64.8455 22.7921 64.8455 22.5159H64.3455ZM50.8051 21.1867L50.632 20.7176C50.4367 20.7897 50.3065 20.9752 50.3051 21.1834L50.8051 21.1867ZM52.6976 20.4883H53.1976C53.1976 20.3247 53.1176 20.1715 52.9835 20.078C52.8493 19.9845 52.6779 19.9626 52.5245 20.0192L52.6976 20.4883ZM52.6976 27.2472L52.8767 27.714C53.07 27.6398 53.1976 27.4542 53.1976 27.2472H52.6976ZM50.76 27.9907L50.26 27.9874C50.2589 28.1526 50.3396 28.3077 50.4754 28.4018C50.6113 28.4958 50.7849 28.5167 50.9392 28.4575L50.76 27.9907ZM50.8051 27.9456L50.3307 27.7875C50.2693 27.9719 50.3202 28.1751 50.4614 28.3087C50.6025 28.4423 50.8083 28.482 50.989 28.4105L50.8051 27.9456ZM52.8553 27.1345L53.0392 27.5995C53.23 27.524 53.3553 27.3397 53.3553 27.1345H52.8553ZM52.8553 20.3305H53.3553C53.3553 20.1655 53.2738 20.0111 53.1376 19.9179C53.0014 19.8247 52.8279 19.8047 52.6741 19.8645L52.8553 20.3305ZM50.8276 21.1191L50.6464 20.6531C50.4542 20.7278 50.3276 20.9129 50.3276 21.1191H50.8276ZM50.8276 27.878L51.302 28.0361C51.319 27.9851 51.3276 27.9318 51.3276 27.878H50.8276ZM45.8711 23.0116L45.6901 22.5455C45.4978 22.6201 45.3711 22.8053 45.3711 23.0116H45.8711ZM47.7861 22.2681H48.2861C48.2861 22.1031 48.2047 21.9487 48.0685 21.8555C47.9324 21.7623 47.759 21.7423 47.6051 21.802L47.7861 22.2681ZM47.7861 29.027L47.9671 29.4931C48.1594 29.4185 48.2861 29.2333 48.2861 29.027H47.7861ZM47.9213 28.982L48.1008 29.4486C48.2939 29.3744 48.4213 29.1889 48.4213 28.982H47.9213ZM47.9213 22.223H48.4213C48.4213 22.0592 48.341 21.9057 48.2063 21.8123C48.0717 21.7188 47.8998 21.6973 47.7463 21.7547L47.9213 22.223ZM45.8711 22.9891L45.6961 22.5207C45.5006 22.5937 45.3711 22.7804 45.3711 22.9891H45.8711ZM45.3711 29.9057C45.3711 30.1818 45.5949 30.4057 45.8711 30.4057C46.1472 30.4057 46.3711 30.1818 46.3711 29.9057H45.3711ZM41.0046 24.9717L40.8229 24.5059C40.631 24.5808 40.5046 24.7657 40.5046 24.9717H41.0046ZM42.8521 24.2507H43.3521C43.3521 24.0856 43.2705 23.931 43.1341 23.8379C42.9978 23.7447 42.8242 23.7249 42.6703 23.7849L42.8521 24.2507ZM42.8521 31.0097L43.0387 31.4735C43.2281 31.3973 43.3521 31.2137 43.3521 31.0097H42.8521ZM41.0046 31.7531H40.5046C40.5046 31.9192 40.5871 32.0745 40.7248 32.1675C40.8624 32.2604 41.0372 32.279 41.1913 32.217L41.0046 31.7531ZM41.0046 31.8883L41.0544 32.3858C41.1023 32.381 41.1493 32.3693 41.194 32.3511L41.0046 31.8883ZM42.9873 31.0772L43.1766 31.54C43.3645 31.4631 43.4873 31.2803 43.4873 31.0772H42.9873ZM42.9873 24.3183H43.4873C43.4873 24.1598 43.4121 24.0106 43.2846 23.9163C43.1571 23.822 42.9925 23.7938 42.8409 23.8402L42.9873 24.3183ZM40.7793 24.9942L40.633 24.5161C40.4228 24.5804 40.2793 24.7744 40.2793 24.9942H40.7793ZM40.7793 31.9108H40.2793C40.2793 32.0521 40.3391 32.1868 40.4438 32.2816C40.5486 32.3764 40.6885 32.4224 40.8291 32.4084L40.7793 31.9108ZM35.7327 27.1571L35.5633 26.6866C35.3649 26.758 35.2327 26.9462 35.2327 27.1571H35.7327ZM37.9856 26.346H38.4856C38.4856 26.1832 38.4064 26.0305 38.2732 25.9369C38.1399 25.8433 37.9695 25.8204 37.8163 25.8755L37.9856 26.346ZM37.9856 33.1049L38.1633 33.5723C38.3573 33.4986 38.4856 33.3125 38.4856 33.1049H37.9856ZM35.7327 33.9611H35.2327C35.2327 34.1254 35.3135 34.2793 35.4488 34.3726C35.5841 34.466 35.7566 34.4868 35.9103 34.4284L35.7327 33.9611ZM35.7327 34.1188L35.543 33.6561C35.3553 33.7331 35.2327 33.9159 35.2327 34.1188H35.7327ZM37.9856 33.195L38.1753 33.6577C38.363 33.5807 38.4856 33.3979 38.4856 33.195H37.9856ZM37.9856 26.3911H38.4856C38.4856 26.2267 38.4049 26.0728 38.2695 25.9795C38.1342 25.8861 37.9617 25.8653 37.808 25.9237L37.9856 26.3911ZM35.7327 27.2472L35.5551 26.7798C35.361 26.8535 35.2327 27.0396 35.2327 27.2472H35.7327ZM35.2327 34.2089C35.2327 34.485 35.4565 34.7089 35.7327 34.7089C36.0088 34.7089 36.2327 34.485 36.2327 34.2089H35.2327ZM69.3696 26.8867L69.5593 27.3493C69.7499 27.2712 69.873 27.0842 69.8696 26.8783L69.3696 26.8867ZM32.173 42.1394H31.673C31.673 42.306 31.756 42.4618 31.8944 42.5546C32.0329 42.6474 32.2085 42.6652 32.3627 42.602L32.173 42.1394ZM32.173 25.8053L31.9843 25.3423C31.796 25.419 31.673 25.602 31.673 25.8053H32.173ZM69.0993 10.7554L69.5992 10.747C69.5964 10.582 69.5125 10.429 69.3747 10.3381C69.237 10.2472 69.0634 10.2301 68.9106 10.2924L69.0993 10.7554ZM32.3757 25.5124L32.2241 25.9888C32.3351 26.0242 32.455 26.0196 32.563 25.976L32.3757 25.5124ZM1.01429 15.5317L0.848229 15.0601C0.645505 15.1315 0.511078 15.3244 0.514349 15.5393C0.517621 15.7542 0.657859 15.943 0.862661 16.0082L1.01429 15.5317ZM9.01236 12.7155H9.51236C9.51236 12.5533 9.43368 12.4012 9.3013 12.3074C9.16892 12.2137 8.9993 12.19 8.8463 12.2439L9.01236 12.7155ZM9.01236 14.8333H8.51236C8.51236 15.0513 8.65365 15.2442 8.86154 15.31L9.01236 14.8333ZM31.1591 21.84L31.0083 22.3167C31.1175 22.3513 31.2352 22.3473 31.3417 22.3055L31.1591 21.84ZM60.966 10.1471L61.1486 10.6126C61.3401 10.5374 61.466 10.3528 61.466 10.1471H60.966ZM60.966 8.34471L61.1091 7.86561C60.9577 7.82042 60.7939 7.84939 60.6673 7.94375C60.5406 8.03811 60.466 8.18677 60.466 8.34471H60.966ZM68.9641 10.7329L69.1514 11.1965C69.3483 11.1169 69.4735 10.9216 69.4635 10.7094C69.4536 10.4973 69.3107 10.3145 69.1071 10.2538L68.9641 10.7329ZM32.3757 41.9366L32.2122 42.4091C32.3643 42.4618 32.5325 42.4379 32.664 42.3451C32.7956 42.2523 32.8744 42.1018 32.8757 41.9408L32.3757 41.9366ZM24.1749 39.0978H23.6749C23.6749 39.3109 23.81 39.5006 24.0113 39.5703L24.1749 39.0978ZM24.1749 30.8519H24.6749C24.6749 30.6374 24.538 30.4468 24.3348 30.3782L24.1749 30.8519ZM7.95346 25.3772L8.11335 24.9035C7.96076 24.852 7.7927 24.8771 7.66187 24.971C7.53104 25.065 7.45346 25.2162 7.45346 25.3772H7.95346ZM7.95346 33.6907L7.79196 34.1639C7.94466 34.216 8.11313 34.1912 8.24436 34.0974C8.3756 34.0035 8.45346 33.8521 8.45346 33.6907H7.95346ZM1.35224 31.4377H0.852238C0.852238 31.6516 0.988302 31.8418 1.19074 31.9109L1.35224 31.4377ZM1.35224 15.6669L1.50788 15.1917C1.35558 15.1418 1.18859 15.168 1.05883 15.262C0.92906 15.3561 0.852238 15.5066 0.852238 15.6669H1.35224ZM32.5109 25.8729L33.0109 25.8771C33.0127 25.6594 32.8735 25.4655 32.6666 25.3977L32.5109 25.8729ZM24.0397 39.0528L23.884 39.5279C24.0397 39.579 24.2106 39.5504 24.3414 39.4515C24.4721 39.3526 24.5461 39.1959 24.5393 39.0321L24.0397 39.0528ZM7.61552 33.6682H7.11552C7.11552 33.8843 7.25438 34.076 7.45975 34.1433L7.61552 33.6682ZM7.61552 25.4448L7.77542 24.9711C7.62282 24.9196 7.45476 24.9447 7.32393 25.0386C7.19309 25.1326 7.11552 25.2837 7.11552 25.4448H7.61552ZM23.7018 30.8745L24.2013 30.8538C24.1928 30.6471 24.0578 30.4669 23.8617 30.4007L23.7018 30.8745ZM9.14754 11.7467L9.28878 11.2671C9.13759 11.2225 8.97427 11.2519 8.84806 11.3463C8.72185 11.4407 8.64754 11.5891 8.64754 11.7467H9.14754ZM31.1817 18.2353H31.6817C31.6817 18.0135 31.5356 17.8183 31.3229 17.7556L31.1817 18.2353ZM31.1817 21.7499L31.0306 22.2265C31.1825 22.2747 31.3484 22.2475 31.477 22.1534C31.6056 22.0592 31.6817 21.9093 31.6817 21.7499H31.1817ZM9.14754 14.7657H8.64754C8.64754 14.9836 8.78871 15.1765 8.99646 15.2423L9.14754 14.7657ZM60.8308 6.97039H61.3308C61.3308 6.74769 61.1836 6.55184 60.9696 6.49003L60.8308 6.97039ZM60.8308 10.057L61.0149 10.5219C61.2056 10.4464 61.3308 10.2621 61.3308 10.057H60.8308ZM31.2943 21.7499H30.7943C30.7943 21.9155 30.8763 22.0704 31.0133 22.1635C31.1502 22.2565 31.3244 22.2758 31.4784 22.2148L31.2943 21.7499ZM31.2943 18.2353L31.1161 17.7681C30.9223 17.842 30.7943 18.0279 30.7943 18.2353H31.2943ZM40.554 1.11265L40.6928 0.632292C40.5949 0.603993 40.4906 0.606319 40.394 0.63896L40.554 1.11265ZM31.2492 18.2353L31.1063 18.7144C31.2116 18.7458 31.3244 18.7417 31.4272 18.7025L31.2492 18.2353ZM9.28272 11.6791L9.12266 11.2054C8.91636 11.2751 8.7789 11.4703 8.7828 11.6881C8.7867 11.9058 8.93106 12.096 9.13972 12.1582L9.28272 11.6791ZM69.2119 10.6653V11.1653C69.4597 11.1653 69.67 10.9839 69.7065 10.7388C69.7429 10.4938 69.5944 10.259 69.3574 10.1869L69.2119 10.6653ZM60.9885 8.16447H60.4885C60.4885 8.38458 60.6325 8.57879 60.8431 8.64284L60.9885 8.16447ZM60.9885 6.83521H61.4885C61.4885 6.61194 61.3405 6.41573 61.1258 6.35443L60.9885 6.83521ZM40.554 1L40.6913 0.519218C40.594 0.491426 40.4905 0.493826 40.3946 0.5261L40.554 1ZM9.01236 11.6115L8.85293 11.1376C8.64943 11.2061 8.51236 11.3968 8.51236 11.6115H9.01236ZM9.01236 12.6028L9.17707 13.0749C9.37786 13.0049 9.51236 12.8155 9.51236 12.6028H9.01236ZM0.811523 15.4641L0.646811 14.992C0.446029 15.0621 0.311523 15.2515 0.311523 15.4641H0.811523ZM0.811523 31.235H0.311523C0.311523 31.4479 0.446363 31.6374 0.647501 31.7073L0.811523 31.235ZM32.0828 42.0943L31.9188 42.5666C32.0326 42.6061 32.1568 42.6033 32.2686 42.5585L32.0828 42.0943ZM69.1894 27.2472L69.3751 27.7114C69.5649 27.6355 69.6894 27.4516 69.6894 27.2472H69.1894ZM69.1894 10.6653V10.1653C68.9132 10.1653 68.6894 10.3891 68.6894 10.6653H69.1894ZM34.6354 38.345L66.6052 25.4579L66.2313 24.5305L34.2615 37.4175L34.6354 38.345ZM66.233 24.5298L34.1957 37.3041L34.5661 38.233L66.6034 25.4586L66.233 24.5298ZM33.9521 38.0258L34.0197 38.1385L34.8772 37.624L34.8096 37.5113L33.9521 38.0258ZM59.5332 9.069L54.2161 11.0066L54.5585 11.9461L59.8755 10.0086L59.5332 9.069ZM54.5917 11.0184L59.8412 8.96815L59.4774 8.03667L54.228 10.0869L54.5917 11.0184ZM59.4791 8.036L54.2297 10.0637L54.59 10.9965L59.8395 8.96883L59.4791 8.036ZM53.9099 10.5301V10.5526H54.9099V10.5301H53.9099ZM64.5039 16.1105L66.4189 15.367L66.057 14.4348L64.142 15.1782L64.5039 16.1105ZM65.738 14.9009V21.6598H66.738V14.9009H65.738ZM66.057 21.1937L64.142 21.9372L64.5039 22.8694L66.4189 22.1259L66.057 21.1937ZM64.823 22.4033V15.6444H63.823V22.4033H64.823ZM64.5069 22.9809L66.5571 22.1698L66.1892 21.2399L64.139 22.051L64.5069 22.9809ZM66.8732 21.7049V14.9459H65.8732V21.7049H66.8732ZM66.1919 14.4799L64.1643 15.2685L64.5267 16.2005L66.5544 15.4119L66.1919 14.4799ZM63.8455 15.7345V22.5159H64.8455V15.7345H63.8455ZM64.3455 22.0159H64.323V23.0159H64.3455V22.0159ZM50.9782 21.6558L52.8707 20.9573L52.5245 20.0192L50.632 20.7176L50.9782 21.6558ZM52.1976 20.4883V27.2472H53.1976V20.4883H52.1976ZM52.5185 26.7804L50.5809 27.5239L50.9392 28.4575L52.8767 27.714L52.5185 26.7804ZM51.26 27.994L51.3051 21.19L50.3051 21.1834L50.26 27.9874L51.26 27.994ZM50.989 28.4105L53.0392 27.5995L52.6714 26.6696L50.6212 27.4807L50.989 28.4105ZM53.3553 27.1345V20.3305H52.3553V27.1345H53.3553ZM52.6741 19.8645L50.6464 20.6531L51.0088 21.5851L53.0365 20.7965L52.6741 19.8645ZM50.3276 21.1191V27.878H51.3276V21.1191H50.3276ZM50.3533 27.7199L50.3307 27.7875L51.2794 28.1037L51.302 28.0361L50.3533 27.7199ZM46.052 23.4777L47.9671 22.7342L47.6051 21.802L45.6901 22.5455L46.052 23.4777ZM47.2861 22.2681V29.027H48.2861V22.2681H47.2861ZM47.6051 28.5609L45.6901 29.3044L46.052 30.2366L47.9671 29.4931L47.6051 28.5609ZM46.3711 29.7705V23.0116H45.3711V29.7705H46.3711ZM46.0506 30.2372L48.1008 29.4486L47.7418 28.5153L45.6916 29.3038L46.0506 30.2372ZM48.4213 28.982V22.223H47.4213V28.982H48.4213ZM47.7463 21.7547L45.6961 22.5207L46.0461 23.4574L48.0963 22.6914L47.7463 21.7547ZM45.3711 22.9891V29.9057H46.3711V22.9891H45.3711ZM46.3711 29.9057V29.7705H45.3711V29.9057H46.3711ZM41.1864 25.4375L43.0339 24.7165L42.6703 23.7849L40.8229 24.5059L41.1864 25.4375ZM42.3521 24.2507V31.0097H43.3521V24.2507H42.3521ZM42.6654 30.5458L40.818 31.2893L41.1913 32.217L43.0387 31.4735L42.6654 30.5458ZM41.5046 31.7531V24.9717H40.5046V31.7531H41.5046ZM41.194 32.3511L43.1766 31.54L42.7979 30.6145L40.8153 31.4255L41.194 32.3511ZM43.4873 31.0772V24.3183H42.4873V31.0772H43.4873ZM42.8409 23.8402L40.633 24.5161L40.9257 25.4723L43.1336 24.7964L42.8409 23.8402ZM40.2793 24.9942V31.9108H41.2793V24.9942H40.2793ZM40.8291 32.4084L41.0544 32.3858L40.9549 31.3908L40.7296 31.4133L40.8291 32.4084ZM35.902 27.6275L38.155 26.8164L37.8163 25.8755L35.5633 26.6866L35.902 27.6275ZM37.4856 26.346V33.1049H38.4856V26.346H37.4856ZM37.808 32.6375L35.5551 33.4937L35.9103 34.4284L38.1633 33.5723L37.808 32.6375ZM36.2327 33.9611V27.1571H35.2327V33.9611H36.2327ZM35.9224 34.5814L38.1753 33.6577L37.796 32.7324L35.543 33.6561L35.9224 34.5814ZM38.4856 33.195V26.3911H37.4856V33.195H38.4856ZM37.808 25.9237L35.5551 26.7798L35.9103 27.7146L38.1633 26.8584L37.808 25.9237ZM35.2327 27.2472V34.2089H36.2327V27.2472H35.2327ZM36.2327 34.2089V34.1188H35.2327V34.2089H36.2327ZM69.1799 26.4241L31.9833 41.6767L32.3627 42.602L69.5593 27.3493L69.1799 26.4241ZM32.673 42.1394V25.8053H31.673V42.1394H32.673ZM32.3617 26.2683L69.288 11.2184L68.9106 10.2924L31.9843 25.3423L32.3617 26.2683ZM68.5993 10.7638L68.8697 26.8951L69.8696 26.8783L69.5992 10.747L68.5993 10.7638ZM32.5274 25.0359L1.16592 15.0552L0.862661 16.0082L32.2241 25.9888L32.5274 25.0359ZM1.18035 16.0033L9.17842 13.1871L8.8463 12.2439L0.848229 15.0601L1.18035 16.0033ZM8.51236 12.7155V14.8333H9.51236V12.7155H8.51236ZM8.86154 15.31L31.0083 22.3167L31.31 21.3633L9.16318 14.3566L8.86154 15.31ZM31.3417 22.3055L61.1486 10.6126L60.7834 9.68162L30.9765 21.3746L31.3417 22.3055ZM61.466 10.1471V8.34471H60.466V10.1471H61.466ZM60.823 8.8238L68.821 11.212L69.1071 10.2538L61.1091 7.86561L60.823 8.8238ZM68.7768 10.2693L32.1885 25.0488L32.563 25.976L69.1514 11.1965L68.7768 10.2693ZM32.5393 41.4641L24.3385 38.6254L24.0113 39.5703L32.2122 42.4091L32.5393 41.4641ZM24.6749 39.0978V30.8519H23.6749V39.0978H24.6749ZM24.3348 30.3782L8.11335 24.9035L7.79357 25.851L24.015 31.3257L24.3348 30.3782ZM7.45346 25.3772V33.6907H8.45346V25.3772H7.45346ZM8.11496 33.2175L1.51374 30.9645L1.19074 31.9109L7.79196 34.1639L8.11496 33.2175ZM1.85224 31.4377V15.6669H0.852238V31.4377H1.85224ZM1.1966 16.142L32.3553 26.348L32.6666 25.3977L1.50788 15.1917L1.1966 16.142ZM32.0109 25.8687L31.8758 41.9324L32.8757 41.9408L33.0109 25.8771L32.0109 25.8687ZM24.1955 38.5777L7.77128 33.1931L7.45975 34.1433L23.884 39.5279L24.1955 38.5777ZM8.11552 33.6682V25.4448H7.11552V33.6682H8.11552ZM7.45561 25.9185L23.5419 31.3482L23.8617 30.4007L7.77542 24.9711L7.45561 25.9185ZM23.2022 30.8951L23.5401 39.0734L24.5393 39.0321L24.2013 30.8538L23.2022 30.8951ZM9.0063 12.2263L31.0404 18.7149L31.3229 17.7556L9.28878 11.2671L9.0063 12.2263ZM30.6817 18.2353V21.7499H31.6817V18.2353H30.6817ZM31.3327 21.2733L9.29862 14.2891L8.99646 15.2423L31.0306 22.2265L31.3327 21.2733ZM9.64754 14.7657V11.7467H8.64754V14.7657H9.64754ZM60.3308 6.97039V10.057H61.3308V6.97039H60.3308ZM60.6468 9.59207L31.1103 21.285L31.4784 22.2148L61.0149 10.5219L60.6468 9.59207ZM31.7943 21.7499V18.2353H30.7943V21.7499H31.7943ZM31.4725 18.7025L61.009 7.43757L60.6527 6.50321L31.1161 17.7681L31.4725 18.7025ZM40.4153 1.59301L60.6921 7.45075L60.9696 6.49003L40.6928 0.632292L40.4153 1.59301ZM60.6529 6.50312L31.0713 17.768L31.4272 18.7025L61.0088 7.43766L60.6529 6.50312ZM31.3922 17.7562L9.42572 11.2L9.13972 12.1582L31.1063 18.7144L31.3922 17.7562ZM9.44278 12.1528L40.7141 1.58634L40.394 0.63896L9.12266 11.2054L9.44278 12.1528ZM69.3574 10.1869L61.134 7.6861L60.8431 8.64284L69.0664 11.1436L69.3574 10.1869ZM61.4885 8.16447V6.83521H60.4885V8.16447H61.4885ZM61.1258 6.35443L40.6913 0.519218L40.4168 1.48078L60.8513 7.31599L61.1258 6.35443ZM40.3946 0.5261L8.85293 11.1376L9.17179 12.0854L40.7135 1.4739L40.3946 0.5261ZM8.51236 11.6115V12.6028H9.51236V11.6115H8.51236ZM8.84765 12.1307L0.646811 14.992L0.976236 15.9362L9.17707 13.0749L8.84765 12.1307ZM0.311523 15.4641V31.235H1.31152V15.4641H0.311523ZM0.647501 31.7073L31.9188 42.5666L32.2469 41.622L0.975546 30.7626L0.647501 31.7073ZM32.2686 42.5585L69.3751 27.7114L69.0036 26.783L31.8971 41.6301L32.2686 42.5585ZM69.6894 27.2472V10.6653H68.6894V27.2472H69.6894ZM69.1894 11.1653H69.2119V10.1653H69.1894V11.1653Z" fill="#197B2C"/>
</svg>
