<svg width="70" height="51" viewBox="0 0 70 51" fill="none" xmlns="http://www.w3.org/2000/svg">
<path d="M34.448 45.992L34.0192 46.2492C34.1456 46.4598 34.4061 46.5474 34.6341 46.456L34.448 45.992ZM66.4177 33.1725L66.6038 33.6366C66.8598 33.534 66.9843 33.2435 66.8822 32.9873C66.78 32.7311 66.4897 32.6061 66.2334 32.7077L66.4177 33.1725ZM34.3804 45.8793L34.1961 45.4145C34.0596 45.4686 33.9539 45.58 33.9068 45.719C33.8597 45.858 33.8761 46.0107 33.9517 46.1366L34.3804 45.8793ZM49.2159 20.3805C49.4799 20.4615 49.7596 20.3132 49.8407 20.0492C49.9217 19.7853 49.7734 19.5056 49.5095 19.4245L49.2159 20.3805ZM44.1465 17.7779C43.8825 17.6968 43.6028 17.8451 43.5218 18.1091C43.4407 18.3731 43.589 18.6528 43.853 18.7338L44.1465 17.7779ZM57.7888 18.8661L57.4353 18.5126C57.2681 18.6797 57.2409 18.941 57.3699 19.1391C57.4989 19.3371 57.749 19.4177 57.9694 19.3324L57.7888 18.8661ZM63.0833 16.8159L63.2639 17.2822C63.5212 17.1825 63.6491 16.8933 63.5498 16.6359C63.4505 16.3785 63.1614 16.2502 62.9038 16.3492L63.0833 16.8159ZM57.8114 18.8436L57.6319 18.3769C57.5666 18.402 57.5073 18.4406 57.4578 18.49L57.8114 18.8436ZM64.3901 23.7551L64.2109 23.2883C64.0176 23.3624 63.8901 23.548 63.8901 23.7551H64.3901ZM66.3276 23.0116H66.8276C66.8276 22.8469 66.7465 22.6928 66.6108 22.5995C66.4751 22.5063 66.3022 22.4858 66.1485 22.5448L66.3276 23.0116ZM66.3276 29.7705L66.5067 30.2373C66.7 30.1632 66.8276 29.9775 66.8276 29.7705H66.3276ZM64.3901 30.514H63.8901C63.8901 30.6787 63.9711 30.8328 64.1068 30.926C64.2425 31.0193 64.4154 31.0398 64.5692 30.9808L64.3901 30.514ZM50.8722 29.2974L50.6931 28.8306C50.4998 28.9047 50.3722 29.0904 50.3722 29.2974H50.8722ZM52.8098 28.5539H53.3098C53.3098 28.3892 53.2287 28.2351 53.093 28.1419C52.9573 28.0486 52.7844 28.0281 52.6306 28.0871L52.8098 28.5539ZM52.8098 35.3128L52.9889 35.7797C53.1822 35.7055 53.3098 35.5199 53.3098 35.3128H52.8098ZM50.8722 36.0563H50.3722C50.3722 36.221 50.4533 36.3751 50.589 36.4684C50.7247 36.5616 50.8976 36.5821 51.0513 36.5231L50.8722 36.0563ZM45.9382 31.0998L45.762 30.6318C45.5672 30.7052 45.4382 30.8916 45.4382 31.0998H45.9382ZM47.8532 30.3788H48.3532C48.3532 30.2147 48.2727 30.0611 48.1377 29.9677C48.0028 29.8743 47.8306 29.8531 47.677 29.9109L47.8532 30.3788ZM47.8532 37.1378L48.0342 37.6039C48.2265 37.5292 48.3532 37.3441 48.3532 37.1378H47.8532ZM45.9382 37.8812H45.4382C45.4382 38.0462 45.5196 38.2006 45.6558 38.2938C45.7919 38.387 45.9653 38.4071 46.1191 38.3473L45.9382 37.8812ZM41.0717 33.0599L40.89 32.5941C40.6981 32.669 40.5717 32.8539 40.5717 33.0599H41.0717ZM42.9192 32.3389H43.4192C43.4192 32.1737 43.3376 32.0192 43.2012 31.9261C43.0649 31.8329 42.8913 31.8131 42.7374 31.8731L42.9192 32.3389ZM42.9192 39.0978L43.1058 39.5617C43.2952 39.4855 43.4192 39.3019 43.4192 39.0978H42.9192ZM41.0717 39.8413H40.5717C40.5717 40.0074 40.6542 40.1627 40.7919 40.2557C40.9295 40.3486 41.1043 40.3672 41.2584 40.3052L41.0717 39.8413ZM35.7998 35.2453L35.6263 34.7763C35.43 34.8489 35.2998 35.036 35.2998 35.2453H35.7998ZM38.0527 34.4117H38.5527C38.5527 34.2481 38.4727 34.0948 38.3384 34.0013C38.2042 33.9078 38.0327 33.8859 37.8792 33.9427L38.0527 34.4117ZM38.0527 41.1706L38.2263 41.6395C38.4225 41.5669 38.5527 41.3798 38.5527 41.1706H38.0527ZM35.7998 42.0042H35.2998C35.2998 42.1678 35.3798 42.321 35.5141 42.4145C35.6483 42.508 35.8198 42.5299 35.9733 42.4731L35.7998 42.0042ZM69.0988 35.1777L69.2877 35.6406C69.4758 35.5638 69.5988 35.3808 69.5988 35.1777H69.0988ZM32.1725 50.2501H31.6725C31.6725 50.4166 31.7554 50.5722 31.8936 50.6651C32.0319 50.758 32.2072 50.7759 32.3614 50.713L32.1725 50.2501ZM32.1725 33.916L31.9838 33.453C31.7955 33.5297 31.6725 33.7127 31.6725 33.916H32.1725ZM69.0988 18.8661H69.5988C69.5988 18.6996 69.5159 18.5441 69.3777 18.4512C69.2396 18.3583 69.0642 18.3403 68.9101 18.4031L69.0988 18.8661ZM32.0373 50.2501L31.8746 50.7229C32.0269 50.7753 32.1951 50.7511 32.3265 50.6579C32.458 50.5647 32.5364 50.4139 32.5373 50.2528L32.0373 50.2501ZM12.9685 43.6861H12.4685C12.4685 43.8995 12.6039 44.0894 12.8057 44.1589L12.9685 43.6861ZM12.9685 35.2374H13.4685C13.4685 35.0209 13.3291 34.829 13.1232 34.762L12.9685 35.2374ZM7.5925 33.4879L7.74722 33.0125C7.59499 32.9629 7.42824 32.9893 7.2987 33.0834C7.16916 33.1774 7.0925 33.3278 7.0925 33.4879H7.5925ZM7.5925 41.7113L7.43149 42.1847C7.58416 42.2366 7.7525 42.2117 7.88361 42.1178C8.01472 42.0239 8.0925 41.8726 8.0925 41.7113H7.5925ZM0.968744 39.4583H0.468744C0.468744 39.6724 0.605047 39.8627 0.807735 39.9317L0.968744 39.4583ZM0.968744 23.6875L1.12438 23.2123C0.972082 23.1624 0.805098 23.1886 0.675332 23.2826C0.545565 23.3767 0.468744 23.5272 0.468744 23.6875H0.968744ZM32.1274 33.8935L32.6274 33.8962C32.6286 33.679 32.4895 33.4859 32.2831 33.4183L32.1274 33.8935ZM12.8558 43.641L12.6866 44.1115C12.8398 44.1666 13.0102 44.1437 13.1434 44.05C13.2766 43.9564 13.3558 43.8038 13.3558 43.641H12.8558ZM7.61503 41.7564H7.11503C7.11503 41.9673 7.24737 42.1555 7.44583 42.2269L7.61503 41.7564ZM7.61503 33.5555L7.77151 33.0806C7.61915 33.0304 7.45195 33.0564 7.32198 33.1504C7.192 33.2444 7.11503 33.3951 7.11503 33.5555H7.61503ZM12.8558 35.2825H13.3558C13.3558 35.0666 13.2173 34.8751 13.0123 34.8076L12.8558 35.2825ZM9.01187 20.691L9.17774 21.1627C9.18587 21.1598 9.19392 21.1568 9.20189 21.1535L9.01187 20.691ZM0.811035 23.5748L0.645167 23.1031C0.444981 23.1735 0.311035 23.3626 0.311035 23.5748H0.811035ZM0.811035 39.4583H0.311035C0.311035 39.6712 0.445875 39.8608 0.647012 39.9307L0.811035 39.4583ZM32.0824 50.3177L31.9183 50.79C32.0331 50.8299 32.1585 50.8266 32.271 50.7807L32.0824 50.3177ZM69.1438 35.2227L69.3324 35.6858C69.5207 35.6091 69.6438 35.426 69.6438 35.2227H69.1438ZM40.7338 1L40.8911 0.525396C40.7898 0.491801 40.6803 0.49153 40.5788 0.524624L40.7338 1ZM69.2114 10.44H69.7114C69.7114 10.2245 69.5733 10.0332 69.3688 9.96537L69.2114 10.44ZM22.2819 7.01545L22.1269 6.54007C21.9212 6.60716 21.7819 6.79902 21.7819 7.01545H22.2819ZM52.8098 24.7013L52.6617 25.1789C52.8146 25.2263 52.9809 25.1976 53.1091 25.1018C53.2373 25.006 53.3119 24.8545 53.3097 24.6945L52.8098 24.7013ZM38.4998 14.6681L38.6407 14.1884C38.4896 14.144 38.3263 14.1734 38.2002 14.2678C38.074 14.3622 37.9998 14.5106 37.9998 14.6681H38.4998ZM40.4998 15.2559H40.9998C40.9998 15.034 40.8536 14.8387 40.6407 14.7761L40.4998 15.2559ZM40.4998 19.3436L40.3588 19.8233C40.51 19.8677 40.6732 19.8383 40.7994 19.7439C40.9255 19.6495 40.9998 19.5011 40.9998 19.3436H40.4998ZM38.4998 18.7559H37.9998C37.9998 18.9777 38.1459 19.173 38.3588 19.2356L38.4998 18.7559ZM32.9998 13.0804L33.1407 12.6007C32.9896 12.5563 32.8263 12.5857 32.7002 12.6801C32.574 12.7745 32.4998 12.9229 32.4998 13.0804H32.9998ZM34.9998 13.6681H35.4998C35.4998 13.4463 35.3536 13.251 35.1407 13.1884L34.9998 13.6681ZM34.9998 17.7559L34.8588 18.2356C35.01 18.28 35.1732 18.2506 35.2994 18.1562C35.4255 18.0618 35.4998 17.9134 35.4998 17.7559H34.9998ZM32.9998 17.1681H32.4998C32.4998 17.39 32.6459 17.5853 32.8588 17.6479L32.9998 17.1681ZM26.4998 11.0804L26.6407 10.6007C26.4896 10.5563 26.3263 10.5857 26.2002 10.6801C26.074 10.7745 25.9998 10.9229 25.9998 11.0804H26.4998ZM28.4998 11.6681H28.9998C28.9998 11.4463 28.8536 11.251 28.6407 11.1884L28.4998 11.6681ZM28.4998 15.7559L28.3588 16.2356C28.51 16.28 28.6732 16.2506 28.7994 16.1562C28.9255 16.0618 28.9998 15.9134 28.9998 15.7559H28.4998ZM26.4998 15.1681H25.9998C25.9998 15.39 26.1459 15.5853 26.3588 15.6479L26.4998 15.1681ZM34.6341 46.456L66.6038 33.6366L66.2316 32.7084L34.2619 45.5279L34.6341 46.456ZM66.2334 32.7077L34.1961 45.4145L34.5647 46.3441L66.6021 33.6373L66.2334 32.7077ZM33.9517 46.1366L34.0192 46.2492L34.8767 45.7347L34.8091 45.6221L33.9517 46.1366ZM49.5095 19.4245L44.1465 17.7779L43.853 18.7338L49.2159 20.3805L49.5095 19.4245ZM57.9694 19.3324L63.2639 17.2822L62.9028 16.3496L57.6083 18.3998L57.9694 19.3324ZM62.9038 16.3492L57.6319 18.3769L57.9908 19.3103L63.2628 17.2826L62.9038 16.3492ZM57.4578 18.49L57.4353 18.5126L58.1424 19.2196L58.1649 19.1971L57.4578 18.49ZM64.5692 24.2219L66.5067 23.4784L66.1485 22.5448L64.2109 23.2883L64.5692 24.2219ZM65.8276 23.0116V29.7705H66.8276V23.0116H65.8276ZM66.1485 29.3037L64.2109 30.0472L64.5692 30.9808L66.5067 30.2373L66.1485 29.3037ZM64.8901 30.514V23.7551H63.8901V30.514H64.8901ZM51.0513 29.7642L52.9889 29.0207L52.6306 28.0871L50.6931 28.8306L51.0513 29.7642ZM52.3098 28.5539V35.3128H53.3098V28.5539H52.3098ZM52.6306 34.846L50.6931 35.5895L51.0513 36.5231L52.9889 35.7797L52.6306 34.846ZM51.3722 36.0563V29.2974H50.3722V36.0563H51.3722ZM46.1143 31.5677L48.0294 30.8468L47.677 29.9109L45.762 30.6318L46.1143 31.5677ZM47.3532 30.3788V37.1378H48.3532V30.3788H47.3532ZM47.6722 36.6716L45.7572 37.4151L46.1191 38.3473L48.0342 37.6039L47.6722 36.6716ZM46.4382 37.8812V31.0998H45.4382V37.8812H46.4382ZM41.2535 33.5257L43.1009 32.8047L42.7374 31.8731L40.89 32.5941L41.2535 33.5257ZM42.4192 32.3389V39.0978H43.4192V32.3389H42.4192ZM42.7325 38.634L40.8851 39.3775L41.2584 40.3052L43.1058 39.5617L42.7325 38.634ZM41.5717 39.8413V33.0599H40.5717V39.8413H41.5717ZM35.9733 35.7142L38.2263 34.8806L37.8792 33.9427L35.6263 34.7763L35.9733 35.7142ZM37.5527 34.4117V41.1706H38.5527V34.4117H37.5527ZM37.8792 40.7017L35.6263 41.5353L35.9733 42.4731L38.2263 41.6395L37.8792 40.7017ZM36.2998 42.0042V35.2453H35.2998V42.0042H36.2998ZM68.9098 34.7147L31.9835 49.7872L32.3614 50.713L69.2877 35.6406L68.9098 34.7147ZM32.6725 50.2501V33.916H31.6725V50.2501H32.6725ZM32.3612 34.379L69.2875 19.3291L68.9101 18.4031L31.9838 33.453L32.3612 34.379ZM68.5988 18.8661V35.1777H69.5988V18.8661H68.5988ZM32.2 49.7773L13.1312 43.2133L12.8057 44.1589L31.8746 50.7229L32.2 49.7773ZM13.4685 43.6861V35.2374H12.4685V43.6861H13.4685ZM13.1232 34.762L7.74722 33.0125L7.43777 33.9634L12.8138 35.7129L13.1232 34.762ZM7.0925 33.4879V41.7113H8.0925V33.4879H7.0925ZM7.75351 41.2379L1.12975 38.985L0.807735 39.9317L7.43149 42.1847L7.75351 41.2379ZM1.46874 39.4583V23.6875H0.468744V39.4583H1.46874ZM0.813106 24.1626L31.9718 34.3686L32.2831 33.4183L1.12438 23.2123L0.813106 24.1626ZM31.6274 33.8907L31.5373 50.2473L32.5373 50.2528L32.6274 33.8962L31.6274 33.8907ZM13.025 43.1705L7.78423 41.2859L7.44583 42.2269L12.6866 44.1115L13.025 43.1705ZM8.11503 41.7564V33.5555H7.11503V41.7564H8.11503ZM7.45854 34.0304L12.6993 35.7574L13.0123 34.8076L7.77151 33.0806L7.45854 34.0304ZM12.3558 35.2825V43.641H13.3558V35.2825H12.3558ZM22.0919 14.7763L8.82185 20.2285L9.20189 21.1535L22.4719 15.7013L22.0919 14.7763ZM8.846 20.2193L0.645167 23.1031L0.976903 24.0465L9.17774 21.1627L8.846 20.2193ZM0.311035 23.5748V39.4583H1.31104V23.5748H0.311035ZM0.647012 39.9307L31.9183 50.79L32.2464 49.8453L0.975058 38.986L0.647012 39.9307ZM32.271 50.7807L69.3324 35.6858L68.9552 34.7597L31.8938 49.8546L32.271 50.7807ZM69.6438 35.2227V18.776H68.6438V35.2227H69.6438ZM40.5765 1.4746L69.0541 10.9146L69.3688 9.96537L40.8911 0.525396L40.5765 1.4746ZM69.0403 9.97017L52.526 15.9856L52.8682 16.9252L69.3826 10.9098L69.0403 9.97017ZM52.8453 15.9779L22.4301 6.53792L22.1337 7.49298L52.5489 16.933L52.8453 15.9779ZM21.7819 7.01545V15.2388H22.7819V7.01545H21.7819ZM22.1339 15.7164L52.6617 25.1789L52.9578 24.2237L22.4299 14.7612L22.1339 15.7164ZM53.3097 24.6945L53.1971 16.4486L52.1971 16.4623L52.3098 24.7082L53.3097 24.6945ZM68.7114 10.44V18.776H69.7114V10.44H68.7114ZM22.4369 7.49083L40.8888 1.47538L40.5788 0.524624L22.1269 6.54007L22.4369 7.49083ZM38.3588 15.1479L40.3588 15.7356L40.6407 14.7761L38.6407 14.1884L38.3588 15.1479ZM39.9998 15.2559V19.3436H40.9998V15.2559H39.9998ZM40.6407 18.8639L38.6407 18.2761L38.3588 19.2356L40.3588 19.8233L40.6407 18.8639ZM38.9998 18.7559V14.6681H37.9998V18.7559H38.9998ZM32.8588 13.5601L34.8588 14.1479L35.1407 13.1884L33.1407 12.6007L32.8588 13.5601ZM34.4998 13.6681V17.7559H35.4998V13.6681H34.4998ZM35.1407 17.2761L33.1407 16.6884L32.8588 17.6479L34.8588 18.2356L35.1407 17.2761ZM33.4998 17.1681V13.0804H32.4998V17.1681H33.4998ZM26.3588 11.5601L28.3588 12.1479L28.6407 11.1884L26.6407 10.6007L26.3588 11.5601ZM27.9998 11.6681V15.7559H28.9998V11.6681H27.9998ZM28.6407 15.2761L26.6407 14.6884L26.3588 15.6479L28.3588 16.2356L28.6407 15.2761ZM26.9998 15.1681V11.0804H25.9998V15.1681H26.9998Z" fill="#197B2C"/>
</svg>
