<svg width="44" height="44" viewBox="0 0 44 44" fill="none" xmlns="http://www.w3.org/2000/svg">
<path d="M33.6084 19.1799C37.0511 17.7107 38.1709 12.6102 36.0555 7.79524C33.9404 3.02104 29.3779 0.327913 25.9354 1.8377L16.1471 5.99981C17.4328 5.959 18.7601 6.28545 20.0873 7.06075C22.0782 8.20331 23.7787 10.2028 24.8156 12.6102C25.894 15.0178 26.1843 17.5885 25.728 19.8329C25.3962 21.2611 24.7326 22.4444 23.8202 23.3419M33.6084 19.1799C31.9079 19.9145 31.9079 19.9145 31.9079 19.9145M33.6084 19.1799L31.9079 19.9145M31.9079 19.9145C31.8251 19.9145 31.7835 19.9551 31.7006 19.9551M31.7006 19.9551C23.8202 23.3419 23.8202 23.3419 23.8202 23.3419M31.7006 19.9551L23.8202 23.3419M22.0782 24.0765C23.6957 23.3419 24.8156 21.8321 25.3133 19.7512C25.7695 17.5885 25.4792 15.0993 24.4423 12.7735C23.4054 10.4476 21.7878 8.52972 19.8384 7.3872C18.6771 6.7343 17.4743 6.36707 16.3545 6.36707C15.6494 6.36707 14.9443 6.48947 14.3221 6.77511C10.8381 8.24408 9.75976 13.3447 11.875 18.1598C13.9488 22.8522 18.3453 25.5047 21.7878 24.1988M22.0782 24.0765C21.7878 24.1988 21.7878 24.1988 21.7878 24.1988M22.0782 24.0765L21.7878 24.1988M19.9629 24.9743C16.7692 24.9743 13.2438 22.3628 11.4603 18.323C11.2529 17.7924 11.087 17.262 10.9211 16.7724L6.77348 18.5269C8.05922 18.4863 9.38646 18.8128 10.7137 19.588C12.7045 20.7304 14.4051 22.7299 15.4834 25.1375C16.1471 26.6471 16.4789 28.1978 16.5204 29.7077C16.5204 29.7077 16.5204 29.6667 16.5618 29.626C17.0181 27.3816 18.3038 25.7495 20.0458 24.9743M19.9629 24.9743C20.0044 24.9743 20.0458 24.9743 20.0458 24.9743M19.9629 24.9743H20.0458M39.5396 37.7055C29.7513 41.9082 29.7513 41.9082 29.7513 41.9082M39.5396 37.7055C43.0237 36.2364 44.1019 31.1359 41.9868 26.3615C39.913 21.6282 35.5164 18.976 32.074 20.2816M39.5396 37.7055L29.7513 41.9082M29.7513 41.9082C32.074 39.6231 32.6131 35.2979 30.7882 31.1359C29.7097 28.7282 28.0092 26.7696 26.0184 25.5863C24.7474 24.82 23.436 24.4922 22.1641 24.524M32.074 20.2816L22.1641 24.524M32.074 20.2816C32.074 20.2816 32.074 20.2816 22.1641 24.524M22.1641 24.524C22.1631 24.5244 22.1621 24.5248 22.1611 24.5252H22.1196C22.1344 24.5248 22.1492 24.5244 22.1641 24.524ZM18.3453 16.5683C18.4283 16.5683 18.5112 16.5683 18.6356 16.5275C19.0919 16.3235 19.2578 15.7114 18.9675 15.0993C18.7186 14.5281 18.1379 14.2016 17.6817 14.4057C17.2254 14.6097 17.0595 15.2218 17.3084 15.8338C17.5158 16.2827 17.9305 16.5683 18.3453 16.5683ZM17.8476 14.7729C17.8891 14.7729 17.9305 14.7321 17.972 14.7321C18.1794 14.7321 18.4697 14.9769 18.5942 15.2626C18.7601 15.6298 18.6771 16.0379 18.4697 16.1603C18.2209 16.2419 17.8476 16.0379 17.7232 15.6298C17.5573 15.2626 17.5987 14.8953 17.8476 14.7729ZM23.6128 32.9312C23.1565 33.1351 22.9906 33.7474 23.281 34.3594C23.4054 34.6859 23.6542 34.9307 23.986 35.053C24.069 35.094 24.1934 35.1346 24.2764 35.1346C24.4008 35.1346 24.4838 35.094 24.5667 35.053C25.0229 34.8491 25.1889 34.2368 24.94 33.6248C24.6911 33.0535 24.1105 32.7273 23.6128 32.9312ZM24.4008 34.6859C24.3179 34.7265 24.1934 34.6859 24.1105 34.6859C23.9446 34.6043 23.7787 34.4001 23.6542 34.1962C23.4883 33.829 23.5713 33.4209 23.8202 33.2983C23.8616 33.2983 23.9031 33.2983 23.9446 33.2983C24.152 33.2983 24.4008 33.5025 24.5667 33.7881C24.7326 34.1555 24.6497 34.5633 24.4008 34.6859ZM8.30809 26.9329C7.85184 27.0961 7.68595 27.7491 7.9348 28.3611C8.18367 28.8098 8.55694 29.0957 8.9717 29.0957C9.05466 29.0957 9.17908 29.0957 9.26204 29.0547C9.71829 28.8508 9.88418 28.2385 9.63533 27.6265C9.38646 27.0552 8.76432 26.7287 8.30809 26.9329ZM9.09612 28.6876C8.84728 28.7692 8.51548 28.5243 8.34956 28.1569C8.18367 27.7897 8.2666 27.4226 8.47398 27.3C8.51548 27.3 8.55694 27.2594 8.59843 27.2594C8.84728 27.2594 9.09612 27.4633 9.22057 27.7897C9.38646 28.1569 9.345 28.565 9.09612 28.6876ZM42.4014 26.1983C40.5765 22.0769 37.0512 19.5064 33.816 19.547C37.4658 17.9149 38.6271 12.6102 36.4289 7.63202C34.2306 2.65381 29.4195 -0.120937 25.7695 1.42963C14.1562 6.40788 14.1562 6.40788 14.1562 6.40788C10.9626 7.75443 9.63534 11.9982 10.7967 16.3643C4.78263 18.935 4.78263 18.935 4.78263 18.935C1.09125 20.4855 -0.111555 25.8312 2.12815 30.85C3.91161 34.8898 7.39562 37.5013 10.5893 37.5013C11.3773 37.5013 12.0824 37.3381 12.7875 37.0526C16.8936 35.2979 16.8936 35.2979 16.8936 35.2979C17.0181 35.8283 17.184 36.3589 17.4328 36.8484C19.2163 40.8881 22.7003 43.4996 25.9354 43.4996C26.682 43.4996 27.4286 43.3774 28.0921 43.0509C39.7056 38.1133 39.7056 38.1133 39.7056 38.1133C43.3967 36.5222 44.5997 31.1765 42.4014 26.1983ZM12.6216 36.6445C9.13762 38.1543 4.61671 35.4611 2.50145 30.6868C0.386158 25.8718 1.50601 20.7713 4.94852 19.3022C5.61215 19.0167 6.27576 18.8944 6.98085 18.8944C8.14218 18.8944 9.3035 19.2615 10.5063 19.9145C12.4142 21.0569 14.0318 22.9748 15.0687 25.3008C16.1056 27.6265 16.3959 30.1158 15.9397 32.2376C15.4835 34.4001 14.2807 35.9508 12.6216 36.6445ZM14.4465 35.8692C15.359 35.0124 16.0226 33.829 16.3545 32.3599C16.3545 32.3192 16.3545 32.2782 16.3545 32.2782C16.3959 33.1351 16.5204 34.0329 16.7277 34.8898L14.4465 35.8692ZM27.9264 42.6837C24.4838 44.1526 19.9214 41.4594 17.8061 36.6854C16.7692 34.3594 16.4789 31.8701 16.9766 29.7077C17.4328 27.5858 18.5942 26.0351 20.2532 25.3008C20.9168 25.0559 21.5804 24.8927 22.2855 24.8927C23.4469 24.8927 24.6497 25.2598 25.811 25.9534C27.719 27.0552 29.3779 28.9731 30.3735 31.2991C32.4886 36.1141 31.4104 41.2146 27.9264 42.6837Z" stroke="#197B2C" stroke-miterlimit="10" stroke-linejoin="round"/>
</svg>
