<svg width="33" height="44" viewBox="0 0 33 44" fill="none" xmlns="http://www.w3.org/2000/svg">
<path d="M17.7733 0.75V0C17.5599 0 17.3566 0.0909048 17.2143 0.24995L17.7733 0.75ZM1 19.4997L0.441028 18.9996C0.318011 19.1371 0.25 19.3152 0.25 19.4997H1ZM31.6105 0.75H32.3605C32.3605 0.335786 32.0247 0 31.6105 0V0.75ZM1.00001 42.7566H0.250011C0.250011 43.1708 0.585797 43.5066 1.00001 43.5066V42.7566ZM16.814 42.7566V43.5066C17.0435 43.5066 17.2605 43.4015 17.4027 43.2212L16.814 42.7566ZM31.6105 24.0069L32.1992 24.4716C32.3037 24.3392 32.3605 24.1755 32.3605 24.0069H31.6105ZM17.2143 0.24995L0.441028 18.9996L1.55897 19.9997L18.3322 1.25005L17.2143 0.24995ZM31.6105 0H17.7733V1.5H31.6105V0ZM1.00001 43.5066H16.814V42.0066H1.00001V43.5066ZM17.4027 43.2212L32.1992 24.4716L31.0217 23.5423L16.2252 42.292L17.4027 43.2212ZM1.75001 42.7566L1.75 19.4997L0.25 19.4997L0.250011 42.7566H1.75001ZM17.564 42.7566L17.564 19.4997L16.064 19.4997L16.064 42.7566H17.564ZM32.3605 24.0069V0.75H30.8605V24.0069H32.3605ZM17.4027 19.9643L32.1992 1.21462L31.0217 0.28538L16.2252 19.0351L17.4027 19.9643ZM1 20.2497H16.814V18.7497H1V20.2497Z" fill="#197B2C"/>
</svg>
