<svg width="44" height="44" viewBox="0 0 44 44" fill="none" xmlns="http://www.w3.org/2000/svg">
<path d="M42.8031 14.605C42.8031 14.605 42.8031 14.605 24.4102 33.8264V42.4098C24.4102 42.4098 24.4102 42.4098 42.8031 23.2358M42.8031 14.605C42.8031 23.2358 42.8031 23.2358 42.8031 23.2358M42.8031 14.605V23.2358M27.3125 1.21587C35.6165 2.52356 35.6165 2.52354 35.6165 2.52354M27.3125 1.21587L8.87573 20.4847C8.87573 20.4847 8.87569 20.4847 17.1783 21.7433M27.3125 1.21587L35.6165 2.52354M35.6165 2.52354C17.1783 21.7434 17.1783 21.7433 17.1783 21.7433M35.6165 2.52354L17.1783 21.7433M17.0453 22.2092C17.0453 22.2092 17.0453 22.2092 8.60704 20.9506V29.7203C8.60704 29.7203 8.607 29.7203 17.0453 31.028M17.0453 22.2092C17.0453 31.028 17.0453 31.028 17.0453 31.028M17.0453 22.2092V31.028M17.4909 22.1161C35.8838 2.89627 35.8838 2.89623 35.8838 2.89623M17.4909 22.1161V30.7011M17.4909 22.1161L35.8838 2.89623M35.8838 2.89623C35.8838 11.527 35.8838 11.527 35.8838 11.527M35.8838 2.89623V11.527M35.8838 11.527C17.4909 30.701 17.4909 30.7011 17.4909 30.7011M35.8838 11.527L17.4909 30.7011M9.63384 31.4939C9.63384 31.4939 9.63386 31.4938 1.19692 30.2335V39.0049C1.19692 39.0049 1.19691 39.0049 9.63384 40.311M9.63384 31.4939C9.63384 40.311 9.63384 40.311 9.63384 40.311M9.63384 31.4939V40.311M10.0808 39.9841C10.0808 31.3075 10.0808 31.3075 10.0808 31.3075M10.0808 39.9841L15.0807 34.4329M10.0808 39.9841V31.3075M10.0808 31.3075C10.0808 31.1669 9.99168 31.0737 9.90119 31.0737C1.5095 29.7677 1.50954 29.7677 1.50954 29.7677C8.16147 23.5169 8.16146 23.5169 8.16146 23.5169M8.16146 23.5169C8.16146 29.9541 8.16146 29.954 8.16146 29.954M8.16146 23.5169V29.954M8.16146 29.954C8.16146 30.0472 8.25058 30.1404 8.33969 30.1878C17.2236 31.5413 17.2235 31.5413 17.2235 31.5413M17.2235 31.5413C17.2674 31.5413 17.2674 31.5413 17.2674 31.5413M17.2235 31.5413H17.2674M17.2674 31.5413C17.3126 31.5413 17.4018 31.5413 17.4018 31.4939M17.4018 31.4939C17.4018 31.4939 17.4018 31.4939 17.447 31.4939M17.4018 31.4939H17.447M17.447 31.4939C35.2587 12.8789 35.2587 12.8789 35.2587 12.8789M17.447 31.4939L35.2587 12.8789M35.2587 12.8789C42.581 14.1866 42.581 14.1865 42.581 14.1865M35.2587 12.8789L42.581 14.1865M42.581 14.1865C24.1429 33.4538 24.1428 33.4537 24.1428 33.4537M42.581 14.1865L24.1428 33.4537M24.1428 33.4537C15.348 32.1477 15.3481 32.1477 15.3481 32.1477C15.3042 32.1003 15.2137 32.1477 15.1698 32.1934C15.1246 32.2409 15.0807 32.2866 15.0807 32.3798M15.0807 32.3798C15.0807 34.4329 15.0807 34.4329 15.0807 34.4329M15.0807 32.3798V34.4329M15.5715 32.6593C23.9646 33.9196 23.9646 33.9196 23.9646 33.9196M15.5715 32.6593V41.4307M15.5715 32.6593L23.9646 33.9196M23.9646 33.9196C23.9646 42.7367 23.9646 42.7367 23.9646 42.7367M23.9646 33.9196V42.7367M23.9646 42.7367C15.5715 41.4307 15.5715 41.4307 15.5715 41.4307M23.9646 42.7367L15.5715 41.4307M43.25 14.046C43.25 13.9986 43.25 13.9528 43.2047 13.9054V13.8596H43.1609C43.1156 13.8596 43.1156 13.8122 43.0718 13.8122C35.6164 12.4604 35.6165 12.4604 35.6165 12.4604C36.2855 11.8065 36.2855 11.8066 36.2855 11.8066C36.3307 11.7608 36.3307 11.666 36.3307 11.6202C36.3307 2.33557 36.3307 2.33558 36.3307 2.33558C36.3307 2.28981 36.2855 2.24242 36.2855 2.19665V2.14921C36.2416 2.14921 36.2416 2.14921 36.2416 2.14921C36.1964 2.14921 36.1525 2.10347 36.1525 2.10347C27.2686 0.750005 27.2687 0.75 27.2687 0.75H27.2234H27.1781C27.1342 0.797404 27.089 0.79739 27.0452 0.79739C8.20531 20.4847 8.20531 20.4847 8.20531 20.4847C8.16144 20.5305 8.16146 20.5779 8.16146 20.6711C8.16146 22.8631 8.16146 22.8631 8.16146 22.8631C0.795249 29.7677 0.795269 29.7677 0.795269 29.7677C0.750027 29.8151 0.75 29.8609 0.75 29.954C0.75 39.2387 0.75 39.2386 0.75 39.2386C0.75 39.3318 0.83912 39.425 0.928233 39.4708C9.8121 40.8242 9.81208 40.8242 9.81208 40.8242H9.85735C9.90122 40.8242 9.94649 40.8242 9.99173 40.7768C9.99173 40.7311 10.0356 40.7311 10.0356 40.7311C15.0807 35.1325 15.0807 35.1325 15.0807 35.1325C15.0807 41.6644 15.0807 41.6644 15.0807 41.6644C15.0807 41.7576 15.1699 41.8508 15.3042 41.8965C24.1881 43.25 24.1881 43.25 24.1881 43.25C24.2772 43.25 24.3211 43.25 24.3663 43.2042C24.3663 43.2042 24.3663 43.2042 24.3663 43.1568C43.2048 23.5169 43.2047 23.5169 43.2047 23.5169C43.2047 23.4695 43.25 23.4238 43.25 23.3764C43.25 23.3764 43.25 23.3763 43.25 23.3289V14.046Z" stroke="#197B2C" stroke-miterlimit="10" stroke-linejoin="round"/>
</svg>
