<svg width="44" height="45" viewBox="0 0 44 45" fill="none" xmlns="http://www.w3.org/2000/svg">
<path d="M6.37975 5.60473C1.80702 8.33824 1.80702 8.33824 1.80702 8.33824C3.48818 4.81338 5.5056 1.50439 6.178 1.50439M6.37975 5.60473C6.447 5.60473 6.5815 5.60473 6.64875 5.60473M6.37975 5.60473H6.64875M6.178 1.50439C36.7749 1.50439 36.7749 1.50439 36.7749 1.50439M6.178 1.50439H36.7749M36.7749 1.50439C35.0942 3.01505 33.2783 7.33114 32.741 8.554M32.741 8.554C27.6965 5.60473 27.6965 5.60473 27.6965 5.60473M32.741 8.554L27.6965 5.60473M27.6965 5.60473C27.6301 5.60473 27.5625 5.60473 27.4949 5.60473M27.6965 5.60473H27.4949M27.4949 5.60473C22.3176 8.62592 22.3176 8.62592 22.3176 8.62592M22.3176 8.62592C17.2065 5.60473 17.2065 5.60473 17.2065 5.60473M22.3176 8.62592L17.2065 5.60473M17.2065 5.60473C17.072 5.60473 17.0048 5.60473 16.9375 5.60473M17.2065 5.60473H16.9375M16.9375 5.60473C11.7595 8.62592 11.7595 8.62592 11.7595 8.62592M16.9375 5.60473L11.7595 8.62592M11.7595 8.62592C6.64876 5.60473 6.64875 5.60473 6.64875 5.60473M11.7595 8.62592L6.64875 5.60473M6.98501 6.46788C6.447 7.90661 3.55543 15.6755 3.55543 23.6603C3.55543 28.6238 4.76584 41.1406 4.9676 43.0108H36.1023C35.9007 40.9966 34.6909 29.2713 34.6909 23.6603C34.6909 16.6107 37.0441 4.09407 37.515 1.64827C36.17 2.22374 34.1524 6.32404 33.0766 9.05755C33.0766 9.12947 33.009 9.12947 32.9426 9.20139M6.98501 6.46788C11.6923 9.20139 11.6923 9.20139 11.6923 9.20139M6.98501 6.46788L11.6923 9.20139M11.6923 9.20139C11.7595 9.20139 11.8268 9.20139 11.894 9.20139M11.6923 9.20139H11.894M11.894 9.20139C17.072 6.1802 17.072 6.1802 17.072 6.1802M11.894 9.20139L17.072 6.1802M17.072 6.1802C22.1824 9.20139 22.1824 9.20139 22.1824 9.20139M22.1824 9.20139C22.3176 9.20139 22.384 9.20139 22.4516 9.20139M22.1824 9.20139H22.4516M22.4516 9.20139C27.6301 6.1802 27.6301 6.1802 27.6301 6.1802M22.4516 9.20139L27.6301 6.1802M27.6301 6.1802C32.741 9.20139 32.741 9.20139 32.741 9.20139M27.6301 6.1802L32.741 9.20139M32.741 9.20139C32.8074 9.20139 32.875 9.20139 32.9426 9.20139M32.741 9.20139H32.9426M42.6935 39.7737C39.6665 39.558 39.6665 39.558 39.6665 39.558M42.6935 39.7737C42.7599 38.6228 42.9615 33.7312 42.9615 30.3503C42.9615 20.783 39.6001 2.87121 37.9859 1.64827C37.5826 3.73436 35.1618 16.5388 35.1618 23.6603C35.1618 28.8397 36.2376 39.414 36.5732 42.3634C37.649 40.4931 39.4649 39.6299 39.6001 39.6299L39.6665 39.558M42.6935 39.7737L39.6665 39.558M37.7842 1.00085C6.178 1.00085 6.178 1.00085 6.178 1.00085C4.76584 1.00085 1.60526 7.47498 1 8.8418C1 8.91372 1 9.05755 1.06725 9.12947C1.1345 9.20139 1.269 9.20139 1.33625 9.20139C6.51425 6.1802 6.51426 6.1802 6.51426 6.1802C6.58151 6.1802 6.58151 6.1802 6.58151 6.1802C6.0435 7.5469 3.08467 15.4598 3.08467 23.6603C3.08467 28.9835 4.49683 43.1547 4.49683 43.2986C4.49683 43.4424 4.63134 43.5144 4.76584 43.5144C36.3716 43.5144 36.3716 43.5144 36.3716 43.5144C36.4392 43.5144 36.5068 43.5144 36.5732 43.4424V43.3705C37.515 41.2844 39.3985 40.2773 39.7342 40.1335C42.8951 40.2773 42.8951 40.2773 42.8951 40.2773C43.0291 40.2773 43.1643 40.2054 43.1643 40.0615C43.1643 39.9896 43.5 34.1629 43.5 30.3503C43.5 23.3726 40.4067 1.00085 37.7842 1.00085Z" stroke="#197B2C" stroke-miterlimit="10" stroke-linejoin="round"/>
</svg>
