<svg width="44" height="44" viewBox="0 0 44 44" fill="none" xmlns="http://www.w3.org/2000/svg">
<path d="M42.8816 14.4652C42.8816 14.4652 42.8816 14.4652 22.2703 1.49949L1.61808 14.4652C1.61808 14.4652 1.61808 14.4652 22.2703 27.4735M42.8816 14.4652C22.2703 27.4735 22.2703 27.4735 22.2703 27.4735M42.8816 14.4652L22.2703 27.4735M42.8816 30.0241C22.2703 43.0324 22.2703 43.0324 22.2703 43.0324M42.8816 30.0241L37.1104 26.4107M42.8816 30.0241L22.2703 43.0324M22.2703 43.0324C1.61808 30.0241 1.61808 30.0241 1.61808 30.0241M22.2703 43.0324L1.61808 30.0241M1.61808 30.0241C7.38927 26.4107 7.38927 26.4107 7.38927 26.4107M1.61808 30.0241L7.38927 26.4107M7.38927 26.4107C22.1468 35.678 22.1468 35.678 22.1468 35.678M7.38927 26.4107L22.1468 35.678M22.1468 35.678C22.1881 35.7206 22.2294 35.7206 22.2703 35.7206C22.3116 35.7206 22.3116 35.7206 22.3529 35.678M22.3529 35.678C37.1104 26.4107 37.1104 26.4107 37.1104 26.4107M22.3529 35.678L37.1104 26.4107M1.61808 22.2447C1.61808 22.2447 1.61808 22.2447 22.2703 35.2529L42.8816 22.2447C42.8816 22.2447 42.8816 22.2447 37.1104 18.6313M1.61808 22.2447C7.38927 18.6313 7.38927 18.6313 7.38927 18.6313M1.61808 22.2447L7.38927 18.6313M7.38927 18.6313C22.1468 27.8986 22.1468 27.8986 22.1468 27.8986M7.38927 18.6313L22.1468 27.8986M22.1468 27.8986C22.1881 27.9411 22.2294 27.9411 22.2703 27.9411C22.3116 27.9411 22.3116 27.9411 22.3529 27.8986M22.3529 27.8986C37.1104 18.6313 37.1104 18.6313 37.1104 18.6313M22.3529 27.8986L37.1104 18.6313M43.5 22.2447C43.5 22.1597 43.4587 22.1172 43.4174 22.0746C37.5227 18.3762 37.5227 18.3762 37.5227 18.3762C43.4174 14.6778 43.4174 14.6778 43.4174 14.6778C43.4587 14.6353 43.5 14.5503 43.5 14.4652C43.5 14.3802 43.4587 14.3377 43.4174 14.2952C22.3529 1.03185 22.3529 1.03188 22.3529 1.03188C22.3116 0.989372 22.2294 0.989372 22.1468 1.03188C1.12355 14.2952 1.12355 14.2952 1.12355 14.2952C1.04098 14.3377 1 14.3802 1 14.4652C1 14.5503 1.04098 14.6353 1.12355 14.6778C6.97702 18.3762 6.97703 18.3762 6.97703 18.3762C1.12356 22.0747 1.12355 22.0746 1.12355 22.0746C1.04098 22.1172 1 22.1597 1 22.2447C1 22.3297 1.04098 22.4147 1.12355 22.4572C6.97702 26.1557 6.97703 26.1557 6.97703 26.1557C1.12356 29.8541 1.12355 29.8541 1.12355 29.8541C1.04098 29.8966 1 29.9391 1 30.0241C1 30.1091 1.04098 30.1942 1.12355 30.2367C22.1468 43.4575 22.1468 43.4575 22.1468 43.4575C22.1881 43.5 22.2294 43.5 22.2703 43.5C22.3116 43.5 22.3116 43.5 22.3529 43.4575C43.4174 30.2367 43.4174 30.2367 43.4174 30.2367C43.4587 30.1942 43.5 30.1091 43.5 30.0241C43.5 29.9391 43.4587 29.8966 43.4174 29.8541C37.5227 26.1557 37.5227 26.1557 37.5227 26.1557C43.4174 22.4572 43.4174 22.4572 43.4174 22.4572C43.4587 22.4147 43.5 22.3297 43.5 22.2447Z" stroke="#197B2C" stroke-miterlimit="10" stroke-linejoin="round"/>
</svg>
