<svg width="25" height="26" viewBox="0 0 25 26" fill="none" xmlns="http://www.w3.org/2000/svg">
<path fill-rule="evenodd" clip-rule="evenodd" d="M13.5543 24.487C14.1646 23.8804 14.1676 22.8939 13.561 22.2835L3.3092 11.9694C2.70256 11.359 1.71603 11.356 1.1057 11.9627C0.495375 12.5693 0.492382 13.5558 1.09902 14.1662L11.3508 24.4804C11.9574 25.0907 12.944 25.0937 13.5543 24.487Z" fill="#C4C4C4"/>
<path fill-rule="evenodd" clip-rule="evenodd" d="M1.09841 14.1651C1.70504 14.7755 2.69158 14.7785 3.3019 14.1718L13.6161 3.92004C14.2264 3.3134 14.2294 2.32686 13.6228 1.71654C13.0161 1.10622 12.0296 1.10322 11.4193 1.70986L1.10509 11.9617C0.494766 12.5683 0.491773 13.5548 1.09841 14.1651Z" fill="#C4C4C4"/>
</svg>
