<svg width="139" height="48" viewBox="0 0 139 48" fill="none" xmlns="http://www.w3.org/2000/svg">
<path fill-rule="evenodd" clip-rule="evenodd" d="M114.465 18.8327V28.2425H116.28H118.094V23.1757V18.1089H119.263C120.709 18.1089 121.208 18.3361 121.587 19.168C121.837 19.7182 121.863 20.1615 121.866 24.0081L121.869 28.2425H123.692H125.516L125.47 23.3567C125.426 18.5786 125.418 18.4557 125.087 17.7863C124.902 17.4098 124.499 16.904 124.193 16.6623C123.189 15.8693 122.716 15.7494 120.308 15.6782L118.094 15.6126V12.5177V9.42285H116.28H114.465V18.8327ZM67.2424 15.6522C64.6524 16.302 63.2156 18.6776 63.2207 22.3013C63.2243 24.9308 63.8501 26.6074 65.1644 27.5091C66.1037 28.1536 66.7024 28.2631 69.0204 28.2143L71.1203 28.1701L71.5242 27.0844C71.7463 26.4872 71.9654 25.8847 72.0109 25.7453C72.0869 25.5127 71.9379 25.492 70.1919 25.492C68.9055 25.492 68.1355 25.4275 67.8118 25.2926C67.2934 25.0766 66.8478 24.339 66.8478 23.6967V23.3205H70.6223H74.3969V21.8651C74.3969 19.8841 74.0871 18.6115 73.3313 17.4871C72.8256 16.735 72.5684 16.5083 71.7505 16.0947C70.8561 15.6423 70.6479 15.597 69.2825 15.5575C68.4625 15.5339 67.5444 15.5765 67.2424 15.6522ZM93.342 15.7962C92.273 16.1361 91.0794 17.1336 90.5907 18.0952C89.8936 19.4671 89.7557 20.2686 89.8088 22.6416C89.8547 24.6947 89.885 24.8981 90.2654 25.7091C90.744 26.7296 91.2116 27.2564 92.1081 27.7849C92.7333 28.1536 92.8649 28.1722 95.175 28.2182L97.5885 28.2664L98.0422 27.0164C98.2916 26.3289 98.4957 25.7094 98.4957 25.6399C98.4957 25.5703 97.5498 25.4923 96.3936 25.4665C94.3453 25.4207 94.2816 25.4099 93.9097 25.0386C93.6465 24.7757 93.5045 24.4501 93.4524 23.989L93.3769 23.3205H97.1703H100.964V22.0839C100.964 17.662 99.1159 15.4852 95.3843 15.5112C94.6521 15.5162 93.8866 15.6231 93.342 15.7962ZM53.8321 15.7985C52.5002 16.0614 51.3598 16.9497 50.9369 18.0538C50.7719 18.4848 50.7173 18.9792 50.7571 19.682C50.8073 20.5677 50.8823 20.7898 51.3701 21.4961C52.1983 22.6954 53.0074 23.047 55.1261 23.1289C57.055 23.2036 57.318 23.2478 57.6191 23.5482C57.9577 23.8858 57.913 24.8085 57.5418 25.1438C57.2743 25.3854 56.9296 25.4286 54.761 25.492L52.2856 25.5643L51.8009 26.8672C51.5343 27.5838 51.3158 28.1906 51.3152 28.2155C51.3147 28.2405 52.931 28.2405 54.9073 28.2155C58.325 28.1723 58.5375 28.1534 59.2613 27.827C60.0938 27.4518 60.9541 26.603 61.2727 25.8426C61.3848 25.5752 61.4764 24.9391 61.4764 24.4291C61.4764 22.798 60.8607 21.6248 59.626 20.9033C59.0029 20.5392 58.7842 20.4995 56.9815 20.4248C55.8933 20.3797 54.878 20.2663 54.7067 20.1711C54.1477 19.8602 54.0468 19.0755 54.4948 18.523C54.7598 18.1964 54.8738 18.1781 57.0509 18.1089L59.3297 18.0365L59.7498 16.8864C59.9808 16.254 60.1698 15.7164 60.1698 15.6921C60.1698 15.5918 54.3881 15.6889 53.8321 15.7985ZM80.0974 15.8004C78.6246 16.0904 77.4066 17.1036 76.8388 18.5112C76.5314 19.2736 76.5046 19.5578 76.5033 22.0899C76.5019 24.7516 76.5141 24.8664 76.8795 25.6434C77.3786 26.7044 78.0314 27.424 78.8673 27.8346C79.4659 28.1286 79.8291 28.1791 81.8007 28.2425L84.0509 28.3149L84.1001 28.7466C84.1697 29.3575 83.8741 30.2373 83.5389 30.4161C83.3827 30.4994 82.7317 30.6079 82.0922 30.6571C81.4529 30.7063 80.9297 30.757 80.9297 30.7697C80.9297 30.7825 80.7324 31.332 80.4913 31.991L80.0527 33.1891L82.4874 33.1394C84.6445 33.0953 84.9882 33.0541 85.5027 32.7785C86.5886 32.1965 87.3324 31.1033 87.5595 29.7553C87.626 29.3611 87.6627 26.0259 87.6411 22.3433L87.602 15.6478L84.1569 15.6637C82.2622 15.6724 80.4354 15.734 80.0974 15.8004ZM103.445 16.8161C103.198 17.4612 102.996 18.0158 102.996 18.0488C102.996 18.0818 104.139 18.1089 105.537 18.1089C106.934 18.1089 108.075 18.1578 108.072 18.2174C108.07 18.2771 106.828 20.012 105.314 22.0724L102.561 25.819V27.0307V28.2425H106.896H111.231L111.687 26.9731C111.937 26.2749 112.142 25.656 112.142 25.5978C112.142 25.5396 110.966 25.492 109.529 25.492C108.092 25.492 106.916 25.4591 106.916 25.419C106.916 25.3788 108.127 23.7212 109.607 21.7354L112.299 18.1249L112.257 16.9225L112.215 15.7202L108.054 15.6818L103.894 15.6435L103.445 16.8161ZM130.677 16.7033C130.463 17.3024 130.289 17.8636 130.289 17.9506C130.289 18.0585 131.029 18.1089 132.612 18.1089C134.741 18.1089 134.959 18.133 135.225 18.3984C135.536 18.7091 135.602 19.2695 135.375 19.691C135.185 20.0463 134.732 20.199 132.56 20.6402C130.305 21.0986 129.268 21.4687 128.599 22.0549C127.046 23.4146 127.096 26.199 128.694 27.303C129.87 28.116 130.157 28.1591 134.753 28.2127L138.999 28.2621L138.998 23.2217C138.998 20.2608 138.937 17.9631 138.85 17.6526C138.67 17.005 137.772 16.1639 137.013 15.9316C136.708 15.838 135.245 15.7285 133.761 15.6878L131.064 15.6141L130.677 16.7033ZM70.2016 18.4375C70.8385 18.8616 71.2025 19.5976 71.2027 20.4613L71.203 21.149H69.0254H66.8478V20.5004C66.8478 19.5363 67.2015 18.7923 67.8334 18.4269C68.5678 18.0025 69.5552 18.0068 70.2016 18.4375ZM84.1235 21.8004V25.492H82.7512C81.9964 25.492 81.2135 25.4168 81.0113 25.3249C80.8075 25.2324 80.4971 24.8614 80.3149 24.4925C80.0183 23.8923 79.9865 23.6216 79.9904 21.728C79.9943 19.8459 80.028 19.5661 80.316 19.0215C80.4927 18.6873 80.7521 18.3473 80.8924 18.2658C81.0326 18.1843 81.817 18.1157 82.6355 18.1132L84.1235 18.1089V21.8004ZM96.6035 18.3625C97.2529 18.6891 97.6237 19.3436 97.7275 20.3468L97.8105 21.149H95.5197H93.2288L93.3119 20.3468C93.4612 18.9036 94.245 18.1093 95.5197 18.1093C95.839 18.1093 96.3268 18.2232 96.6035 18.3625ZM135.37 23.8995V25.492H133.476C131.659 25.492 131.568 25.4776 131.226 25.1366C130.781 24.6936 130.77 24.186 131.196 23.794C131.447 23.5631 134.665 22.3968 135.261 22.321C135.321 22.3133 135.37 23.0237 135.37 23.8995ZM112.112 31.4407C110.545 31.6667 109.216 32.7037 108.625 34.1612C108.338 34.8672 108.295 35.2314 108.295 36.9285C108.295 38.7621 108.319 38.9321 108.689 39.6791C109.264 40.8409 109.825 41.4434 110.784 41.9278C111.566 42.3228 111.756 42.3573 113.158 42.3573C114.56 42.3573 114.751 42.3228 115.533 41.9278C116.497 41.4405 117.062 40.8309 117.616 39.6791C117.94 39.0058 118.01 38.6335 118.065 37.2663C118.119 35.9058 118.081 35.489 117.821 34.635C117.092 32.2434 114.931 31.0341 112.112 31.4407ZM93.1102 31.574C91.8302 31.7899 90.8493 32.5766 90.2372 33.8781C89.8794 34.639 89.8579 34.8115 89.8579 36.9285C89.8579 39.0942 89.8721 39.2012 90.2652 39.9996C90.7408 40.9653 91.7065 41.8729 92.5156 42.1147C92.8406 42.2118 94.0052 42.2849 95.2263 42.2849H97.3671L97.3108 43.2781C97.2673 44.0471 97.1682 44.4014 96.8718 44.8479C96.3316 45.6619 95.6599 45.9346 93.9998 46.0137C92.5604 46.0821 92.2532 46.2205 92.2532 46.8003C92.2532 47.0376 92.407 47.0621 93.8865 47.0608C95.3002 47.0596 95.6172 47.0134 96.2455 46.7172C97.1179 46.3059 97.6514 45.7655 98.0484 44.8907C98.3315 44.2672 98.3443 43.9646 98.3473 37.8333L98.3505 31.4274L96.0641 31.4445C94.8064 31.4537 93.4772 31.5121 93.1102 31.574ZM103.444 31.5845C102.194 31.8293 101.122 32.8311 100.824 34.0332C100.721 34.451 100.678 36.0347 100.704 38.4486L100.746 42.2125L101.29 42.2574L101.835 42.3024V38.2264C101.835 33.6762 101.851 33.5946 102.851 32.9744C103.277 32.7105 103.626 32.6508 105.006 32.6064L106.654 32.5534L106.857 32.0674C106.969 31.8002 107.061 31.5468 107.061 31.5044C107.061 31.3818 104.151 31.4462 103.444 31.5845ZM120.078 31.524C120.025 31.5769 119.981 33.4208 119.981 35.6213C119.981 39.6021 119.983 39.626 120.346 40.3508C120.73 41.1208 121.557 41.8198 122.435 42.1175C122.739 42.2209 123.975 42.2849 125.665 42.2849H128.402V36.8475V31.4099L127.857 31.4549L127.313 31.4998L127.275 36.3133L127.236 41.1268H125.055C122.596 41.1268 122.044 40.9684 121.409 40.0805C121.076 39.615 121.07 39.5355 121.026 35.5171L120.981 31.4274H120.578C120.356 31.4274 120.131 31.4708 120.078 31.524ZM130.724 39.0097V46.6279H131.232H131.741V44.4564V42.2849H133.817C135.758 42.2849 135.943 42.2604 136.644 41.9117C137.529 41.4723 138.036 40.9158 138.548 39.8239C138.89 39.0925 138.921 38.8683 138.921 37.0733C138.922 34.6952 138.695 33.8085 137.839 32.8384C136.82 31.6838 136.292 31.5225 133.303 31.4522L130.724 31.3915V39.0097ZM115.139 32.8885C116.494 33.5584 117.188 35.1964 117.039 37.3722C116.906 39.3097 116.015 40.6899 114.631 41.1035C113.909 41.3193 112.408 41.3193 111.686 41.1035C110.876 40.8616 110.058 40.0979 109.663 39.215C109.371 38.5627 109.319 38.2116 109.315 36.8561C109.312 35.4104 109.348 35.1896 109.707 34.4595C109.925 34.0171 110.266 33.5031 110.464 33.317C111.438 32.405 113.735 32.1944 115.139 32.8885ZM97.3343 36.8561V41.1268L95.1204 41.1245C92.389 41.1214 92.0085 40.9706 91.313 39.6142C90.8994 38.8079 90.8741 38.6624 90.8741 37.0836C90.8741 35.1298 91.0833 34.2563 91.7267 33.5225C92.3945 32.761 93.0222 32.5993 95.3382 32.5919L97.3343 32.5855V36.8561ZM136.488 33.0465C136.858 33.2904 137.205 33.6946 137.421 34.1322C137.737 34.773 137.765 35.0075 137.765 37.0247V39.2199L137.324 39.8454C136.497 41.0195 136.204 41.1268 133.824 41.1268H131.741V36.9527C131.741 34.6569 131.789 32.7294 131.849 32.6694C131.909 32.6093 132.845 32.5821 133.929 32.609C135.783 32.655 135.935 32.6809 136.488 33.0465Z" fill="#262626"/>
<path fill-rule="evenodd" clip-rule="evenodd" d="M12.4162 2.86564C14.4956 1.49629 16.5064 0.6979 19.0097 0.24753C23.3098 -0.525814 28.1101 0.537932 31.8286 3.08843C33.027 3.91042 37.2359 7.92133 39.2346 10.1464C42.483 13.7624 43.9394 17.4383 43.9378 22.0173C43.9365 25.7835 42.857 29.0943 40.6576 32.0781C39.465 33.696 33.241 39.8486 31.8203 40.8142C28.9887 42.7386 26.1018 43.7016 22.7664 43.8342C19.5872 43.9606 17.164 43.4879 14.5093 42.2234C12.3079 41.1748 10.9855 40.0986 7.1502 36.2339C2.77582 31.8262 1.85833 30.5511 0.82643 27.446C0.143968 25.3926 -0.00890011 24.3476 0.000391016 21.8001C0.00968214 19.2668 0.207119 18.156 1.06437 15.8134C2.07347 13.0562 3.37946 11.351 7.85023 6.9524C10.2135 4.62745 11.5294 3.44963 12.4162 2.86564ZM24.5105 8.69467C26.6591 9.24261 27.4223 9.76551 30.5262 12.8168C33.6862 15.9232 34.5423 17.0466 35.142 18.8737C35.4724 19.8808 35.5327 20.3178 35.5354 21.7277C35.5382 23.1725 35.4859 23.5454 35.1393 24.5492C34.5336 26.3029 33.8808 27.2331 31.6491 29.5218C27.7123 33.5597 26.1283 34.7242 23.8432 35.2615C22.536 35.5687 20.6636 35.5388 19.2904 35.1886C17.3315 34.689 16.2648 33.9675 13.5148 31.2823C12.1693 29.9686 10.748 28.4933 10.3565 28.0037C9.00973 26.32 8.33946 24.4027 8.33946 22.2344C8.33946 20.0654 9.01017 18.1476 10.3572 16.4652C10.7491 15.9756 12.3336 14.3374 13.8783 12.8246C16.1604 10.5897 16.8819 9.97166 17.7267 9.5278C19.8186 8.42888 22.2821 8.12632 24.5105 8.69467ZM11.1866 20.415C11.6808 18.7536 12.0285 18.3025 15.5028 14.8125C18.5858 11.7157 18.8663 11.4704 18.981 11.7724C19.0497 11.9529 19.2891 12.5974 19.5129 13.2046L19.9198 14.3086L17.2462 16.9685C14.1576 20.0413 13.7109 20.7067 13.7109 22.2344C13.7109 22.942 13.8034 23.3138 14.1532 24.0119C14.9439 25.5897 16.2074 26.3857 17.9209 26.3857C19.4837 26.3857 20.0074 26.0768 22.294 23.8053C23.5066 22.6007 24.3108 21.9038 24.3727 22.0037C24.4282 22.0933 24.666 22.7337 24.901 23.427L25.3283 24.6875L23.6933 26.3271C21.7688 28.2573 20.6855 28.8953 18.8959 29.1524C14.7408 29.7493 10.9526 26.45 10.9526 22.2344C10.9526 21.6662 11.0578 20.8474 11.1866 20.415ZM20.2215 17.6343C21.9743 15.9126 22.7697 15.3867 24.2019 15.0022C25.8069 14.571 27.7951 14.8099 29.3062 15.6155C30.4776 16.2399 31.6372 17.4864 32.2563 18.7861C32.7397 19.8013 32.7995 20.0583 32.8513 21.3429C32.9222 23.1027 32.6386 24.2761 31.8565 25.4597C31.336 26.2472 25.1078 32.5719 24.9886 32.4338C24.883 32.3115 24.0182 29.956 24.0182 29.7908C24.0182 29.7008 25.2554 28.3871 26.7677 26.8717C29.8825 23.7501 30.1081 23.4079 30.1109 21.8001C30.1151 19.3953 28.3491 17.6068 25.9781 17.6149C24.3796 17.6204 23.8381 17.9388 21.5347 20.2269C19.8747 21.876 19.5419 22.1465 19.4505 21.9223C19.3907 21.7755 19.159 21.1245 18.9358 20.4756L18.5299 19.2958L20.2215 17.6343ZM29.9876 5.51863C28.7023 4.65785 26.9307 3.85801 25.47 3.47887C23.1607 2.87953 19.8538 2.9758 17.6076 3.70775C14.8148 4.61775 13.6611 5.47042 9.34668 9.81386C5.025 14.1645 4.416 15.0294 3.45553 18.1809C3.09419 19.3667 3.05775 19.6985 3.04962 21.8725C3.04193 23.9272 3.08722 24.4331 3.37365 25.4917C3.81425 27.1201 4.94109 29.3888 5.89793 30.5738C7.0072 31.9478 13.1938 37.9156 14.1852 38.5676C15.3299 39.3208 16.9653 40.0448 18.3956 40.4315C20.1139 40.8962 23.8362 40.8947 25.5426 40.4287C26.9001 40.058 29.1244 39.0232 30.1762 38.273C31.2276 37.5229 37.4027 31.3918 38.2376 30.269C40.0654 27.8104 40.9356 25.0491 40.9064 21.8001C40.8928 20.2895 40.8167 19.6409 40.521 18.513C40.0373 16.6686 39.2245 14.9764 38.1365 13.5484C36.9854 12.0379 31.1798 6.31702 29.9876 5.51863ZM19.5904 5.75417C18.2908 6.03125 16.7254 6.68125 15.5662 7.42521C14.5763 8.06045 9.00436 13.4639 7.98306 14.7789C6.12934 17.1658 5.32333 19.7758 5.47257 22.9086C5.59103 25.3974 6.31066 27.4362 7.76385 29.4004C8.69137 30.654 13.8536 35.7086 14.915 36.4023C19.0523 39.1067 24.4645 39.0816 28.5385 36.3395C29.6714 35.5768 34.9301 30.4298 35.9978 29.0385C36.9372 27.8143 37.6972 26.2557 38.1156 24.6955C38.5256 23.1669 38.5623 20.3624 38.1905 18.9772C37.3678 15.9111 36.8152 15.076 33.1756 11.398C29.2294 7.4103 28.0256 6.57369 25.2087 5.86115C23.5834 5.45001 21.2271 5.40514 19.5904 5.75417Z" fill="#197B2C"/>
</svg>
